<?xml version="1.0" encoding="iso-8859-1"?>
<!DOCTYPE svg PUBLIC "-//W3C//DTD SVG 1.0//EN" "http://www.w3.org/TR/2001/REC-SVG-20010904/DTD/svg10.dtd">
<!-- Creator: CorelDRAW -->
<svg xmlns="http://www.w3.org/2000/svg" xmlns:odm="http://product.corel.com/CGS/11/cddns/" xmlns:corel-charset="http://product.corel.com/CGS/11/cddns/" xml:space="preserve" width="9.28863in" height="6.56772in" style="shape-rendering:geometricPrecision; text-rendering:geometricPrecision; image-rendering:optimizeQuality; fill-rule:evenodd"
     viewBox="0 0 9288.63 6567.72">
 <defs>
  <style type="text/css">
   <![CDATA[
    .str0 {stroke:#1F1A17;stroke-width:2.38314}
    .fil0 {fill:none}
    .fil1 {fill:#1F1A17}
   ]]>
  </style>
 </defs>
 <g id="Ebene_x0020_1">
  <rect class="fil0 str0" x="425.389" y="969.475" width="3362.9" height="2354.03"/>
  <rect class="fil0 str0" x="5974.38" y="969.476" width="3066.23" height="1601.05"/>
  <rect class="fil1 str0" x="3789.47" y="1332.93" width="2179.78" height="43.5971"/>
  <rect class="fil0 str0" x="806.331" y="1245.57" width="1155.72" height="693.435"/>
  <rect class="fil0 str0" x="914.612" y="2557.15" width="546.343" height="493.811"/>
  <rect class="fil0 str0" x="3120.02" y="1237.11" width="504.316" height="577.862"/>
  <path class="fil1 str0" d="M1260.46 1940.38l-1.2291 618.498 -19.9846 -0.0344023 1.24161 -618.498 19.9721 0.0344023z"/>
  <path class="fil0 str0" d="M3120.61 1239l1.30416 -1.13215 501.167 574.944 -1.31667 1.12902 -501.154 -574.941z"/>
  <path class="fil1" d="M1510.73 856.796l16.779 -3.8343c6.73347,20.2786 21.392,30.396 43.9005,30.396 11.7937,0 20.6476,-2.4926 26.5993,-7.44028 5.95473,-4.98521 8.92897,-11.6436 8.92897,-20.0159 0,-6.32377 -2.26743,-11.4216 -6.80853,-15.2527 -4.53798,-3.8687 -9.78277,-6.51142 -15.7375,-7.96257l-29.7611 -7.40275c-7.70299,-1.97344 -13.9892,-4.35346 -18.8994,-7.14317 -4.91328,-2.78972 -9.07909,-7.10564 -12.5006,-12.9103 -3.38707,-5.80461 -5.0978,-12.463 -5.0978,-19.9408 0,-12.4255 4.6881,-22.324 14.0612,-29.7267 9.3762,-7.36522 21.3951,-11.0494 36.0536,-11.0494 27.0465,0 44.8294,12.241 53.3111,36.7198l-16.8884 5.02274c-1.97344,-8.70379 -6.58648,-15.3278 -13.8422,-19.7907 -7.25264,-4.46605 -14.9932,-6.69907 -23.2153,-6.69907 -8.1471,0 -15.4029,2.15796 -21.7642,6.43636 -6.3613,4.2784 -9.52319,10.3426 -9.52319,18.1926 0,10.9775 8.07204,18.3802 24.1817,22.2489l27.7908 6.65841c25.4483,6.10172 38.1709,19.7938 38.1709,41.0732 0,12.8727 -4.79756,23.5531 -14.3207,32.1099 -9.56385,8.51927 -23.0308,12.7977 -40.404,12.7977 -30.8057,0 -51.1563,-14.1769 -61.0141,-42.4869z"/>
  <path class="fil1" d="M1760.41 896.343l-18.6367 0 0 -70.8375 -68.9767 0 0 70.8375 -18.6398 0 0 -148.778 18.6398 0 0 61.5708 68.9767 0 0 -61.5708 18.6367 0 0 148.778z"/>
  <path class="fil1" d="M1882.36 747.566l15.4779 0 0 97.1021c0,19.4936 -4.76316,33.4453 -14.3239,41.9271 -9.56072,8.44733 -22.0613,12.6882 -37.5392,12.6882 -17.2231,0 -29.9863,-4.35346 -38.2835,-13.0604 -8.25656,-8.74132 -12.4255,-22.5804 -12.4255,-41.5549l0 -97.1021 18.6398 0 0 97.1021c0,11.5686 1.37609,19.7157 4.05635,24.4413 2.67713,4.72563 6.73347,8.18463 12.2034,10.4552 5.42931,2.23302 11.1589,3.38394 17.1136,3.38394 11.4935,0 20.2004,-3.01177 26.152,-9.07596 5.95473,-6.02666 8.92897,-15.7375 8.92897,-29.2044l0 -97.1021z"/>
  <path class="fil1" d="M2039.88 896.343l-19.4936 0 -27.4937 -64.4012 -42.5995 0 0 64.4012 -17.4482 0 0 -148.778 58.6341 0c15.922,0 27.7158,4.35033 35.3812,13.0197 7.66234,8.66939 11.4935,18.1926 11.4935,28.4976 0,7.92504 -2.15796,15.5154 -6.43636,22.7712 -4.2784,7.29017 -11.384,12.463 -21.2419,15.5874l29.2044 68.9016zm-89.5868 -79.5788l38.9153 0c10.23,0 17.8955,-2.68025 22.9182,-8.10957 5.06027,-5.39491 7.5904,-12.0565 7.5904,-19.9064 0,-7.84998 -2.68025,-13.9517 -8.0001,-18.3052 -5.35738,-4.35033 -12.0909,-6.54582 -20.2379,-6.54582l-41.1858 0 0 52.867z"/>
  <path class="fil1" d="M2165.89 880.011l0 16.3317 -96.2452 0 0 -148.778 94.1623 0 0 16.3317 -75.5225 0 0 47.322 59.9351 0 0 15.1433 -59.9351 0 0 53.6489 77.6054 0z"/>
  <path class="fil1" d="M2225.83 833.878l0 13.32 -49.2579 0 0 -13.32 49.2579 0z"/>
  <path class="fil1" d="M2247.74 896.343l0 -148.778 58.8561 0c14.8086,0 25.8205,3.64352 32.9637,10.8993 7.1807,7.25576 10.7523,15.7 10.7523,25.2982 0,16.854 -8.81951,28.0535 -26.3803,33.5579 10.4552,2.68025 18.2301,7.47781 23.3279,14.3989 5.0978,6.88359 7.62793,14.696 7.62793,23.4374 0,11.6843 -3.94376,21.4671 -11.8313,29.3546 -7.88751,7.88751 -20.0534,11.8313 -36.4602,11.8313l-58.8561 0zm17.9705 -85.0113l32.4039 0c13.4294,0 22.3959,-2.56766 26.8964,-7.69987 4.50358,-5.0978 6.77413,-11.1245 6.77413,-18.0456 0,-6.80853 -2.42067,-12.3504 -7.25576,-16.5569 -4.83822,-4.20334 -12.0533,-6.32377 -21.6547,-6.32377l-37.1639 0 0 48.6261zm0 68.6796l39.9192 0c9.71084,0 17.2606,-2.38314 22.546,-7.10564 5.31985,-4.72563 7.95945,-10.8649 7.95945,-18.4178 0,-5.31985 -1.18844,-10.23 -3.60912,-14.768 -2.38002,-4.54111 -5.76395,-8.03763 -10.1174,-10.5302 -4.35346,-2.45507 -10.8649,-3.68418 -19.5343,-3.68418l-37.1639 0 0 54.5058z"/>
  <path class="fil1" d="M2420.63 899.283c-15.1433,0 -26.937,-5.58256 -35.3812,-16.779 -8.48486,-11.1995 -12.6882,-25.0762 -12.6882,-41.6331 0,-17.5233 4.72563,-31.5094 14.2488,-41.9646 9.52632,-10.4552 21.392,-15.7 35.5313,-15.7 15.2152,0 27.1591,5.50437 35.9379,16.5194 8.74445,11.0119 13.1323,24.7384 13.1323,41.2578 0,17.1511 -4.7225,31.1404 -14.1738,42.0021 -9.44813,10.8649 -21.6516,16.2973 -36.6072,16.2973zm1.30103 -14.0643c8.70692,0 15.9971,-3.60912 21.9143,-10.7898 5.87654,-7.1807 8.81638,-18.3771 8.81638,-33.5579 0,-15.2527 -3.08683,-26.3397 -9.26361,-33.1857 -6.17678,-6.88359 -13.4325,-10.3051 -21.6891,-10.3051 -8.52239,0 -15.7,3.459 -21.5796,10.4176 -5.87967,6.92112 -8.85391,17.933 -8.85391,32.9637 0,15.922 2.97424,27.3061 8.85391,34.1521 5.87967,6.88359 13.1323,10.3051 21.8017,10.3051z"/>
  <path class="fil1" d="M2583.32 896.343l-17.0041 0c-0.631752,-3.49653 -1.30103,-10.083 -1.93279,-19.8282 -7.5904,15.1777 -20.4256,22.7681 -38.6182,22.7681 -12.3536,0 -21.8017,-3.27448 -28.4257,-9.82343 -6.62088,-6.51142 -9.93289,-14.3614 -9.93289,-23.5124 0,-11.1245 4.72563,-20.2755 14.1769,-27.4187 9.44813,-7.1807 25.5203,-10.7523 48.1789,-10.7523 3.0493,0 7.92504,0.150119 14.621,0.44723 0,-8.70692 -0.669282,-15.0307 -2.0485,-18.8994 -1.33856,-3.90623 -4.16581,-6.99618 -8.5568,-9.33867 -4.35033,-2.30808 -10.0799,-3.49653 -17.1855,-3.49653 -17.3763,0 -27.4937,6.62088 -30.3241,19.8658l-15.8094 -2.75219c3.8687,-20.2786 20.0534,-30.396 48.6261,-30.396 15.1777,0 25.9675,3.34641 32.3288,10.083 6.32377,6.73347 9.52319,18.3771 9.52319,34.934l0 46.7653c0,7.77493 0.781871,14.8806 2.38314,21.3545zm-18.9369 -55.0625c-6.99618,-0.4097 -12.2785,-0.631752 -15.9251,-0.631752 -13.5045,0 -24.0316,2.19549 -31.5094,6.65841 -7.47781,4.42852 -11.2371,10.9024 -11.2371,19.3841 0,5.39491 2.04537,9.97042 6.06419,13.7297 4.01882,3.79364 9.85783,5.69202 17.4858,5.69202 10.3426,0 18.8243,-3.75924 25.4483,-11.2371 6.65841,-7.47781 9.97042,-16.2942 9.97042,-26.3772 0,-2.04537 -0.112589,-4.42852 -0.297111,-7.21823z"/>
  <path class="fil1" d="M2632.28 896.343l-17.1136 0 0 -110.087 15.0307 0 0 25.7079c5.31985,-12.1284 10.6397,-19.9784 15.9596,-23.5875 5.35738,-3.60912 10.8273,-5.39491 16.4068,-5.39491 1.74826,0 4.01882,0.150119 6.771,0.44723l0 16.3317 -3.49653 0c-9.44813,0 -17.2981,3.53718 -23.55,10.5678 -6.24871,7.06811 -9.56072,16.3317 -10.0079,27.8284l0 58.1868z"/>
  <path class="fil1" d="M2771.13 747.566l0 148.778 -15.5499 0 0 -18.8619c-7.70299,14.5459 -19.3091,21.8017 -34.787,21.8017 -12.8727,0 -23.4374,-5.39491 -31.7346,-16.1847 -8.25969,-10.7898 -12.4255,-24.4413 -12.4255,-40.9231 0,-16.854 4.12828,-30.9183 12.3504,-42.1147 8.18463,-11.2371 19.087,-16.854 32.6666,-16.854 13.2449,0 24.0347,6.02666 32.4039,18.08l0 -53.7208 17.0761 0zm-17.0761 81.2145c0,-9.67331 -2.97424,-17.4107 -8.85391,-23.2153 -5.87967,-5.83901 -12.7601,-8.74132 -20.5726,-8.74132 -8.52239,0 -15.5154,3.79364 -20.9854,11.3465 -5.50437,7.55287 -8.25969,18.155 -8.25969,31.8096 0,14.768 2.53013,26.005 7.5904,33.7049 5.06027,7.70299 11.9814,11.5342 20.7602,11.5342 8.0001,0 15.0307,-3.34641 21.1324,-10.0079 6.13925,-6.69594 9.18855,-14.5459 9.18855,-23.55l0 -22.8807z"/>
  <path class="fil1" d="M1289.38 1693.44l0 -147.254 17.1136 0 0 61.6865c0,8.07204 0.781871,14.3958 2.30808,18.9713 1.52621,4.57864 4.35346,8.59433 8.44421,12.0565 4.09388,3.42147 9.07909,5.16973 14.8837,5.16973 17.8579,0 26.8213,-12.5006 26.8213,-37.5017l0 -60.3823 17.1167 0 0 110.087 -15.5905 0 0 -17.2262c-6.47389,13.4325 -15.7375,20.166 -27.7908,20.166 -11.5717,0 -20.2755,-5.72955 -26.1927,-17.2262l0 51.4534 -17.1136 0z"/>
  <path class="fil1" d="M1500.18 1606.23l17.0417 3.83117c-8.15022,32.7792 -26.5273,49.1484 -55.1751,49.1484 -18.8243,0 -33.5954,-7.5904 -44.3102,-22.7681 -10.7148,-15.1808 -16.0721,-33.8581 -16.0721,-56.032 0,-22.8807 5.57943,-41.2578 16.779,-55.1344 11.1995,-13.9142 26.1927,-20.8353 45.017,-20.8353 27.9034,0 45.8364,15.9596 53.7615,47.8443l-17.5608 3.49653c-6.39883,-23.6969 -18.4928,-35.5282 -36.3132,-35.5282 -13.1323,0 -23.3248,5.50437 -30.5805,16.5194 -7.21823,10.9743 -10.8273,26.4523 -10.8273,46.3556 0,18.2301 3.72171,32.8511 11.1245,43.863 7.40275,11.0119 17.2262,16.5194 29.4296,16.5194 18.9744,0 31.5125,-12.4255 37.6862,-37.2796z"/>
  <path class="fil1" d="M1088.01 2837.14l0 8.68815 -46.7184 0 0 -79.1316 10.1518 0 0 70.4435 36.5665 0z"/>
  <path class="fil1" d="M1175.83 2845.83l-9.61701 0 0 -69.0986 -25.7454 69.0986 -6.72722 0 -25.9018 -69.0986 0 69.0986 -8.4098 0 0 -79.1316 14.7211 0 23.8252 63.3003 23.3717 -63.3003 14.4834 0 0 79.1316z"/>
  <path class="fil1" d="M1219.03 2845.83l-10.2112 0c0,-13.2574 2.71153,-26.1614 8.11582,-38.7057 5.41993,-12.5256 12.0502,-23.1121 19.8845,-31.7408l-42.9591 0 0.988285 -8.68502 52.2822 0 0 5.91407c-9.41998,11.359 -16.485,23.1934 -21.1543,35.4813 -4.66933,12.2879 -7.00556,23.9628 -7.00556,35.0059 0,0.631752 0.0218924,1.52308 0.0594222,2.73029z"/>
  <path class="fil1" d="M1313.36 2766.7l-0.813146 8.52865 -38.9028 0 -1.68259 25.6641c5.87654,-5.7577 12.3285,-8.62873 19.3529,-8.62873 7.42152,0 13.8329,2.57392 19.234,7.71863 5.3824,5.12595 8.07516,11.6937 8.07516,19.7094 0,8.11269 -2.93045,14.7617 -8.78823,19.9471 -5.85465,5.16348 -13.001,7.75616 -21.4702,7.75616 -6.64903,0 -12.5631,-1.74201 -17.7485,-5.22603 -5.16348,-3.46212 -8.56931,-7.97196 -10.1925,-13.4951l8.46923 -2.90856c3.46525,9.20106 9.99544,13.8141 19.5906,13.8141 6.2925,0 11.2996,-1.87962 15.0213,-5.60132 3.69981,-3.74047 5.56067,-8.48799 5.56067,-14.2863 0,-6.0767 -1.84209,-10.8055 -5.50124,-14.2082 -3.68105,-3.4027 -8.09393,-5.10718 -13.2199,-5.10718 -7.49971,0 -13.714,3.60286 -18.621,10.7867l-7.81558 -1.68259 2.55203 -42.7809 46.8998 0z"/>
  <path class="fil1" d="M1351.43 2292.89l-9.91412 0 0 -79.1316 9.91412 0 0 79.1316z"/>
  <path class="fil1" d="M1401.75 2255.61l0 5.62009 -35.7753 0 0 -5.44182c13.8704,-9.8547 22.1207,-16.3067 24.7321,-19.3748 2.61458,-3.04617 3.91874,-6.05481 3.91874,-9.04156 0,-2.73029 -1.08836,-4.94768 -3.22444,-6.63027 -2.13607,-1.68259 -4.60991,-2.51137 -7.39963,-2.51137 -2.93045,0 -5.52314,0.928863 -7.75929,2.82725 -2.23615,1.90151 -3.50278,4.57238 -3.778,7.99698l-6.48953 -1.90151c2.47071,-9.59825 8.50676,-14.3864 18.0862,-14.3864 5.2229,0 9.43875,1.42613 12.6819,4.25651 3.22756,2.84914 4.82884,6.19242 4.82884,10.0111 0,5.06652 -2.39253,9.77652 -7.18383,14.1675 -4.78818,4.39412 -11.0994,9.20419 -18.8963,14.4083l26.2584 0z"/>
  <path class="fil1" d="M1464.52 2266.27l9.06345 2.03912c-4.33469,17.4326 -14.1112,26.1395 -29.3483,26.1395 -10.0111,0 -17.8673,-4.03758 -23.5656,-12.1096 -5.69828,-8.07516 -8.55054,-18.0081 -8.55054,-29.8018 0,-12.169 2.97111,-21.9456 8.92584,-29.3264 5.95473,-7.39963 13.9298,-11.0807 23.944,-11.0807 14.8399,0 24.3787,8.48799 28.5946,25.4483l-9.34179 1.85773c-3.4027,-12.6038 -9.83281,-18.8963 -19.3122,-18.8963 -6.9868,0 -12.4067,2.92733 -16.266,8.7851 -3.83742,5.83901 -5.7577,14.0706 -5.7577,24.6571 0,9.6952 1.97657,17.4733 5.9172,23.331 3.9375,5.85465 9.1604,8.7851 15.6499,8.7851 10.0924,0 16.7602,-6.60837 20.0472,-19.8282z"/>
  <path class="fil1" d="M3415.17 1323.86l8.23154 0 0 51.6473c0,10.3676 -2.53326,17.7891 -7.61855,22.299 -5.08529,4.49419 -11.7343,6.74911 -19.9659,6.74911 -9.16353,0 -15.9502,-2.31434 -20.363,-6.94614 -4.39412,-4.65057 -6.60837,-12.0127 -6.60837,-22.1019l0 -51.6473 9.91412 0 0 51.6473c0,6.15176 0.731831,10.4865 2.15484,13.001 1.42613,2.51137 3.58097,4.35033 6.49266,5.55754 2.88667,1.18844 5.93596,1.80143 9.10098,1.80143 6.11423,0 10.746,-1.60127 13.911,-4.82884 3.16501,-3.20567 4.75065,-8.36915 4.75065,-15.5311l0 -51.6473z"/>
  <path class="fil1" d="M3433.34 1381.96l8.92584 -2.03599c3.58097,10.7836 11.3778,16.166 23.3498,16.166 6.27373,0 10.9806,-1.32605 14.1487,-3.95939 3.16501,-2.64898 4.74752,-6.19242 4.74752,-10.646 0,-3.36205 -1.20721,-6.07357 -3.62163,-8.11269 -2.41129,-2.05788 -5.20413,-3.46212 -8.36915,-4.23461l-15.8313 -3.9375c-4.09388,-1.04771 -7.44028,-2.31434 -10.0517,-3.79989 -2.61145,-1.48243 -4.82884,-3.778 -6.64903,-6.86483 -1.80143,-3.08683 -2.71153,-6.63027 -2.71153,-10.6084 0,-6.60837 2.49573,-11.8719 7.48094,-15.8094 4.98834,-3.91874 11.3778,-5.87654 19.1746,-5.87654 14.3864,0 23.8439,6.50829 28.3569,19.5311l-8.98526 2.67087c-1.04771,-4.6318 -3.50278,-8.15335 -7.35897,-10.5271 -3.85932,-2.37376 -7.97508,-3.5622 -12.3473,-3.5622 -4.33469,0 -8.19401,1.14779 -11.5779,3.4246 -3.38394,2.27368 -5.06652,5.50124 -5.06652,9.67644 0,5.83589 4.29404,9.77339 12.8633,11.8313l14.7805 3.54344c13.5358,3.2432 20.3036,10.5271 20.3036,21.8455 0,6.84606 -2.55203,12.5256 -7.61855,17.0761 -5.08529,4.53172 -12.2472,6.80853 -21.4889,6.80853 -16.3849,0 -27.2091,-7.54036 -32.4539,-22.5992z"/>
  <path class="fil1" d="M3509.62 1402.99l0 -79.1316 31.303 0c7.87813,0 13.7359,1.93904 17.5327,5.79836 3.82179,3.85619 5.72017,8.35038 5.72017,13.4544 0,8.96337 -4.69123,14.9212 -14.0299,17.8486 5.56067,1.42613 9.6952,3.97816 12.4067,7.65921 2.71153,3.65916 4.05635,7.81558 4.05635,12.4662 0,6.21431 -2.09854,11.4184 -6.2925,15.6124 -4.19396,4.19396 -10.6647,6.2925 -19.3935,6.2925l-31.303 0zm9.55759 -45.2172l17.2356 0c7.14317,0 11.9126,-1.36358 14.3051,-4.09388 2.39565,-2.71153 3.60286,-5.9172 3.60286,-9.59825 0,-3.62163 -1.2854,-6.57084 -3.85932,-8.807 -2.57079,-2.23615 -6.41134,-3.36205 -11.5154,-3.36205l-19.7688 0 0 25.8612zm0 36.529l21.2325 0c5.16348,0 9.18229,-1.26663 11.9908,-3.778 2.83037,-2.5145 4.23461,-5.77959 4.23461,-9.79528 0,-2.83037 -0.631752,-5.44182 -1.91715,-7.85624 -1.26663,-2.41442 -3.06806,-4.27527 -5.3824,-5.60132 -2.31747,-1.30416 -5.77959,-1.95781 -10.3895,-1.95781l-19.7688 0 0 28.9886z"/>
  <path class="fil1" d="M3225.96 1660.51l8.23154 0 0 51.6473c0,10.3676 -2.53326,17.7891 -7.61855,22.299 -5.08529,4.49419 -11.7343,6.74911 -19.9659,6.74911 -9.16353,0 -15.9502,-2.31434 -20.363,-6.94614 -4.39412,-4.65057 -6.60837,-12.0127 -6.60837,-22.1019l0 -51.6473 9.91412 0 0 51.6473c0,6.15176 0.731831,10.4865 2.15484,13.001 1.42613,2.51137 3.58097,4.35033 6.49266,5.55754 2.88667,1.18844 5.93596,1.80143 9.10098,1.80143 6.11423,0 10.746,-1.60127 13.911,-4.82884 3.16501,-3.20567 4.75065,-8.36915 4.75065,-15.5311l0 -51.6473z"/>
  <path class="fil1" d="M3304.16 1739.64l-10.133 0 -8.01261 -23.1309 -29.267 0 -7.08375 23.1309 -8.2722 0 25.6641 -79.1316 11.3184 0 25.7861 79.1316zm-20.2254 -30.5524l-12.169 -38.0333 -12.2879 38.0333 24.4569 0z"/>
  <path class="fil1" d="M3371.42 1739.64l-10.3676 0 -14.6241 -34.2522 -22.6586 0 0 34.2522 -9.27925 0 0 -79.1316 31.1873 0c8.46923,0 14.7398,2.31434 18.8181,6.92425 4.07511,4.60991 6.11423,9.67644 6.11423,15.1589 0,4.21272 -1.14779,8.2503 -3.4246,12.1096 -2.27368,3.87808 -6.05481,6.63027 -11.2996,8.29096l15.5342 36.6479zm-47.6503 -42.3274l20.7008 0c5.44182,0 9.51693,-1.42301 12.1878,-4.3128 2.69276,-2.87103 4.03758,-6.41134 4.03758,-10.5865 0,-4.17519 -1.42613,-7.42152 -4.25338,-9.73586 -2.85227,-2.31434 -6.43323,-3.48402 -10.7648,-3.48402l-21.908 0 0 28.1192z"/>
  <path class="fil1" d="M3410.15 1739.64l-9.8547 0 0 -70.4466 -22.6586 0 0 -8.68502 55.2501 0 0 8.68502 -22.7368 0 0 70.4466z"/>
  <rect class="fil0 str0" x="6146.87" y="1237.11" width="504.316" height="577.862"/>
  <path class="fil0 str0" d="M6147.44 1239.02l1.32605 -1.15404 501.176 574.916 -1.32293 1.15404 -501.179 -574.916z"/>
  <path class="fil1" d="M6757.88 1135.52l8.92584 -2.03599c3.58097,10.7836 11.3778,16.166 23.3498,16.166 6.27373,0 10.9806,-1.32605 14.1487,-3.95939 3.16501,-2.64898 4.74752,-6.19242 4.74752,-10.646 0,-3.36205 -1.20721,-6.07357 -3.62163,-8.11269 -2.41129,-2.05788 -5.20413,-3.46212 -8.36915,-4.23461l-15.8313 -3.9375c-4.09388,-1.04771 -7.44028,-2.31434 -10.0517,-3.79989 -2.61145,-1.48243 -4.82884,-3.778 -6.64903,-6.86483 -1.80143,-3.08683 -2.71153,-6.63027 -2.71153,-10.6084 0,-6.60837 2.49573,-11.8719 7.48094,-15.8094 4.98834,-3.91874 11.3778,-5.87654 19.1746,-5.87654 14.3864,0 23.8439,6.50829 28.3569,19.5311l-8.98526 2.67087c-1.04771,-4.6318 -3.50278,-8.15335 -7.35897,-10.5271 -3.85932,-2.37376 -7.97508,-3.5622 -12.3473,-3.5622 -4.33469,0 -8.19401,1.14779 -11.5779,3.4246 -3.38394,2.27368 -5.06652,5.50124 -5.06652,9.67644 0,5.83589 4.29404,9.77339 12.8633,11.8313l14.7805 3.54344c13.5358,3.2432 20.3036,10.5271 20.3036,21.8455 0,6.84606 -2.55203,12.5256 -7.61855,17.0761 -5.08529,4.53172 -12.2472,6.80853 -21.4889,6.80853 -16.3849,0 -27.2091,-7.54036 -32.4539,-22.5992z"/>
  <path class="fil1" d="M6872.02 1139.1l8.46923 1.74201c-1.54498,4.98834 -4.57238,9.12287 -9.04468,12.388 -4.49107,3.26509 -9.75462,4.88826 -15.8282,4.88826 -7.99698,0 -14.4677,-2.81161 -19.4123,-8.4317 -4.94768,-5.61696 -7.42152,-12.9978 -7.42152,-22.1207 0,-9.3199 2.55203,-16.8415 7.69674,-22.5804 5.14471,-5.73581 11.5967,-8.60684 19.3716,-8.60684 7.64044,0 13.7953,2.65211 18.4647,7.93443 4.65057,5.30421 7.04309,13.2199 7.16194,23.7876l-42.5651 0c0,8.84452 1.86085,14.8211 5.56067,17.908 3.72171,3.08683 7.64044,4.62868 11.775,4.62868 7.45905,0 12.7226,-3.83742 15.7719,-11.5373zm-0.516035 -17.7891c-0.0781871,-3.28386 -0.631752,-6.21118 -1.62316,-8.76634 -1.00705,-2.55203 -2.7084,-4.70686 -5.10405,-6.50829 -2.39565,-1.80143 -5.28232,-2.69276 -8.64749,-2.69276 -4.51296,0 -8.35038,1.62316 -11.4966,4.86949 -3.14625,3.2432 -4.92579,7.59666 -5.30421,13.0979l32.1756 0z"/>
  <path class="fil1" d="M6904.26 1156.56l-9.10411 0 0 -58.5528 7.99698 0 0 13.6734c2.82725,-6.452 5.65762,-10.6272 8.48799,-12.5443 2.84914,-1.92028 5.7577,-2.87103 8.72568,-2.87103 0.93199,0 2.1392,0.0781871 3.60286,0.237689l0 8.68815 -1.86085 0c-5.02587,0 -9.20106,1.87962 -12.5256,5.62009 -3.32452,3.75924 -5.08529,8.68502 -5.32298,14.7993l0 30.9496z"/>
  <path class="fil1" d="M6943.69 1077.43l0 10.0924 -9.81404 0 0 -10.0924 9.81404 0zm-0.297111 20.5788l0 58.5528 -9.10411 0 0 -58.5528 9.10411 0z"/>
  <path class="fil1" d="M7000.21 1139.1l8.46923 1.74201c-1.54498,4.98834 -4.57238,9.12287 -9.04468,12.388 -4.49107,3.26509 -9.75462,4.88826 -15.8282,4.88826 -7.99698,0 -14.4677,-2.81161 -19.4123,-8.4317 -4.94768,-5.61696 -7.42152,-12.9978 -7.42152,-22.1207 0,-9.3199 2.55203,-16.8415 7.69674,-22.5804 5.14471,-5.73581 11.5967,-8.60684 19.3716,-8.60684 7.64044,0 13.7953,2.65211 18.4647,7.93443 4.65057,5.30421 7.04309,13.2199 7.16194,23.7876l-42.5651 0c0,8.84452 1.86085,14.8211 5.56067,17.908 3.72171,3.08683 7.64044,4.62868 11.775,4.62868 7.45905,0 12.7226,-3.83742 15.7719,-11.5373zm-0.516035 -17.7891c-0.0781871,-3.28386 -0.631752,-6.21118 -1.62316,-8.76634 -1.00705,-2.55203 -2.7084,-4.70686 -5.10405,-6.50829 -2.39565,-1.80143 -5.28232,-2.69276 -8.64749,-2.69276 -4.51296,0 -8.35038,1.62316 -11.4966,4.86949 -3.14625,3.2432 -4.92579,7.59666 -5.30421,13.0979l32.1756 0z"/>
  <path class="fil1" d="M7032.45 1156.56l-9.10411 0 0 -79.1316 9.10411 0 0 79.1316z"/>
  <path class="fil1" d="M7059.75 1156.56l-9.10411 0 0 -79.1316 9.10411 0 0 79.1316z"/>
  <path class="fil1" d="M7116.62 1139.1l8.46923 1.74201c-1.54498,4.98834 -4.57238,9.12287 -9.04468,12.388 -4.49107,3.26509 -9.75462,4.88826 -15.8282,4.88826 -7.99698,0 -14.4677,-2.81161 -19.4123,-8.4317 -4.94768,-5.61696 -7.42152,-12.9978 -7.42152,-22.1207 0,-9.3199 2.55203,-16.8415 7.69674,-22.5804 5.14471,-5.73581 11.5967,-8.60684 19.3716,-8.60684 7.64044,0 13.7953,2.65211 18.4647,7.93443 4.65057,5.30421 7.04309,13.2199 7.16194,23.7876l-42.5651 0c0,8.84452 1.86085,14.8211 5.56067,17.908 3.72171,3.08683 7.64044,4.62868 11.775,4.62868 7.45905,0 12.7226,-3.83742 15.7719,-11.5373zm-0.516035 -17.7891c-0.0781871,-3.28386 -0.631752,-6.21118 -1.62316,-8.76634 -1.00705,-2.55203 -2.7084,-4.70686 -5.10405,-6.50829 -2.39565,-1.80143 -5.28232,-2.69276 -8.64749,-2.69276 -4.51296,0 -8.35038,1.62316 -11.4966,4.86949 -3.14625,3.2432 -4.92579,7.59666 -5.30421,13.0979l32.1756 0z"/>
  <path class="fil1" d="M6757.88 1270.14l8.92584 -2.03599c3.58097,10.7836 11.3778,16.166 23.3498,16.166 6.27373,0 10.9806,-1.32605 14.1487,-3.95939 3.16501,-2.64898 4.74752,-6.19242 4.74752,-10.646 0,-3.36205 -1.20721,-6.07357 -3.62163,-8.11269 -2.41129,-2.05788 -5.20413,-3.46212 -8.36915,-4.23461l-15.8313 -3.9375c-4.09388,-1.04771 -7.44028,-2.31434 -10.0517,-3.79989 -2.61145,-1.48243 -4.82884,-3.778 -6.64903,-6.86483 -1.80143,-3.08683 -2.71153,-6.63027 -2.71153,-10.6084 0,-6.60837 2.49573,-11.8719 7.48094,-15.8094 4.98834,-3.91874 11.3778,-5.87654 19.1746,-5.87654 14.3864,0 23.8439,6.50829 28.3569,19.5311l-8.98526 2.67087c-1.04771,-4.6318 -3.50278,-8.15335 -7.35897,-10.5271 -3.85932,-2.37376 -7.97508,-3.5622 -12.3473,-3.5622 -4.33469,0 -8.19401,1.14779 -11.5779,3.4246 -3.38394,2.27368 -5.06652,5.50124 -5.06652,9.67644 0,5.83589 4.29404,9.77339 12.8633,11.8313l14.7805 3.54344c13.5358,3.2432 20.3036,10.5271 20.3036,21.8455 0,6.84606 -2.55203,12.5256 -7.61855,17.0761 -5.08529,4.53172 -12.2472,6.80853 -21.4889,6.80853 -16.3849,0 -27.2091,-7.54036 -32.4539,-22.5992z"/>
  <path class="fil1" d="M6867.96 1270.66l8.23154 1.4449c-1.16655,6.44887 -3.72171,11.5154 -7.71863,15.1558 -3.97816,3.66228 -8.9446,5.48248 -14.8993,5.48248 -8.07516,0 -14.2269,-2.96798 -18.4615,-8.92584 -4.23461,-5.95473 -6.33316,-13.2167 -6.33316,-21.8048 0,-8.88518 2.21739,-16.266 6.68969,-22.1645 4.45041,-5.89531 10.5459,-8.84452 18.2238,-8.84452 6.38945,0 11.4966,1.89838 15.3341,5.72017 3.85932,3.79677 6.23308,8.70692 7.16507,14.7398l-8.23154 1.56374c-1.54498,-9.65454 -6.21431,-14.4834 -14.0299,-14.4834 -5.02587,0 -8.88518,2.13607 -11.5967,6.41134 -2.71153,4.25338 -4.05635,9.79528 -4.05635,16.6007 0,7.49971 1.34482,13.3168 4.03758,17.4733 2.67087,4.15643 6.44887,6.23308 11.3184,6.23308 7.53724,0 12.3066,-4.86637 14.327,-14.6022z"/>
  <path class="fil1" d="M6934.57 1291.18l-9.10411 0 0 -35.5407c0,-4.17519 -0.256454,-7.29955 -0.772489,-9.39809 -0.5348,-2.07665 -1.76077,-3.87808 -3.71858,-5.40116 -1.93904,-1.54498 -4.19708,-2.29557 -6.74911,-2.29557 -4.66933,0 -8.58807,1.91715 -11.7343,5.73893 -3.14625,3.81866 -4.72876,8.94148 -4.72876,15.3528l0 31.5438 -9.10411 0 0 -79.1316 9.10411 0 0 31.3624c4.13453,-8.2722 10.0517,-12.4067 17.7297,-12.4067 3.44336,0 6.51142,0.672409 9.20106,2.03912 2.69276,1.34482 4.75065,3.12436 6.17365,5.32298 1.42613,2.19549 2.39565,4.37222 2.93045,6.53019 0.512907,2.13607 0.772489,5.71704 0.772489,10.7429l0 35.5407z"/>
  <path class="fil1" d="M6998.92 1291.18l-8.52865 0 0 -37.6174c0,-5.42306 -1.16655,-9.21982 -3.52155,-11.4372 -2.37376,-2.19549 -5.2229,-3.30575 -8.58807,-3.30575 -4.62868,0 -8.52865,1.86085 -11.6749,5.58256 -3.14625,3.69981 -4.72876,8.58807 -4.72876,14.6616l0 32.1161 -9.10411 0 0 -58.5528 8.47235 0 0 10.7836c4.74752,-8.2722 10.9024,-12.4067 18.4803,-12.4067 4.37222,0 8.09393,1.12902 11.162,3.38394 3.08683,2.27681 5.18224,4.81007 6.33003,7.63732 1.12902,2.81161 1.70135,7.91566 1.70135,15.2965l0 33.8581z"/>
  <path class="fil1" d="M7026.52 1212.05l0 10.0924 -9.81404 0 0 -10.0924 9.81404 0zm-0.297111 20.5788l0 58.5528 -9.10411 0 0 -58.5528 9.10411 0z"/>
  <path class="fil1" d="M7070.93 1284.93l0 7.1807c-3.20567,0.415955 -5.99851,0.634879 -8.35351,0.634879 -11.3184,0 -16.9979,-5.9172 -16.9979,-17.7297l0 -35.2624 -10.3676 0 0 -7.12441 10.3676 0 0.415955 -14.7211 8.46923 -0.813146 0 15.5342 13.101 0 0 7.12441 -13.101 0 0 36.7667c0,6.01415 3.12748,9.04156 9.37932,9.04156 2.09854,0 4.45354,-0.218924 7.08688,-0.631752z"/>
  <path class="fil1" d="M7107.46 1284.93l0 7.1807c-3.20567,0.415955 -5.99851,0.634879 -8.35351,0.634879 -11.3184,0 -16.9979,-5.9172 -16.9979,-17.7297l0 -35.2624 -10.3676 0 0 -7.12441 10.3676 0 0.415955 -14.7211 8.46923 -0.813146 0 15.5342 13.101 0 0 7.12441 -13.101 0 0 36.7667c0,6.01415 3.12748,9.04156 9.37932,9.04156 2.09854,0 4.45354,-0.218924 7.08688,-0.631752z"/>
  <path class="fil1" d="M7109.56 1275.98l8.68815 -1.78267c1.93904,7.38086 8.03451,11.0619 18.3239,11.0619 3.778,0 6.98367,-0.850676 9.61701,-2.55203 2.63021,-1.70135 3.9375,-4.097 3.9375,-7.18383 0,-4.59115 -3.34328,-7.51847 -10.033,-8.74445l-12.3473 -2.33623c-4.82884,-0.910098 -8.66626,-2.73029 -11.5373,-5.44182 -2.84914,-2.71153 -4.27214,-6.27373 -4.27214,-10.7241 0,-4.90702 1.93904,-9.02279 5.85465,-12.3285 3.89997,-3.30575 9.14476,-4.94768 15.7531,-4.94768 12.7226,0 20.5601,4.96644 23.5468,14.8993l-8.35038 1.80143c-2.39565,-6.11423 -7.32144,-9.1604 -14.7805,-9.1604 -3.72171,0 -6.74911,0.750596 -9.12287,2.29557 -2.39565,1.52308 -3.58097,3.65916 -3.58097,6.38945 0,4.33469 3.04617,7.06499 9.10098,8.17212l11.4184 2.03912c11.9532,2.15796 17.9267,7.93443 17.9267,17.3356 0,5.36051 -2.23615,9.71397 -6.6678,13.0197 -4.45354,3.30575 -10.3676,4.94768 -17.7485,4.94768 -13.8735,0 -22.4397,-5.57943 -25.7267,-16.7602z"/>
  <path class="fil1" d="M7199.06 1284.93l0 7.1807c-3.20567,0.415955 -5.99851,0.634879 -8.35351,0.634879 -11.3184,0 -16.9979,-5.9172 -16.9979,-17.7297l0 -35.2624 -10.3676 0 0 -7.12441 10.3676 0 0.415955 -14.7211 8.46923 -0.813146 0 15.5342 13.101 0 0 7.12441 -13.101 0 0 36.7667c0,6.01415 3.12748,9.04156 9.37932,9.04156 2.09854,0 4.45354,-0.218924 7.08688,-0.631752z"/>
  <path class="fil1" d="M7245.66 1273.72l8.46923 1.74201c-1.54498,4.98834 -4.57238,9.12287 -9.04468,12.388 -4.49107,3.26509 -9.75462,4.88826 -15.8282,4.88826 -7.99698,0 -14.4677,-2.81161 -19.4123,-8.4317 -4.94768,-5.61696 -7.42152,-12.9978 -7.42152,-22.1207 0,-9.3199 2.55203,-16.8415 7.69674,-22.5804 5.14471,-5.73581 11.5967,-8.60684 19.3716,-8.60684 7.64044,0 13.7953,2.65211 18.4647,7.93443 4.65057,5.30421 7.04309,13.2199 7.16194,23.7876l-42.5651 0c0,8.84452 1.86085,14.8211 5.56067,17.908 3.72171,3.08683 7.64044,4.62868 11.775,4.62868 7.45905,0 12.7226,-3.83742 15.7719,-11.5373zm-0.516035 -17.7891c-0.0781871,-3.28386 -0.631752,-6.21118 -1.62316,-8.76634 -1.00705,-2.55203 -2.7084,-4.70686 -5.10405,-6.50829 -2.39565,-1.80143 -5.28232,-2.69276 -8.64749,-2.69276 -4.51296,0 -8.35038,1.62316 -11.4966,4.86949 -3.14625,3.2432 -4.92579,7.59666 -5.30421,13.0979l32.1756 0z"/>
  <path class="fil1" d="M7277.9 1291.18l-9.10411 0 0 -79.1316 9.10411 0 0 79.1316z"/>
  <path class="fil1" d="M7305.2 1291.18l-9.10411 0 0 -79.1316 9.10411 0 0 79.1316z"/>
  <path class="fil1" d="M7362.07 1273.72l8.46923 1.74201c-1.54498,4.98834 -4.57238,9.12287 -9.04468,12.388 -4.49107,3.26509 -9.75462,4.88826 -15.8282,4.88826 -7.99698,0 -14.4677,-2.81161 -19.4123,-8.4317 -4.94768,-5.61696 -7.42152,-12.9978 -7.42152,-22.1207 0,-9.3199 2.55203,-16.8415 7.69674,-22.5804 5.14471,-5.73581 11.5967,-8.60684 19.3716,-8.60684 7.64044,0 13.7953,2.65211 18.4647,7.93443 4.65057,5.30421 7.04309,13.2199 7.16194,23.7876l-42.5651 0c0,8.84452 1.86085,14.8211 5.56067,17.908 3.72171,3.08683 7.64044,4.62868 11.775,4.62868 7.45905,0 12.7226,-3.83742 15.7719,-11.5373zm-0.516035 -17.7891c-0.0781871,-3.28386 -0.631752,-6.21118 -1.62316,-8.76634 -1.00705,-2.55203 -2.7084,-4.70686 -5.10405,-6.50829 -2.39565,-1.80143 -5.28232,-2.69276 -8.64749,-2.69276 -4.51296,0 -8.35038,1.62316 -11.4966,4.86949 -3.14625,3.2432 -4.92579,7.59666 -5.30421,13.0979l32.1756 0z"/>
  <path class="fil1" d="M6252.79 1660.51l8.23154 0 0 51.6473c0,10.3676 -2.53326,17.7891 -7.61855,22.299 -5.08529,4.49419 -11.7343,6.74911 -19.9659,6.74911 -9.16353,0 -15.9502,-2.31434 -20.363,-6.94614 -4.39412,-4.65057 -6.60837,-12.0127 -6.60837,-22.1019l0 -51.6473 9.91412 0 0 51.6473c0,6.15176 0.731831,10.4865 2.15484,13.001 1.42613,2.51137 3.58097,4.35033 6.49266,5.55754 2.88667,1.18844 5.93596,1.80143 9.10098,1.80143 6.11423,0 10.746,-1.60127 13.911,-4.82884 3.16501,-3.20567 4.75065,-8.36915 4.75065,-15.5311l0 -51.6473z"/>
  <path class="fil1" d="M6270.96 1718.61l8.92584 -2.03599c3.58097,10.7836 11.3778,16.166 23.3498,16.166 6.27373,0 10.9806,-1.32605 14.1487,-3.95939 3.16501,-2.64898 4.74752,-6.19242 4.74752,-10.646 0,-3.36205 -1.20721,-6.07357 -3.62163,-8.11269 -2.41129,-2.05788 -5.20413,-3.46212 -8.36915,-4.23461l-15.8313 -3.9375c-4.09388,-1.04771 -7.44028,-2.31434 -10.0517,-3.79989 -2.61145,-1.48243 -4.82884,-3.778 -6.64903,-6.86483 -1.80143,-3.08683 -2.71153,-6.63027 -2.71153,-10.6084 0,-6.60837 2.49573,-11.8719 7.48094,-15.8094 4.98834,-3.91874 11.3778,-5.87654 19.1746,-5.87654 14.3864,0 23.8439,6.50829 28.3569,19.5311l-8.98526 2.67087c-1.04771,-4.6318 -3.50278,-8.15335 -7.35897,-10.5271 -3.85932,-2.37376 -7.97508,-3.5622 -12.3473,-3.5622 -4.33469,0 -8.19401,1.14779 -11.5779,3.4246 -3.38394,2.27368 -5.06652,5.50124 -5.06652,9.67644 0,5.83589 4.29404,9.77339 12.8633,11.8313l14.7805 3.54344c13.5358,3.2432 20.3036,10.5271 20.3036,21.8455 0,6.84606 -2.55203,12.5256 -7.61855,17.0761 -5.08529,4.53172 -12.2472,6.80853 -21.4889,6.80853 -16.3849,0 -27.2091,-7.54036 -32.4539,-22.5992z"/>
  <path class="fil1" d="M6347.24 1739.64l0 -79.1316 31.303 0c7.87813,0 13.7359,1.93904 17.5327,5.79836 3.82179,3.85619 5.72017,8.35038 5.72017,13.4544 0,8.96337 -4.69123,14.9212 -14.0299,17.8486 5.56067,1.42613 9.6952,3.97816 12.4067,7.65921 2.71153,3.65916 4.05635,7.81558 4.05635,12.4662 0,6.21431 -2.09854,11.4184 -6.2925,15.6124 -4.19396,4.19396 -10.6647,6.2925 -19.3935,6.2925l-31.303 0zm9.55759 -45.2172l17.2356 0c7.14317,0 11.9126,-1.36358 14.3051,-4.09388 2.39565,-2.71153 3.60286,-5.9172 3.60286,-9.59825 0,-3.62163 -1.2854,-6.57084 -3.85932,-8.807 -2.57079,-2.23615 -6.41134,-3.36205 -11.5154,-3.36205l-19.7688 0 0 25.8612zm0 36.529l21.2325 0c5.16348,0 9.18229,-1.26663 11.9908,-3.778 2.83037,-2.5145 4.23461,-5.77959 4.23461,-9.79528 0,-2.83037 -0.631752,-5.44182 -1.91715,-7.85624 -1.26663,-2.41442 -3.06806,-4.27527 -5.3824,-5.60132 -2.31747,-1.30416 -5.77959,-1.95781 -10.3895,-1.95781l-19.7688 0 0 28.9886z"/>
  <path class="fil1 str0" d="M6718.39 1137.26l-191.965 132.752 -8.80074 -12.7101 -36.6635 53.8177 63.294 -15.309 -8.77572 -12.7132 191.968 -132.759 -9.05719 -13.0791zm-95.9731 66.3902m-100.392 59.9977m-22.7306 20.5601m13.3231 19.2716m27.2529 -14.0205m91.5884 -72.7484m91.457 -72.9142"/>
  <rect class="fil0 str0" x="7566.29" y="1245.57" width="1155.72" height="693.435"/>
  <path class="fil1" d="M7794.26 1101.02l0 54.9499c0,9.59825 -2.15796,16.2848 -6.49266,20.0659 -4.33157,3.778 -10.0705,5.67951 -17.2137,5.67951 -3.81866,0 -7.67797,-0.516035 -11.5373,-1.56374l0 -8.11269c3.778,0.772489 7.22136,1.14779 10.3082,1.14779 4.41288,0 7.65921,-0.653644 9.75775,-1.96093 2.07665,-1.32293 3.48089,-3.0274 4.19396,-5.10405 0.713066,-2.07665 1.0696,-5.46059 1.0696,-10.1518l0 -54.9499 9.91412 0z"/>
  <path class="fil1" d="M7858.31 1180.15l-9.04468 0c-0.337768,-1.86085 -0.691174,-5.36364 -1.02894,-10.5459 -4.03758,8.07204 -10.8649,12.1096 -20.5413,12.1096 -6.56772,0 -11.5936,-1.74201 -15.1183,-5.22603 -3.52155,-3.46212 -5.28232,-7.63732 -5.28232,-12.5037 0,-5.9172 2.5145,-10.7867 7.54036,-14.5835 5.02587,-3.82179 13.5733,-5.72017 25.6235,-5.72017 1.62316,0 4.21585,0.0781871 7.77805,0.237689 0,-4.6318 -0.356533,-7.99385 -1.08836,-10.0517 -0.713066,-2.07978 -2.21739,-3.72171 -4.55049,-4.96644 -2.31747,-1.2291 -5.36364,-1.86085 -9.14164,-1.86085 -9.24172,0 -14.6241,3.52155 -16.1284,10.5678l-8.4098 -1.46679c2.05788,-10.7836 10.6647,-16.166 25.8643,-16.166 8.07204,0 13.811,1.78267 17.1949,5.36364 3.36205,3.58097 5.06652,9.77339 5.06652,18.5804l0 24.8729c0,4.13766 0.412828,7.91566 1.26663,11.359zm-10.0736 -29.2858c-3.71858,-0.218924 -6.53019,-0.337768 -8.46923,-0.337768 -7.18383,0 -12.782,1.16968 -16.7602,3.54344 -3.97816,2.355 -5.97662,5.79836 -5.97662,10.3082 0,2.87103 1.08836,5.30421 3.22444,7.30268 2.1392,2.01723 5.24479,3.0274 9.30114,3.0274 5.50124,0 10.0142,-1.99846 13.5358,-5.97662 3.54344,-3.97816 5.30421,-8.66626 5.30421,-14.0299 0,-1.08836 -0.0594222,-2.355 -0.159502,-3.83742z"/>
  <path class="fil1" d="M7915.42 1121.6l-20.2442 58.5528 -9.43875 0 -20.9354 -58.5528 10.0924 0 16.2848 47.5909 16.1284 -47.5909 8.11269 0z"/>
  <path class="fil1" d="M7970.65 1180.15l-9.04468 0c-0.337768,-1.86085 -0.691174,-5.36364 -1.02894,-10.5459 -4.03758,8.07204 -10.8649,12.1096 -20.5413,12.1096 -6.56772,0 -11.5936,-1.74201 -15.1183,-5.22603 -3.52155,-3.46212 -5.28232,-7.63732 -5.28232,-12.5037 0,-5.9172 2.5145,-10.7867 7.54036,-14.5835 5.02587,-3.82179 13.5733,-5.72017 25.6235,-5.72017 1.62316,0 4.21585,0.0781871 7.77805,0.237689 0,-4.6318 -0.356533,-7.99385 -1.08836,-10.0517 -0.713066,-2.07978 -2.21739,-3.72171 -4.55049,-4.96644 -2.31747,-1.2291 -5.36364,-1.86085 -9.14164,-1.86085 -9.24172,0 -14.6241,3.52155 -16.1284,10.5678l-8.4098 -1.46679c2.05788,-10.7836 10.6647,-16.166 25.8643,-16.166 8.07204,0 13.811,1.78267 17.1949,5.36364 3.36205,3.58097 5.06652,9.77339 5.06652,18.5804l0 24.8729c0,4.13766 0.412828,7.91566 1.26663,11.359zm-10.0736 -29.2858c-3.71858,-0.218924 -6.53019,-0.337768 -8.46923,-0.337768 -7.18383,0 -12.782,1.16968 -16.7602,3.54344 -3.97816,2.355 -5.97662,5.79836 -5.97662,10.3082 0,2.87103 1.08836,5.30421 3.22444,7.30268 2.1392,2.01723 5.24479,3.0274 9.30114,3.0274 5.50124,0 10.0142,-1.99846 13.5358,-5.97662 3.54344,-3.97816 5.30421,-8.66626 5.30421,-14.0299 0,-1.08836 -0.0594222,-2.355 -0.159502,-3.83742z"/>
  <path class="fil1" d="M8009.39 1159.12l8.92584 -2.03599c3.58097,10.7836 11.3778,16.166 23.3498,16.166 6.27373,0 10.9806,-1.32605 14.1487,-3.95939 3.16501,-2.64898 4.74752,-6.19242 4.74752,-10.646 0,-3.36205 -1.20721,-6.07357 -3.62163,-8.11269 -2.41129,-2.05788 -5.20413,-3.46212 -8.36915,-4.23461l-15.8313 -3.9375c-4.09388,-1.04771 -7.44028,-2.31434 -10.0517,-3.79989 -2.61145,-1.48243 -4.82884,-3.778 -6.64903,-6.86483 -1.80143,-3.08683 -2.71153,-6.63027 -2.71153,-10.6084 0,-6.60837 2.49573,-11.8719 7.48094,-15.8094 4.98834,-3.91874 11.3778,-5.87654 19.1746,-5.87654 14.3864,0 23.8439,6.50829 28.3569,19.5311l-8.98526 2.67087c-1.04771,-4.6318 -3.50278,-8.15335 -7.35897,-10.5271 -3.85932,-2.37376 -7.97508,-3.5622 -12.3473,-3.5622 -4.33469,0 -8.19401,1.14779 -11.5779,3.4246 -3.38394,2.27368 -5.06652,5.50124 -5.06652,9.67644 0,5.83589 4.29404,9.77339 12.8633,11.8313l14.7805 3.54344c13.5358,3.2432 20.3036,10.5271 20.3036,21.8455 0,6.84606 -2.55203,12.5256 -7.61855,17.0761 -5.08529,4.53172 -12.2472,6.80853 -21.4889,6.80853 -16.3849,0 -27.2091,-7.54036 -32.4539,-22.5992z"/>
  <path class="fil1" d="M8152.34 1121.6l-16.8603 58.5528 -7.35897 0 -13.1198 -43.4752 -11.9908 43.4752 -7.48094 0 -17.5733 -58.5528 9.16353 0 12.7038 43.6534 12.169 -43.6534 6.6678 0 13.1605 43.8317 13.1573 -43.8317 7.3621 0z"/>
  <path class="fil1" d="M8173.1 1101.02l0 10.0924 -9.81404 0 0 -10.0924 9.81404 0zm-0.297111 20.5788l0 58.5528 -9.10411 0 0 -58.5528 9.10411 0z"/>
  <path class="fil1" d="M8237.1 1180.15l-8.52865 0 0 -37.6174c0,-5.42306 -1.16655,-9.21982 -3.52155,-11.4372 -2.37376,-2.19549 -5.2229,-3.30575 -8.58807,-3.30575 -4.62868,0 -8.52865,1.86085 -11.6749,5.58256 -3.14625,3.69981 -4.72876,8.58807 -4.72876,14.6616l0 32.1161 -9.10411 0 0 -58.5528 8.47235 0 0 10.7836c4.74752,-8.2722 10.9024,-12.4067 18.4803,-12.4067 4.37222,0 8.09393,1.12902 11.162,3.38394 3.08683,2.27681 5.18224,4.81007 6.33003,7.63732 1.12902,2.81161 1.70135,7.91566 1.70135,15.2965l0 33.8581z"/>
  <path class="fil1" d="M8303.13 1112.44l0 7.24325c-4.17519,0 -6.96491,0.494142 -8.36915,1.46366 -1.42613,0.950755 -2.355,2.69276 -2.81161,5.20413 3.74047,4.33469 5.62009,9.04468 5.62009,14.1487 0,5.34487 -2.03599,9.91412 -6.11423,13.7328 -4.07511,3.84055 -9.55759,5.73893 -16.4443,5.73893 -1.54185,0 -2.8679,-0.096952 -3.99692,-0.334641 -2.13607,-0.43472 -3.46212,-0.634879 -3.99692,-0.634879 -1.04771,0 -2.29557,0.516035 -3.778,1.52308 -1.46679,1.02894 -2.19862,2.355 -2.19862,3.97816 0,2.31434 1.0696,3.81866 3.18691,4.51296 2.13607,0.713066 7.12441,1.14779 15.0182,1.34482 6.68969,0.197031 11.6155,0.653644 14.8024,1.36671 3.20567,0.709939 5.89843,2.29557 8.09393,4.74752 2.19549,2.45507 3.30575,5.46059 3.30575,9.02279 0,11.162 -9.81717,16.7414 -29.4453,16.7414 -9.3199,0 -16.1097,-1.40424 -20.3818,-4.19396 -4.27527,-2.81161 -6.41134,-6.55208 -6.41134,-11.2214 0,-5.67951 2.98675,-9.57636 8.9446,-11.7124 -3.84055,-2.5145 -5.76083,-5.66075 -5.76083,-9.43875 0,-4.53172 2.71153,-7.99698 8.13459,-10.3895 -5.06652,-4.097 -7.59979,-9.26048 -7.59979,-15.4748 0,-5.79836 2.15796,-10.5459 6.49266,-14.2676 4.33157,-3.69981 9.59512,-5.56067 15.8282,-5.56067 4.39412,0 8.4098,0.831911 11.9939,2.4926 0.591094,-3.81866 1.91715,-6.47076 4.03445,-7.93443 2.09854,-1.48243 5.30421,-2.21739 9.59825,-2.21739 0.415955,0 1.16655,0.0406573 2.25492,0.118844zm-27.8221 40.5854c3.85932,0 7.00556,-1.18532 9.43875,-3.55908 2.43631,-2.37689 3.66228,-5.46371 3.66228,-9.26361 0,-3.85619 -1.26663,-7.02433 -3.79989,-9.47628 -2.53326,-2.45507 -5.60132,-3.68105 -9.18229,-3.68105 -3.44336,0 -6.50829,1.16655 -9.1604,3.46212 -2.67087,2.29557 -3.99692,5.56067 -3.99692,9.81404 0,3.79989 1.18532,6.84919 3.58097,9.20419 2.39253,2.3331 5.53877,3.49965 9.45751,3.49965zm-10.9024 24.7572c-4.25338,1.85773 -6.37069,4.53172 -6.37069,8.05327 0,2.98675 1.73888,5.28232 5.24166,6.92425 3.50278,1.64506 7.95632,2.47384 13.3575,2.47384 5.02587,0 9.61701,-0.709939 13.7922,-2.11731 4.17519,-1.40424 6.27373,-3.79989 6.27373,-7.16194 0,-1.8202 -0.612987,-3.30575 -1.86085,-4.4723 -1.22597,-1.14779 -2.92733,-1.87962 -5.06652,-2.19549 -2.15484,-0.319003 -5.89531,-0.5348 -11.2183,-0.694301 -6.37069,-0.156374 -11.1026,-0.43472 -14.1487,-0.810018z"/>
  <path class="fil1" d="M8402.72 1140.26l0 40.9419 -6.09547 0 -2.71153 -9.91412c-4.88513,6.94614 -12.1284,10.4302 -21.7454,10.4302 -10.4302,0 -18.5616,-3.91874 -24.36,-11.775 -5.77646,-7.83435 -8.68815,-17.3732 -8.68815,-28.5727 0,-11.972 3.06806,-21.9643 9.22295,-29.9801 6.133,-7.99385 14.4834,-11.9908 25.0324,-11.9908 14.5835,0 24.0816,7.65608 28.5352,22.9526l-9.40122 2.25804c-1.34482,-5.87967 -3.87808,-10.133 -7.59666,-12.8039 -3.70294,-2.67087 -7.75929,-3.99692 -12.1722,-3.99692 -7.79682,0 -13.5545,3.14625 -17.2731,9.43875 -3.69981,6.31126 -5.56067,14.2082 -5.56067,23.7251 0,10.23 2.07665,18.2457 6.23308,24.0222 4.15643,5.77959 9.79528,8.66939 16.9572,8.66939 5.56067,0 10.2112,-1.84209 13.9329,-5.5419 3.73734,-3.68105 5.5982,-8.7851 5.5982,-15.2746 0,-1.18844 -0.0406573,-2.63334 -0.118844,-4.29404l-19.5906 0 0 -8.29409 29.8018 0z"/>
  <path class="fil1" d="M8466.03 1101.02l8.23154 0 0 51.6473c0,10.3676 -2.53326,17.7891 -7.61855,22.299 -5.08529,4.49419 -11.7343,6.74911 -19.9659,6.74911 -9.16353,0 -15.9502,-2.31434 -20.363,-6.94614 -4.39412,-4.65057 -6.60837,-12.0127 -6.60837,-22.1019l0 -51.6473 9.91412 0 0 51.6473c0,6.15176 0.731831,10.4865 2.15484,13.001 1.42613,2.51137 3.58097,4.35033 6.49266,5.55754 2.88667,1.18844 5.93596,1.80143 9.10098,1.80143 6.11423,0 10.746,-1.60127 13.911,-4.82884 3.16501,-3.20567 4.75065,-8.36915 4.75065,-15.5311l0 -51.6473z"/>
  <path class="fil1" d="M8502.79 1180.15l-9.91412 0 0 -79.1316 9.91412 0 0 79.1316z"/>
  <path class="fil1" d="M7498.49 896.343l-18.6398 0 0 -148.778 52.7544 0c16.4818,0 28.6478,4.50045 36.4977,13.4669 7.84998,8.9665 11.7937,19.1965 11.7937,30.6556 0,12.7977 -4.2784,23.3654 -12.7977,31.7346 -8.5568,8.37227 -19.7188,12.5381 -33.5204,12.5381l-36.088 0 0 60.3823zm0 -75.8603l34.2272 0c8.77885,0 15.8845,-2.6396 21.2419,-7.88751 5.39491,-5.28232 8.07516,-12.2378 8.07516,-20.9072 0,-7.40275 -2.38314,-13.9892 -7.1807,-19.8282 -4.80069,-5.80461 -11.7562,-8.70692 -20.8353,-8.70692l-35.5282 0 0 57.3299z"/>
  <path class="fil1" d="M7693.78 846.303l17.0417 3.83117c-8.15022,32.7792 -26.5273,49.1484 -55.1751,49.1484 -18.8243,0 -33.5954,-7.5904 -44.3102,-22.7681 -10.7148,-15.1808 -16.0721,-33.8581 -16.0721,-56.032 0,-22.8807 5.57943,-41.2578 16.779,-55.1344 11.1995,-13.9142 26.1927,-20.8353 45.017,-20.8353 27.9034,0 45.8364,15.9596 53.7615,47.8443l-17.5608 3.49653c-6.39883,-23.6969 -18.4928,-35.5282 -36.3132,-35.5282 -13.1323,0 -23.3248,5.50437 -30.5805,16.5194 -7.21823,10.9743 -10.8273,26.4523 -10.8273,46.3556 0,18.2301 3.72171,32.8511 11.1245,43.863 7.40275,11.0119 17.2262,16.5194 29.4296,16.5194 18.9744,0 31.5125,-12.4255 37.6862,-37.2796z"/>
  <path class="fil1" d="M4665.47 1595.15l-15.7813 0 0 -125.95 77.1331 0 0 13.8266 -61.3519 0 0 39.7785 50.831 0 0 12.7257 -50.831 0 0 59.6192z"/>
  <path class="fil1" d="M4802.13 1567.37l13.4795 2.77095c-2.45507,7.93755 -7.27453,14.5209 -14.3927,19.7157 -7.14943,5.19788 -15.528,7.78118 -25.195,7.78118 -12.7257,0 -23.0245,-4.4723 -30.8964,-13.4169 -7.875,-8.9446 -11.8125,-20.6946 -11.8125,-35.2123 0,-14.8337 4.0626,-26.8025 12.2535,-35.9379 8.18775,-9.13225 18.4553,-13.6984 30.8339,-13.6984 12.1565,0 21.9518,4.21898 29.3827,12.6288 7.40275,8.44108 11.212,21.0386 11.4028,37.8582l-67.7476 0c0,14.0768 2.96173,23.5875 8.85078,28.5008 5.92033,4.91328 12.1565,7.37148 18.7399,7.37148 11.8751,0 20.2505,-6.1111 25.1012,-18.3615zm-0.819401 -28.3162c-0.125099,-5.22603 -1.00705,-9.8891 -2.58017,-13.9517 -1.60753,-4.0626 -4.31593,-7.49658 -8.12833,-10.3614 -3.80928,-2.86478 -8.40668,-4.28465 -13.7609,-4.28465 -7.1807,0 -13.2918,2.5833 -18.2989,7.74991 -5.01023,5.16348 -7.84373,12.094 -8.44108,20.8478l51.2094 0z"/>
  <path class="fil1" d="M4853.43 1595.15l-14.4896 0 0 -125.95 14.4896 0 0 125.95z"/>
  <path class="fil1" d="M4955.19 1469.2l0 125.95 -13.1636 0 0 -15.9689c-6.5208,12.316 -16.3474,18.4584 -29.4484,18.4584 -10.8962,0 -19.8408,-4.56925 -26.8651,-13.7015 -6.99305,-9.13538 -10.5209,-20.6914 -10.5209,-34.6463 0,-14.2676 3.49653,-26.1708 10.4583,-35.6502 6.92738,-9.51381 16.1566,-14.2676 27.6532,-14.2676 11.212,0 20.3443,5.10093 27.4312,15.3059l0 -45.4799 14.4552 0zm-14.4552 68.7546c0,-8.18775 -2.52075,-14.7398 -7.49658,-19.6531 -4.97583,-4.94455 -10.8023,-7.40275 -17.417,-7.40275 -7.21198,0 -13.1323,3.21505 -17.7641,9.60763 -4.65995,6.39258 -6.98993,15.3685 -6.98993,26.9276 0,12.5037 2.14233,22.0144 6.42385,28.5352 4.28465,6.5208 10.1424,9.76401 17.5765,9.76401 6.771,0 12.7226,-2.8335 17.8892,-8.47235 5.19475,-5.67013 7.77805,-12.316 7.77805,-19.9377l0 -19.3685z"/>
  <path class="fil1" d="M4991.19 1595.15l-7.02433 0 0 -125.95 14.4896 0 0 48.2508c6.6459,-12.0627 15.8094,-18.0769 27.4937,-18.0769 10.7085,0 19.6531,4.21898 26.8995,12.6288 7.21198,8.44108 10.8336,20.6914 10.8336,36.7229 0,13.8579 -3.55908,25.4483 -10.646,34.8339 -7.11815,9.38558 -16.3474,14.0799 -27.747,14.0799 -12.6601,0 -22.3615,-5.95473 -29.1325,-17.8892l-5.1666 15.3997zm7.4653 -36.5353c0.659899,9.54508 3.62163,16.4412 8.81951,20.7571 5.19475,4.3128 10.6741,6.45513 16.4693,6.45513 7.37148,0 13.3231,-3.18065 17.8579,-9.6045 4.5067,-6.3957 6.77413,-15.1495 6.77413,-26.299 0,-11.9689 -2.1736,-21.417 -6.55208,-28.285 -4.37848,-6.83355 -10.4239,-10.2675 -18.1738,-10.2675 -6.10798,0 -11.5905,2.42693 -16.4725,7.34021 -4.882,4.882 -7.80933,11.212 -8.72255,18.9588l0 20.9448z"/>
  <path class="fil1" d="M5159.03 1595.15l-13.0072 0 0 -17.7954c-6.6459,13.5107 -16.5381,20.2849 -29.7017,20.2849 -9.54195,0 -17.0385,-3.14938 -22.4866,-9.41998 -5.4512,-6.26748 -8.15961,-15.1777 -8.15961,-26.7369l0 -59.5285 14.4896 0 0 59.5285c0,9.22608 1.92028,15.5561 5.76395,19.0526 3.84055,3.46525 8.06265,5.19788 12.6913,5.19788 4.66308,0 8.91333,-1.32293 12.6945,-3.96878 3.778,-2.64585 6.92738,-6.39258 9.44813,-11.3059 2.51762,-4.882 3.778,-10.205 3.778,-16.0002l0 -52.5042 14.4896 0 0 93.1959z"/>
  <path class="fil1" d="M5175.47 1570.96l13.8266 -2.8335c3.08683,11.7468 12.7883,17.6046 29.1669,17.6046 6.01415,0 11.1151,-1.3542 15.3059,-4.0626 4.1877,-2.7084 6.26748,-6.5208 6.26748,-11.4341 0,-7.3058 -5.32298,-11.9689 -15.9689,-13.9204l-19.6531 -3.71545c-7.68423,-1.44803 -13.7953,-4.3472 -18.3615,-8.66313 -4.53485,-4.3128 -6.80228,-9.98293 -6.80228,-17.0698 0,-7.80933 3.08683,-14.3614 9.32303,-19.6218 6.20493,-5.26043 14.5491,-7.87188 25.0699,-7.87188 20.2505,0 32.7229,7.90315 37.4798,23.7157l-13.2918 2.86478c-3.8124,-9.73273 -11.653,-14.5835 -23.5281,-14.5835 -5.92033,0 -10.7398,1.19783 -14.5178,3.65603 -3.8124,2.4238 -5.7014,5.8265 -5.7014,10.1706 0,6.89923 4.85073,11.2464 14.4865,13.0103l18.1738 3.2432c19.0245,3.43085 28.5352,12.6288 28.5352,27.5907 0,8.5349 -3.55908,15.4623 -10.6147,20.7227 -7.08688,5.26043 -16.5037,7.875 -28.2506,7.875 -22.0769,0 -35.7159,-8.88205 -40.945,-26.6774z"/>
 </g>
</svg>
