<?xml version="1.0" encoding="iso-8859-1"?>
<!DOCTYPE svg PUBLIC "-//W3C//DTD SVG 1.0//EN" "http://www.w3.org/TR/2001/REC-SVG-20010904/DTD/svg10.dtd">
<!-- Creator: CorelDRAW -->
<svg xmlns="http://www.w3.org/2000/svg" xmlns:odm="http://product.corel.com/CGS/11/cddns/" xmlns:corel-charset="http://product.corel.com/CGS/11/cddns/" xml:space="preserve" width="11.6929in" height="8.26772in" style="shape-rendering:geometricPrecision; text-rendering:geometricPrecision; image-rendering:optimizeQuality; fill-rule:evenodd"
     viewBox="0 0 11692.9 8267.72">
 <defs>
  <style type="text/css">
   <![CDATA[
    .str0 {stroke:#1F1A17;stroke-width:3}
    .str1 {stroke:#F8C300;stroke-width:27.7795}
    .fil0 {fill:none}
    .fil1 {fill:#1F1A17}
    .fil4 {fill:#F8C300}
    .fil3 {fill:#0073B4}
    .fil2 {fill:#E05121}
   ]]>
  </style>
 </defs>
 <g id="Ebene_x0020_1">
  <circle class="fil0 str0" cx="5846.46" cy="4565.03" r="3526.74"/>
  <circle class="fil0 str0" cx="5846.29" cy="4564.87" r="1068.86"/>
  <circle class="fil0 str0" cx="5846.45" cy="4565.03" r="1802.78"/>
  <circle class="fil0 str0" cx="5846.45" cy="4565.03" r="2669.69"/>
  <path class="fil1" d="M4736.84 189.343l0 230.276c0,40.2165 -9.03937,68.2441 -27.2008,84.0827 -18.1575,15.8386 -42.2047,23.7992 -72.1417,23.7992 -16.0039,0 -32.1732,-2.15748 -48.3425,-6.55118l0 -33.9961c15.8386,3.23228 30.2677,4.80709 43.2008,4.80709 18.4921,0 32.0906,-2.73622 40.8819,-8.20866 8.70866,-5.55512 14.5945,-12.689 17.5787,-21.3937 2.98425,-8.70866 4.48031,-22.8858 4.48031,-42.5394l0 -230.276 41.5433 0z"/>
  <path class="fil1" d="M5005.26 520.949l-37.8976 0c-1.40945,-7.79528 -2.90157,-22.4724 -4.31102,-44.1969 -16.9173,33.8307 -45.5236,50.748 -86.0748,50.748 -27.5276,0 -48.5906,-7.29921 -63.3504,-21.8937 -14.7598,-14.5079 -22.1417,-32.0039 -22.1417,-52.4055 0,-24.7913 10.5315,-45.1929 31.5945,-61.1142 21.063,-16.0039 56.8858,-23.9646 107.386,-23.9646 6.79921,0 17.6614,0.334646 32.5866,0.996063 0,-19.4016 -1.49213,-33.5 -4.55906,-42.122 -2.98819,-8.70866 -9.2874,-15.5906 -19.0748,-20.815 -9.70079,-5.14173 -22.4724,-7.79528 -38.3071,-7.79528 -38.7244,0 -61.2795,14.7598 -67.5827,44.2795l-35.2441 -6.13386c8.62598,-45.1929 44.6969,-67.748 108.382,-67.748 33.8307,0 57.878,7.46457 72.0591,22.4724 14.0945,15.0079 21.2283,40.9646 21.2283,77.8622l0 104.232c0,17.3307 1.74016,33.1693 5.30709,47.5984zm-42.2087 -122.724c-15.5906,-0.913386 -27.3661,-1.40945 -35.4921,-1.40945 -30.0984,0 -53.5669,4.8937 -70.2323,14.8425 -16.6693,9.86614 -25.0433,24.2953 -25.0433,43.2008 0,12.0236 4.55906,22.2244 13.5157,30.5984 8.95669,8.46063 21.9764,12.689 38.9724,12.689 23.0551,0 41.9606,-8.37402 56.7205,-25.0433 14.8425,-16.6654 22.2205,-36.3189 22.2205,-58.7913 0,-4.55906 -0.248031,-9.86614 -0.661417,-16.0866z"/>
  <path class="fil1" d="M5244.56 275.583l-84.8268 245.366 -39.5551 0 -87.7323 -245.366 42.2913 0 68.2441 199.429 67.5827 -199.429 33.9961 0z"/>
  <path class="fil1" d="M5476 520.949l-37.8976 0c-1.40945,-7.79528 -2.90157,-22.4724 -4.31102,-44.1969 -16.9173,33.8307 -45.5236,50.748 -86.0748,50.748 -27.5276,0 -48.5906,-7.29921 -63.3504,-21.8937 -14.7598,-14.5079 -22.1417,-32.0039 -22.1417,-52.4055 0,-24.7913 10.5315,-45.1929 31.5945,-61.1142 21.063,-16.0039 56.8858,-23.9646 107.386,-23.9646 6.79921,0 17.6614,0.334646 32.5866,0.996063 0,-19.4016 -1.49213,-33.5 -4.55906,-42.122 -2.98819,-8.70866 -9.2874,-15.5906 -19.0748,-20.815 -9.70079,-5.14173 -22.4724,-7.79528 -38.3071,-7.79528 -38.7244,0 -61.2795,14.7598 -67.5827,44.2795l-35.2441 -6.13386c8.62598,-45.1929 44.6969,-67.748 108.382,-67.748 33.8307,0 57.878,7.46457 72.0591,22.4724 14.0945,15.0079 21.2283,40.9646 21.2283,77.8622l0 104.232c0,17.3307 1.74016,33.1693 5.30709,47.5984zm-42.2087 -122.724c-15.5906,-0.913386 -27.3661,-1.40945 -35.4921,-1.40945 -30.0984,0 -53.5669,4.8937 -70.2323,14.8425 -16.6693,9.86614 -25.0433,24.2953 -25.0433,43.2008 0,12.0236 4.55906,22.2244 13.5157,30.5984 8.95669,8.46063 21.9764,12.689 38.9724,12.689 23.0551,0 41.9606,-8.37402 56.7205,-25.0433 14.8425,-16.6654 22.2205,-36.3189 22.2205,-58.7913 0,-4.55906 -0.248031,-9.86614 -0.661417,-16.0866z"/>
  <path class="fil1" d="M5625.92 381.724l0 29.685 -109.791 0 0 -29.685 109.791 0z"/>
  <path class="fil1" d="M5910.84 520.949l-42.4528 0 -33.5866 -96.937 -122.638 0 -29.689 96.937 -34.6614 0 107.551 -331.606 47.4291 0 108.047 331.606zm-84.7441 -128.031l-50.9961 -159.374 -51.4961 159.374 102.492 0z"/>
  <path class="fil1" d="M6135.81 520.949l-34.2441 0 0 -46.8504c-17.4961,35.5748 -43.5354,53.4016 -78.1969,53.4016 -25.126,0 -44.8622,-8.29134 -59.2047,-24.7953 -14.3465,-16.5 -21.4764,-39.9685 -21.4764,-70.3976l0 -156.724 38.1417 0 0 156.724c0,24.2953 5.05906,40.9606 15.1772,50.1654 10.1142,9.12205 21.2244,13.6811 33.4173,13.6811 12.2717,0 23.4646,-3.48031 33.4173,-10.4449 9.94882,-6.9685 18.2402,-16.8346 24.874,-29.7717 6.63386,-12.8504 9.95276,-26.8661 9.95276,-42.122l0 -138.232 38.1417 0 0 245.366z"/>
  <path class="fil1" d="M6313.93 275.583l0 29.8504 -58.378 0 0 215.516 -38.1417 0 0 -215.516 -41.7126 0 0 -29.8504 41.7126 0c0.661417,-39.3858 8.29134,-64.6772 22.7205,-76.0394 14.5079,-11.3583 32.2559,-17 53.0669,-17 10.2835,0 21.8937,1.16142 34.9961,3.40157l0 30.3504c-8.2126,-2.0748 -16.0866,-3.15354 -23.5512,-3.15354 -16.6693,0 -29.0236,3.73228 -37.0669,11.0315 -7.96063,7.37795 -12.0236,21.2244 -12.0236,41.4606l0 9.94882 58.378 0z"/>
  <path class="fil1" d="M6379.76 520.949l-18.4882 0 0 -331.606 38.1417 0 0 127.039c17.4961,-31.7598 41.626,-47.5984 72.3898,-47.5984 28.1969,0 51.7441,11.1102 70.8189,33.252 18.9882,22.2244 28.5236,54.4803 28.5236,96.685 0,36.4882 -9.37008,67.0039 -28.0276,91.7126 -18.7402,24.7126 -43.0354,37.0669 -73.0551,37.0669 -33.3346,0 -58.874,-15.6732 -76.7008,-47.0984l-13.6024 40.5472zm19.6535 -96.189c1.74016,25.126 9.53543,43.2835 23.2205,54.6457 13.6811,11.3583 28.1102,17 43.3661,17 19.4055,0 35.0748,-8.37795 47.0157,-25.2913 11.8583,-16.8346 17.8307,-39.8858 17.8307,-69.2402 0,-31.5118 -5.72441,-56.3898 -17.248,-74.4646 -11.5276,-17.9961 -27.4488,-27.0315 -47.8465,-27.0315 -16.0866,0 -30.5157,6.38189 -43.3701,19.3189 -12.8504,12.8543 -20.563,29.5197 -22.9685,49.9213l0 55.1417z"/>
  <path class="fil1" d="M6820.66 520.949l-37.8976 0c-1.40945,-7.79528 -2.90157,-22.4724 -4.31102,-44.1969 -16.9173,33.8307 -45.5236,50.748 -86.0748,50.748 -27.5276,0 -48.5906,-7.29921 -63.3504,-21.8937 -14.7598,-14.5079 -22.1417,-32.0039 -22.1417,-52.4055 0,-24.7913 10.5315,-45.1929 31.5945,-61.1142 21.063,-16.0039 56.8858,-23.9646 107.386,-23.9646 6.79921,0 17.6614,0.334646 32.5866,0.996063 0,-19.4016 -1.49213,-33.5 -4.55906,-42.122 -2.98819,-8.70866 -9.2874,-15.5906 -19.0748,-20.815 -9.70079,-5.14173 -22.4724,-7.79528 -38.3071,-7.79528 -38.7244,0 -61.2795,14.7598 -67.5827,44.2795l-35.2441 -6.13386c8.62598,-45.1929 44.6969,-67.748 108.382,-67.748 33.8307,0 57.878,7.46457 72.0591,22.4724 14.0945,15.0079 21.2283,40.9646 21.2283,77.8622l0 104.232c0,17.3307 1.74016,33.1693 5.30709,47.5984zm-42.2087 -122.724c-15.5906,-0.913386 -27.3661,-1.40945 -35.4921,-1.40945 -30.0984,0 -53.5669,4.8937 -70.2323,14.8425 -16.6693,9.86614 -25.0433,24.2953 -25.0433,43.2008 0,12.0236 4.55906,22.2244 13.5157,30.5984 8.95669,8.46063 21.9764,12.689 38.9724,12.689 23.0551,0 41.9606,-8.37402 56.7205,-25.0433 14.8425,-16.6654 22.2205,-36.3189 22.2205,-58.7913 0,-4.55906 -0.248031,-9.86614 -0.661417,-16.0866z"/>
  <path class="fil1" d="M7084.76 520.949l-34.2441 0 0 -46.8504c-17.4961,35.5748 -43.5354,53.4016 -78.1969,53.4016 -25.126,0 -44.8622,-8.29134 -59.2047,-24.7953 -14.3465,-16.5 -21.4764,-39.9685 -21.4764,-70.3976l0 -156.724 38.1417 0 0 156.724c0,24.2953 5.05906,40.9606 15.1772,50.1654 10.1142,9.12205 21.2244,13.6811 33.4173,13.6811 12.2717,0 23.4646,-3.48031 33.4173,-10.4449 9.94882,-6.9685 18.2402,-16.8346 24.874,-29.7717 6.63386,-12.8504 9.95276,-26.8661 9.95276,-42.122l0 -138.232 38.1417 0 0 245.366z"/>
  <path class="fil1" d="M5122.89 1795.01l-39.4685 12.8504 -48.8425 -150.173 -146.189 47.5157 48.8386 150.091 -39.5512 12.8504 -102.409 -315.185 39.4685 -12.8543 42.4567 130.437 146.193 -47.4291 -42.4567 -130.52 39.5551 -12.8543 102.406 315.272z"/>
  <path class="fil1" d="M5387.25 1729.67l-36.8976 8.53937c-3.15354,-7.20866 -7.87795,-21.2283 -14.1811,-42.0394 -8.79134,36.7323 -32.9213,59.7047 -72.3898,68.7441 -26.7835,6.21654 -49.0118,3.8937 -66.6693,-7.05118 -17.5827,-10.8622 -28.6929,-26.2008 -33.3346,-46.1024 -5.55512,-24.1299 0.0826772,-46.3543 17.0787,-66.5866 16.9173,-20.3189 49.9173,-36.0709 99.1772,-47.4331 6.63386,-1.5748 17.248,-3.73228 31.9252,-6.38583 -4.39764,-18.9843 -9.03937,-32.3386 -13.8504,-40.0472 -4.88976,-7.79921 -12.6024,-13.1024 -23.2992,-16.0039 -10.6142,-2.82283 -23.6339,-2.48819 -39.0551,1.0748 -37.7323,8.70866 -56.3858,28.1102 -55.8898,58.2953l-35.6575 1.98819c-1.82677,-45.937 28.2795,-76.0354 90.3031,-90.3858 32.9173,-7.62598 58.0472,-5.71654 75.2087,5.72441 17.1654,11.3622 29.8543,35.0748 38.2244,71.063l23.3858 101.5c3.89764,16.8307 9.20472,31.9213 15.9213,45.1063zm-68.7402 -109.957c-15.3425,2.5748 -27.0354,4.73228 -34.9134,6.55512 -29.2677,6.79528 -50.9961,16.8307 -65.0079,30.2638 -14.0118,13.3504 -18.9055,29.2717 -14.6772,47.6811 2.73622,11.6929 9.37008,20.6457 20.0669,26.7835 10.6102,6.22047 24.2126,7.38189 40.7953,3.56693 22.3898,-5.14173 38.8937,-17.5787 49.5866,-37.1496 10.7008,-19.5709 13.5197,-40.3031 8.46063,-62.2756 -0.996063,-4.3937 -2.48819,-9.53543 -4.31102,-15.4252z"/>
  <path class="fil1" d="M5496.79 1717.48l-37.8937 4.64567 -29.8543 -243.461 33.252 -4.06299 6.96457 56.8858c8.45669,-28.2756 18.0787,-47.1024 28.9409,-56.5551 10.7795,-9.36614 22.3858,-14.8425 34.8268,-16.3346 3.81496,-0.496063 8.87402,-0.830709 15.0079,-0.909449l4.48031 36.1535 -7.7126 0.992126c-20.8976,2.57087 -37.315,12.4409 -49.1732,29.7717 -11.9449,17.2441 -16.8307,38.6417 -14.6772,64.1772l15.8386 128.697z"/>
  <path class="fil1" d="M5800.94 1366.47l5.80315 331.437 -34.7441 0.582677 -0.661417 -42.0433c-16.6693,32.6693 -42.2087,49.3386 -76.622,49.9213 -28.6929,0.496063 -52.4055,-11.1142 -71.315,-34.8307 -18.9055,-23.7165 -28.6063,-53.8976 -29.2717,-90.6299 -0.661417,-37.5669 7.96457,-68.9921 25.7913,-94.3661 17.8307,-25.2913 41.9567,-38.2283 72.2244,-38.8071 29.4409,-0.5 53.7323,12.5197 72.8071,39.0551l-2.0748 -119.657 38.063 -0.661417zm-34.9094 181.512c-0.413386,-21.4764 -7.29921,-38.6417 -20.563,-51.3268 -13.3504,-12.7717 -28.7795,-18.9882 -46.2756,-18.6575 -18.9055,0.334646 -34.3268,9.03937 -46.2677,26.0394 -11.9409,17.0827 -17.6614,40.7953 -17.0827,71.2283 0.5,32.9213 6.63386,57.7953 18.1575,74.7953 11.5315,16.9134 27.1181,25.2087 46.685,24.878 17.8346,-0.330709 33.4213,-8.04724 46.689,-23.1378 13.3504,-15.1732 19.8976,-32.752 19.4843,-52.8189l-0.826772 -51z"/>
  <path class="fil1" d="M6182.06 1464.65l-87.5669 239.728 -30.7638 -2.15748 -42.0394 -185.492 -62.8583 178.197 -31.2598 -2.15748 -56.3031 -249.843 38.311 2.65354 40.2953 186.157 63.6024 -178.858 27.8622 1.98425 42.2087 186.909 67.748 -179.28 30.7638 2.15748z"/>
  <path class="fil1" d="M6396.49 1751.81l-37.315 -6.55118c-0.0826772,-7.96063 1.07874,-22.7205 3.39764,-44.2835 -22.4685,30.3543 -53.6457,42.0472 -93.4528,34.9961 -27.1142,-4.72835 -46.685,-15.5906 -58.622,-32.5079 -12.0276,-16.9134 -16.252,-35.4055 -12.689,-55.4724 4.31102,-24.378 18.2441,-42.622 41.7087,-54.6417 23.4685,-12.1102 60.1181,-13.689 109.874,-4.97638 6.71654,1.24409 17.3307,3.39764 31.8386,6.62992 3.40157,-19.1535 4.39764,-33.252 2.90551,-42.2913 -1.40945,-9.03543 -6.4685,-17 -15.1772,-23.7126 -8.62205,-6.79921 -20.811,-11.6102 -36.4016,-14.3425 -38.1457,-6.72047 -62.8543,3.8937 -74.2165,31.7559l-33.5827 -12.0236c16.252,-43.0354 55.8071,-58.9567 118.413,-47.9291 33.3346,5.88976 55.6417,17.4134 67,34.5787 11.3583,17.248 13.8504,44.0315 7.46457,80.3504l-18.0787 102.661c-3.06693,16.9961 -4.06299,33 -3.06693,47.7598zm-20.3189 -128.114c-15.0906,-3.64961 -26.7008,-6.22047 -34.6614,-7.54724 -29.6024,-5.30709 -53.5669,-4.47638 -71.6417,2.32283 -18.1575,6.88189 -28.8583,19.6496 -32.1732,38.2283 -2.0748,11.8583 0.57874,22.6378 7.96063,32.5039 7.37795,9.87008 19.4882,16.252 36.2362,19.2402 22.6378,3.98031 42.7047,-1 60.1181,-14.8465 17.4961,-13.8465 28.1929,-31.8386 32.0906,-53.9803 0.830709,-4.48031 1.49213,-9.7874 2.07087,-15.9213z"/>
  <path class="fil1" d="M6502.22 1778.76l-37.1496 -8.62598 55.1457 -238.98 32.6693 7.54724 -12.8543 55.8898c17.5827,-23.7165 33.0866,-38.1417 46.437,-43.2874 13.4331,-5.05512 26.2047,-6.21654 38.311,-3.48425 3.81496,0.913386 8.62598,2.32283 14.5079,4.39764l-8.20866 35.4921 -7.54724 -1.74409c-20.563,-4.80709 -39.3031,-1.0748 -56.4685,11.1102 -17.0827,12.1929 -28.9409,30.6024 -35.6535,55.311l-29.189 126.374z"/>
  <path class="fil1" d="M6799.82 1793.69l31.5118 17.9094c-12.6063,17.8268 -29.9331,30.4291 -52.0748,37.563 -22.0591,7.2126 -45.189,6.88189 -69.4055,-0.913386 -31.8425,-10.3661 -53.9803,-29.9331 -66.4213,-58.7913 -12.437,-28.7717 -12.7677,-61.3622 -0.909449,-97.6811 12.0236,-37.0669 32.0079,-63.7677 59.9528,-79.937 27.8622,-16.252 57.2953,-19.3228 88.2244,-9.29134 30.5197,9.95276 51.5787,28.4449 63.2717,55.5591 11.6929,27.1181 10.9449,61.7795 -2.23622,103.984l-169.492 -55.1417c-11.4449,35.3268 -11.7756,61.4449 -1,78.6102 10.7835,17.0827 24.3819,28.3622 40.8819,33.6654 29.689,9.70079 55.6417,1.16142 77.6969,-25.5354zm20.9803 -71.563c3.98031,-13.185 5.55512,-25.4606 4.8937,-36.9843 -0.744094,-11.4449 -4.64173,-22.3071 -11.9409,-32.5866 -7.21654,-10.2047 -17.5,-17.5787 -30.8465,-21.8937 -18.0748,-5.88976 -35.4055,-4.3937 -52.1575,4.47638 -16.748,8.87402 -29.4409,23.9646 -38.1457,45.3583l128.197 41.6299z"/>
  <path class="fil1" d="M4489.16 3068.98l-226.043 -242.465 95.8622 -89.3898c24.2087,-22.5591 47.5945,-33.3346 70.315,-32.3386 22.7205,0.913386 41.378,9.20472 55.9685,24.874 25.6299,27.4488 28.2795,59.0394 7.96457,94.7795 21.1457,-11.5236 41.126,-15.5039 59.8701,-12.0197 18.8228,3.56693 34.8268,12.437 48.0906,26.6142 17.748,19.0709 26.2087,41.0472 25.378,65.8425 -0.913386,24.874 -14.6772,49.752 -41.4606,74.7087l-95.9449 89.3937zm-99.8346 -165.843l52.7402 -49.1772c21.8858,-20.4803 32.5866,-38.2244 32.1732,-53.4843 -0.417323,-15.1732 -5.88976,-28.3543 -16.4173,-39.6339 -10.3701,-11.1142 -22.7244,-16.5039 -36.9882,-16.0039 -14.2598,0.496063 -29.189,8.04331 -44.8583,22.5551l-60.5354 56.5512 73.8858 79.1929zm104.315 111.941l65.0079 -60.6969c15.8386,-14.7598 24.5472,-30.0197 26.0394,-45.7717 1.40945,-15.7559 -3.56299,-29.8543 -15.0906,-42.126 -8.04331,-8.62598 -17.4961,-14.8425 -28.2756,-18.5748 -10.7795,-3.81496 -21.6417,-4.39764 -32.5079,-1.74016 -10.8622,2.57087 -23.2992,10.4488 -37.3937,23.5472l-60.6181 56.4724 82.8386 88.8898z"/>
  <path class="fil1" d="M4801.94 2718.72l33.252 -14.3504c6.63386,20.815 6.22047,42.2087 -1.32677,64.185 -7.54331,21.9724 -21.7244,40.2165 -42.5354,54.811 -27.4488,19.2362 -56.3858,25.122 -86.9016,17.7402 -30.5157,-7.46063 -56.6378,-26.7835 -78.6102,-58.0394 -22.3898,-32.0118 -31.5984,-64.0197 -27.7835,-96.0276 3.8189,-32.0906 19.0748,-57.3819 45.7756,-76.122 26.2874,-18.3268 53.7323,-24.0433 82.4252,-17.0787 28.689,6.96457 55.8898,28.4409 81.6772,64.3465l-146.028 102.244c21.315,30.3465 41.9606,46.4331 62.1929,48.0945 20.1496,1.74016 37.315,-2.40945 51.4921,-12.3583 25.626,-17.9094 34.4173,-43.6969 26.3701,-77.4449zm-44.5276 -59.874c-8.20866,-11.0276 -17,-19.7323 -26.6181,-26.1181 -9.53543,-6.30315 -20.6496,-9.70472 -33.1654,-10.1181 -12.5236,-0.417323 -24.5512,3.40157 -36.1575,11.5276 -15.5039,10.8622 -24.7087,25.622 -27.7795,44.3622 -2.98425,18.6575 1.40945,37.8937 13.2677,57.7126l110.453 -77.3661z"/>
  <path class="fil1" d="M5007.92 2652.96l13.685 26.7835c-11.1969,7.70866 -21.1496,13.7638 -29.937,18.2441 -42.2913,21.5551 -74.6299,10.2795 -97.1063,-33.9173l-67.0787 -131.516 -38.7244 19.7362 -13.5197 -26.6181 38.7244 -19.7362 -26.5315 -55.7244 30.0984 -19.1535 29.5236 57.9646 48.9213 -24.874 13.5157 26.6142 -48.9252 24.878 69.9055 137.236c11.5236,22.4724 28.937,27.7795 52.2402,15.8346 7.79134,-3.89764 16.252,-9.20079 25.2087,-15.752z"/>
  <path class="fil1" d="M5094.57 2643.43l-34.8307 15.5079 -99.7559 -224.059 30.5984 -13.5945 23.3031 52.3189c-0.165354,-29.5197 3.56299,-50.3346 11.1102,-62.5236 7.62598,-12.1063 17.1654,-20.7283 28.5276,-25.7874 3.56299,-1.65748 8.29134,-3.39764 14.1772,-5.30709l14.7598 33.3386 -7.04724 3.14961c-19.2362,8.53937 -32.0079,22.8031 -38.3937,42.8701 -6.30315,19.9843 -4.72835,41.874 4.81102,65.5906l52.7402 118.496z"/>
  <path class="fil1" d="M5145.24 2270.6l13.1024 40.1378 -39.0551 12.685 -13.0197 -40.1339 38.9724 -12.689zm25.5433 82.3425l75.7913 233.26 -36.3228 11.7756 -75.7913 -233.26 36.3228 -11.7756z"/>
  <path class="fil1" d="M5461.75 2448.72l36.1535 -0.826772c-1.57874,21.8071 -10.0354,41.4606 -25.2087,59.0433 -15.2598,17.4961 -35.2441,29.189 -59.9528,34.9094 -32.6693,7.54724 -61.7795,2.15748 -87.2323,-16.1693 -25.5394,-18.2441 -42.5394,-46.0236 -51.1614,-83.2559 -8.79134,-38.0591 -5.3937,-71.1457 10.1969,-99.4252 15.5906,-28.2756 39.2205,-46.1024 70.8976,-53.4016 31.2638,-7.2126 58.878,-2.23622 82.8386,15.0118 24.0472,17.2441 41.2126,47.3465 51.6614,90.2992l-173.72 40.0551c8.37402,36.1535 21.5591,58.7913 39.6339,67.9094 18.0787,9.12598 35.4921,11.6929 52.4094,7.79921 30.4331,-6.9685 48.2598,-27.6181 53.4843,-61.9488zm-18.9055 -72.1378c-3.40157,-13.3543 -8.37795,-24.7087 -14.8425,-34.1654 -6.55118,-9.45276 -15.5079,-16.748 -27.0354,-21.8071 -11.4449,-5.14173 -24.0472,-6.05512 -37.7283,-2.90551 -18.4921,4.31496 -32.5906,14.5157 -42.374,30.7638 -9.86614,16.1732 -12.937,35.6614 -9.36614,58.4606l131.346 -30.3465z"/>
  <path class="fil1" d="M5588.7 2501.3l-18.4055 1.32677 -23.1378 -330.693 38.063 -2.65354 8.7874 126.705c15.2598,-32.8386 38.2283,-50.4173 68.9094,-52.4882 28.1102,-1.99213 52.4094,7.38189 72.8858,28.1929 20.5669,20.811 32.2598,52.3228 35.2441,94.4488 2.56693,36.3189 -4.64173,67.5 -21.563,93.3661 -16.9961,25.9606 -40.378,39.9724 -70.2323,42.0433 -33.252,2.32283 -59.8661,-11.5276 -79.8543,-41.626l-10.6969 41.378zm12.8543 -97.2677c3.56693,24.874 12.5197,42.5394 26.9488,52.9016 14.4291,10.3661 29.2717,15.0118 44.4449,13.9331 19.4055,-1.40945 34.4134,-10.8622 45.1102,-28.5236 10.6969,-17.5787 15.0118,-41.0472 13.0197,-70.2362 -2.23622,-31.5079 -9.70079,-55.8858 -22.3898,-73.0551 -12.7677,-17.248 -29.2717,-25.122 -49.6693,-23.7165 -15.9213,1.16142 -29.9331,8.62598 -41.874,22.3071 -11.9409,13.7677 -18.4094,30.8465 -19.4016,51.4134l3.81102 54.9764z"/>
  <path class="fil1" d="M5805.71 2426.83l36.5669 -6.88189c7.54724,31.0157 32.8386,46.9331 75.874,47.6811 15.9173,0.330709 29.3543,-3.06693 40.5472,-9.95276 11.1102,-6.96457 16.752,-16.9134 17,-29.8504 0.330709,-19.2402 -13.4331,-31.6772 -41.378,-37.3976l-51.4961 -10.6142c-20.2323,-4.22835 -36.1535,-12.1063 -47.9291,-23.6299 -11.7717,-11.5276 -17.5787,-26.6181 -17.248,-45.2756 0.417323,-20.5669 8.87402,-37.5669 25.4606,-51.1654 16.5827,-13.5157 38.7205,-20.0669 66.4173,-19.5709 53.2362,0.913386 85.7441,22.3071 97.5197,64.1024l-35.1614 6.87795c-9.53543,-25.7047 -30.0197,-38.8858 -61.1969,-39.3858 -15.5866,-0.330709 -28.3583,2.65354 -38.4764,8.87402 -10.0315,6.21654 -15.1732,15.0945 -15.3386,26.6142 -0.330709,18.0827 12.189,29.7717 37.4843,34.9134l47.6772 9.2874c49.9173,9.94882 74.4646,34.5787 73.7992,73.9685 -0.413386,22.4724 -10.0354,40.4646 -28.8543,53.9803 -18.9094,13.5157 -43.7874,19.9803 -74.7126,19.4843 -58.1299,-0.992126 -93.622,-25.0433 -106.555,-72.0591z"/>
  <path class="fil1" d="M6046.35 2433.55l37.1496 -1.08268c2.65354,31.8425 25.122,51.4961 67.5787,58.9606 15.5906,2.8189 29.4409,1.66142 41.5472,-3.48031 12.0236,-5.14567 19.2362,-14.0157 21.4764,-26.7835 3.3189,-18.9921 -8.29528,-33.4213 -34.9921,-43.4528l-49.2598 -18.4921c-19.3189,-7.38189 -33.8268,-17.6654 -43.6142,-30.9291 -9.86614,-13.189 -13.185,-29.0236 -9.95276,-47.3504 3.56693,-20.2323 14.5984,-35.7362 33.1693,-46.5197 18.4921,-10.8622 41.378,-13.8465 68.6575,-9.03543 52.4094,9.28346 81.1811,35.4882 86.2402,78.6102l-35.7362 1.32677c-5.47638,-26.9528 -23.5512,-43.122 -54.315,-48.5118 -15.3425,-2.73622 -28.4409,-1.74016 -39.3898,2.8189 -10.8622,4.56299 -17.3307,12.5197 -19.3189,23.7992 -3.15354,17.8307 7.37795,31.3465 31.5945,40.3819l45.6063 16.6693c47.6772,17.5787 68.1614,45.7717 61.2795,84.4961 -3.89764,22.2244 -16.1693,38.4803 -36.9016,48.8425 -20.811,10.4449 -46.3543,12.937 -76.8701,7.54724 -57.2126,-10.0354 -88.5591,-39.3071 -93.9488,-87.815z"/>
  <path class="fil1" d="M6523.9 2356.59l-165.843 239.15c-24.0472,34.4921 -51.0827,47.6772 -81.2638,39.5551 -9.61811,-2.48819 -19.7362,-6.9685 -30.3504,-13.3543l7.7126 -28.8543c8.95669,4.72441 16.8307,8.03937 23.7126,9.87008 11.7756,3.14961 22.4724,2.40157 32.1732,-2.24409 9.70472,-4.55906 21.8937,-18.7402 36.6575,-42.4567l-19.5709 -254.402 37.4764 10.0354 15.6772 195.031 112.689 -160.622 30.9291 8.29134z"/>
  <path class="fil1" d="M6488.07 2533.8l36.3189 7.96063c-5.14173,31.5079 11.9409,56.0551 51.248,73.5512 14.5079,6.4685 28.2717,8.70472 41.2087,6.63386 12.937,-1.99213 22.0591,-8.95276 27.2835,-20.811 7.87795,-17.5787 0.0826772,-34.4134 -23.3858,-50.5866l-43.3661 -29.8504c-16.9173,-11.7756 -28.5276,-25.2913 -34.8307,-40.5472 -6.29921,-15.1772 -5.71654,-31.3425 1.82677,-48.3425 8.37795,-18.7402 22.8858,-31.1772 43.4528,-37.1496 20.563,-5.97244 43.4488,-3.40157 68.7402,7.87795 48.6772,21.6417 70.2362,54.063 64.6811,97.0984l-34.9921 -7.29528c1.24016,-27.4449 -12.4409,-47.5157 -40.9646,-60.2835 -14.1811,-6.30315 -27.1181,-8.54331 -38.811,-6.80315 -11.689,1.82677 -19.8976,7.96063 -24.626,18.4921 -7.29528,16.5039 -0.330709,32.1732 20.9803,46.7717l40.2205 27.1969c42.0354,28.6063 54.9724,60.9488 38.9685,96.8543 -9.12205,20.563 -25.0433,33.4134 -47.6811,38.4764 -22.6339,5.05512 -48.0079,1.32677 -76.2874,-11.2795 -53.0709,-23.6339 -76.4528,-59.622 -69.9843,-107.965z"/>
  <path class="fil1" d="M6810.89 2736.38l-15.0118 26.0354c-12.6024,-5.1378 -23.1339,-10.1969 -31.6732,-15.1732 -41.0472,-23.7165 -49.2559,-57.0512 -24.4646,-99.9213l73.8858 -127.862 -37.7323 -21.7283 15.0118 -25.8701 37.6457 21.7244 32.2559 -52.5748 32.4213 14.7638 -32.5039 56.3858 47.5157 27.4449 -14.9291 25.874 -47.5118 -27.4449 -77.0354 133.335c-12.6024,21.8937 -7.54331,39.3898 15.1772,52.4921 7.54724,4.3937 16.5,8.53937 26.9488,12.5197z"/>
  <path class="fil1" d="M7003.85 2808.94l24.874 26.2874c-17.248,13.4331 -37.5669,20.315 -60.7835,20.7323 -23.2165,0.496063 -45.1929,-6.6378 -66.0866,-21.2323 -27.4488,-19.1535 -42.874,-44.3622 -46.3543,-75.5394 -3.48425,-31.1811 5.80315,-62.4449 27.6969,-93.7008 22.3898,-32.0079 49.2559,-51.6614 80.685,-58.9567 31.4252,-7.38189 60.5315,-1.74409 87.1496,16.9134 26.2835,18.4094 41.0472,42.2913 44.2795,71.6457 3.23228,29.3543 -7.62992,62.2717 -32.5079,98.7598l-146.024 -102.24c-21.311,30.3465 -29.2717,55.3031 -23.9646,74.874 5.30709,19.4882 15.0079,34.252 29.2717,44.2008 25.5394,17.9094 52.8189,17.3307 81.7638,-1.74409zm40.9606 -62.3543c7.62598,-11.4449 12.8543,-22.7244 15.5079,-33.9173 2.65354,-11.1102 2.0748,-22.7205 -1.82677,-34.6614 -3.8937,-11.8543 -11.6102,-21.8898 -23.2165,-29.937 -15.5079,-10.8622 -32.5039,-14.5079 -51.1654,-10.9449 -18.5709,3.56693 -35.1575,14.2638 -49.6654,32.1732l110.366 77.2874z"/>
  <path class="fil1" d="M7266.96 3162.1l-25.7874 -26.7008 109.705 -105.972c11.2795,-10.8661 18.9882,-19.8228 23.1339,-26.8701 4.14567,-7.04724 5.64173,-15.8386 4.56299,-26.4528 -1.16535,-10.6142 -5.3937,-19.7362 -12.689,-27.2795 -10.1142,-10.5315 -24.7126,-15.9213 -43.6969,-16.4213 -18.9921,-0.413386 -38.315,8.87402 -58.0472,27.8661l-99.4252 96.0236 -25.622 -26.622 116.173 -112.193c15.5079,-14.9252 22.8858,-29.189 22.1417,-42.7874 -0.748031,-13.5945 -5.05906,-24.4606 -12.937,-32.5906 -11.1929,-11.689 -26.0394,-16.9134 -44.3622,-15.9173 -18.3268,1.0748 -35.1614,9.03937 -50.5866,23.8819l-105.472 101.909 -25.378 -26.2008 176.461 -170.406 22.8031 23.5472 -33.9134 32.7559c38.5591,-11.7756 68.9921,-6.21654 91.2953,16.8346 12.2717,12.7717 18.4921,27.5315 18.8228,44.3622 0.248031,16.8346 -4.22835,32.1772 -13.3504,45.937 39.8858,-15.0906 71.8937,-10.1142 96.1063,14.9291 11.5276,12.0197 18.2441,25.7874 20.1535,41.4567 1.82283,15.6732 -0.417323,29.189 -6.63386,40.5512 -6.30315,11.2756 -17.5,24.7953 -33.6693,40.4646l-109.787 105.894z"/>
  <path class="fil1" d="M5570.44 3765.94l0 210.059c0,36.689 -8.24409,62.2559 -24.811,76.7047 -16.5669,14.4449 -38.5039,21.7087 -65.811,21.7087 -14.5984,0 -29.3465,-1.9685 -44.0984,-5.97638l0 -31.0118c14.4488,2.94882 27.6102,4.38583 39.4094,4.38583 16.8701,0 29.2756,-2.49606 37.2913,-7.48819 7.94488,-5.07087 13.315,-11.5748 16.0394,-19.5157 2.72047,-7.94488 4.08268,-20.878 4.08268,-38.8071l0 -210.059 37.8976 0z"/>
  <path class="fil1" d="M5815.29 4068.43l-34.5669 0c-1.2874,-7.11024 -2.64961,-20.5 -3.93307,-40.3189 -15.4331,30.8622 -41.5276,46.2953 -78.5197,46.2953 -25.1102,0 -44.3268,-6.65748 -57.7913,-19.9685 -13.4646,-13.2402 -20.1969,-29.2008 -20.1969,-47.8071 0,-22.6181 9.61024,-41.2283 28.8228,-55.752 19.2126,-14.5984 51.8898,-21.8583 97.9567,-21.8583 6.20079,0 16.1102,0.30315 29.7283,0.905512 0,-17.7008 -1.3622,-30.5591 -4.16142,-38.4252 -2.72441,-7.94094 -8.47244,-14.2205 -17.3976,-18.9882 -8.85039,-4.68898 -20.5,-7.11024 -34.9488,-7.11024 -35.3228,0 -55.8976,13.4646 -61.6457,40.3937l-32.1496 -5.59449c7.86614,-41.2283 40.7717,-61.8031 98.8661,-61.8031 30.8622,0 52.7992,6.80709 65.7323,20.5 12.8583,13.6929 19.3661,37.3661 19.3661,71.0276l0 95.0866c0,15.8071 1.58661,30.2559 4.83858,43.4173zm-38.5 -111.953c-14.2205,-0.830709 -24.9646,-1.28346 -32.374,-1.28346 -27.4606,0 -48.8661,4.46063 -64.0709,13.5394 -15.2047,9 -22.8465,22.1614 -22.8465,39.4094 0,10.9685 4.16142,20.2717 12.3307,27.9134 8.16929,7.7126 20.0472,11.5709 35.5512,11.5709 21.0315,0 38.2756,-7.6378 51.7402,-22.8425 13.5433,-15.2047 20.2756,-33.1339 20.2756,-53.6299 0,-4.16142 -0.228346,-9.00394 -0.606299,-14.6772z"/>
  <path class="fil1" d="M6033.6 3844.61l-77.3858 223.827 -36.0787 0 -80.0315 -223.827 38.5787 0 62.252 181.921 61.6496 -181.921 31.0157 0z"/>
  <path class="fil1" d="M6244.72 4068.43l-34.5669 0c-1.2874,-7.11024 -2.64961,-20.5 -3.93307,-40.3189 -15.4331,30.8622 -41.5276,46.2953 -78.5197,46.2953 -25.1102,0 -44.3268,-6.65748 -57.7913,-19.9685 -13.4646,-13.2402 -20.1969,-29.2008 -20.1969,-47.8071 0,-22.6181 9.61024,-41.2283 28.8228,-55.752 19.2126,-14.5984 51.8898,-21.8583 97.9567,-21.8583 6.20079,0 16.1102,0.30315 29.7283,0.905512 0,-17.7008 -1.3622,-30.5591 -4.16142,-38.4252 -2.72441,-7.94094 -8.47244,-14.2205 -17.3976,-18.9882 -8.85039,-4.68898 -20.5,-7.11024 -34.9488,-7.11024 -35.3228,0 -55.8976,13.4646 -61.6457,40.3937l-32.1496 -5.59449c7.86614,-41.2283 40.7717,-61.8031 98.8661,-61.8031 30.8622,0 52.7992,6.80709 65.7323,20.5 12.8583,13.6929 19.3661,37.3661 19.3661,71.0276l0 95.0866c0,15.8071 1.58661,30.2559 4.83858,43.4173zm-38.5 -111.953c-14.2205,-0.830709 -24.9646,-1.28346 -32.374,-1.28346 -27.4606,0 -48.8661,4.46063 -64.0709,13.5394 -15.2047,9 -22.8465,22.1614 -22.8465,39.4094 0,10.9685 4.16142,20.2717 12.3307,27.9134 8.16929,7.7126 20.0472,11.5709 35.5512,11.5709 21.0315,0 38.2756,-7.6378 51.7402,-22.8425 13.5433,-15.2047 20.2756,-33.1339 20.2756,-53.6299 0,-4.16142 -0.228346,-9.00394 -0.606299,-14.6772z"/>
  <path class="fil1" d="M5507.92 4583.03l-36.7638 0 -156.429 -263.693 0.377953 19.8937c0.452756,7.56693 0.681102,13.9213 0.681102,19.063l0 224.736 -30.5591 0 0 -302.496 47.4291 0 146.291 246.673 -0.452756 -21.1063c-0.30315,-8.24409 -0.452756,-15.5827 -0.452756,-21.937l0 -203.63 29.878 0 0 302.496z"/>
  <path class="fil1" d="M5755.65 4583.03l-34.5669 0c-1.2874,-7.11024 -2.64961,-20.5 -3.93307,-40.3189 -15.4331,30.8622 -41.5276,46.2953 -78.5197,46.2953 -25.1102,0 -44.3268,-6.65748 -57.7913,-19.9685 -13.4646,-13.2402 -20.1969,-29.2008 -20.1969,-47.8071 0,-22.6181 9.61024,-41.2283 28.8228,-55.752 19.2126,-14.5984 51.8898,-21.8583 97.9567,-21.8583 6.20079,0 16.1102,0.30315 29.7283,0.905512 0,-17.7008 -1.3622,-30.5591 -4.16142,-38.4252 -2.72441,-7.94094 -8.47244,-14.2205 -17.3976,-18.9882 -8.85039,-4.68898 -20.5,-7.11024 -34.9488,-7.11024 -35.3228,0 -55.8976,13.4646 -61.6457,40.3937l-32.1496 -5.59449c7.86614,-41.2283 40.7717,-61.8031 98.8661,-61.8031 30.8622,0 52.7992,6.80709 65.7323,20.5 12.8583,13.6929 19.3661,37.3661 19.3661,71.0276l0 95.0866c0,15.8071 1.58661,30.2559 4.83858,43.4173zm-38.5 -111.953c-14.2205,-0.830709 -24.9646,-1.28346 -32.374,-1.28346 -27.4606,0 -48.8661,4.46063 -64.0709,13.5394 -15.2047,9 -22.8465,22.1614 -22.8465,39.4094 0,10.9685 4.16142,20.2717 12.3307,27.9134 8.16929,7.7126 20.0472,11.5709 35.5512,11.5709 21.0315,0 38.2756,-7.6378 51.7402,-22.8425 13.5433,-15.2047 20.2756,-33.1339 20.2756,-53.6299 0,-4.16142 -0.228346,-9.00394 -0.606299,-14.6772z"/>
  <path class="fil1" d="M5921.91 4559.13l0 27.4567c-12.252,1.59055 -22.9173,2.42126 -31.9213,2.42126 -43.2677,0 -64.9764,-22.6181 -64.9764,-67.7756l0 -134.795 -39.6378 0 0 -27.2323 39.6378 0 1.59055 -56.2795 32.374 -3.10236 0 59.3819 50.0748 0 0 27.2323 -50.0748 0 0 140.543c0,22.9961 11.9528,34.5669 35.8543,34.5669 8.01969,0 17.0197,-0.830709 27.0787,-2.41732z"/>
  <path class="fil1" d="M5995.96 4280.54l0 38.5787 -37.5157 0 0 -38.5787 37.5157 0zm-1.13386 78.6693l0 223.827 -34.7953 0 0 -223.827 34.7953 0z"/>
  <path class="fil1" d="M6228.19 4359.2l-77.3858 223.827 -36.0787 0 -80.0315 -223.827 38.5787 0 62.252 181.921 61.6496 -181.921 31.0157 0z"/>
  <path class="fil1" d="M6409.43 4516.31l32.374 6.65748c-5.89764,19.0591 -17.4724,34.8701 -34.5669,47.3504 -17.1732,12.4803 -37.2913,18.685 -60.5157,18.685 -30.5591,0 -55.2953,-10.7402 -74.2047,-32.2244 -18.9094,-21.4843 -28.3661,-49.6969 -28.3661,-84.5709 0,-35.626 9.75591,-64.3701 29.4252,-86.3071 19.6654,-21.937 44.3268,-32.9055 74.0551,-32.9055 29.1969,0 52.7205,10.1378 70.5748,30.3346 17.7756,20.2717 26.9291,50.5276 27.3819,90.9213l-162.709 0c0,33.815 7.11024,56.6575 21.2559,68.4567 14.2205,11.8031 29.1969,17.7008 45.0079,17.7008 28.5157,0 48.6378,-14.6732 60.2874,-44.0984zm-1.9685 -68.0039c-0.299213,-12.5551 -2.41732,-23.752 -6.20079,-33.5079 -3.85827,-9.75984 -10.3622,-18.0039 -19.5157,-24.8898 -9.15354,-6.88189 -20.1969,-10.2874 -33.0551,-10.2874 -17.248,0 -31.9213,6.20472 -43.9488,18.6102 -12.0276,12.4055 -18.8346,29.0472 -20.2717,50.0748l122.992 0z"/>
  <path class="fil1" d="M5584.7 4995.89l34.6457 7.79134c-16.5669,66.6417 -53.9331,99.9252 -112.181,99.9252 -38.2756,0 -68.3031,-15.4331 -90.0906,-46.2953 -21.7835,-30.8622 -32.6772,-68.8346 -32.6772,-113.917 0,-46.5197 11.3465,-83.8898 34.1142,-112.102 22.7717,-28.2913 53.2559,-42.3622 91.5276,-42.3622 56.7323,0 93.1929,32.4528 109.307,97.2795l-35.7047 7.11024c-13.0118,-48.185 -37.5945,-72.2402 -73.8268,-72.2402 -26.7008,0 -47.4291,11.1969 -62.1811,33.5866 -14.6732,22.315 -22.0118,53.7795 -22.0118,94.252 0,37.063 7.56693,66.7913 22.6181,89.1811 15.0551,22.3898 35.0236,33.5866 59.8346,33.5866 38.5787,0 64.0709,-25.2638 76.626,-75.7953z"/>
  <path class="fil1" d="M5743.47 5103.61c-30.7835,0 -54.7638,-11.3465 -71.9331,-34.1142 -17.248,-22.7717 -25.7953,-50.9843 -25.7953,-84.6457 0,-35.6299 9.6063,-64.0709 28.9724,-85.3268 19.3622,-21.2559 43.4921,-31.9213 72.2362,-31.9213 30.9409,0 55.2205,11.1969 73.0709,33.5866 17.7795,22.3898 26.7047,50.3031 26.7047,83.8898 0,34.8701 -9.6063,63.311 -28.8228,85.3976 -19.2126,22.0906 -44.0236,33.1339 -74.4331,33.1339zm2.64961 -28.5945c17.7008,0 32.5276,-7.33465 44.5551,-21.937 11.9488,-14.5984 17.9252,-37.3661 17.9252,-68.2283 0,-31.0157 -6.27953,-53.5551 -18.8346,-67.4724 -12.5551,-13.9961 -27.3071,-20.9528 -44.0984,-20.9528 -17.3228,0 -31.9213,7.0315 -43.874,21.1772 -11.9528,14.0709 -18.0039,36.4606 -18.0039,67.0197 0,32.378 6.05118,55.5236 18.0039,69.4409 11.9528,13.9961 26.7008,20.9528 44.3268,20.9528z"/>
  <path class="fil1" d="M6073.8 4795.13l0 302.496 -31.6181 0 0 -38.3504c-15.6575,29.5748 -39.2598,44.3268 -70.7244,44.3268 -26.1732,0 -47.6575,-10.9685 -64.5236,-32.9055 -16.7953,-21.937 -25.2677,-49.6969 -25.2677,-83.2087 0,-34.2638 8.39764,-62.8583 25.1142,-85.626 16.6417,-22.8465 38.8071,-34.2677 66.4134,-34.2677 26.9291,0 48.8661,12.2559 65.8858,36.7638l0 -109.228 34.7205 0zm-34.7205 165.13c0,-19.6693 -6.05118,-35.4016 -18.0039,-47.2047 -11.9488,-11.874 -25.9449,-17.7756 -41.8307,-17.7756 -17.3189,0 -31.5394,7.71654 -42.6614,23.0709 -11.1929,15.3583 -16.7913,36.9173 -16.7913,64.6772 0,30.0276 5.14173,52.874 15.4291,68.5315 10.2874,15.6575 24.3583,23.4488 42.2087,23.4488 16.2638,0 30.563,-6.80709 42.9685,-20.3465 12.4803,-13.6181 18.6811,-29.5787 18.6811,-47.8819l0 -46.5197z"/>
  <path class="fil1" d="M6291.2 5030.91l32.374 6.65748c-5.89764,19.0591 -17.4724,34.8701 -34.5669,47.3504 -17.1732,12.4803 -37.2913,18.685 -60.5157,18.685 -30.5591,0 -55.2953,-10.7402 -74.2047,-32.2244 -18.9094,-21.4843 -28.3661,-49.6969 -28.3661,-84.5709 0,-35.626 9.75591,-64.3701 29.4252,-86.3071 19.6654,-21.937 44.3268,-32.9055 74.0551,-32.9055 29.1969,0 52.7205,10.1378 70.5748,30.3346 17.7756,20.2717 26.9291,50.5276 27.3819,90.9213l-162.709 0c0,33.815 7.11024,56.6575 21.2559,68.4567 14.2205,11.8031 29.1969,17.7008 45.0079,17.7008 28.5157,0 48.6378,-14.6732 60.2874,-44.0984zm-1.9685 -68.0039c-0.299213,-12.5551 -2.41732,-23.752 -6.20079,-33.5079 -3.85827,-9.75984 -10.3622,-18.0039 -19.5157,-24.8898 -9.15354,-6.88189 -20.1969,-10.2874 -33.0551,-10.2874 -17.248,0 -31.9213,6.20472 -43.9488,18.6102 -12.0276,12.4055 -18.8346,29.0472 -20.2717,50.0748l122.992 0z"/>
  <path class="fil1" d="M4977 3271.11l148.016 176.378c25.7874,30.7638 36.9016,58.0433 33.1693,81.8425 -3.64961,23.7992 -17,45.3583 -39.9685,64.5945 -12.2756,10.2835 -26.0394,18.9921 -41.2126,26.0394l-21.8898 -26.0354c14.2638,-7.7126 26.3661,-15.7598 36.2362,-24.0512 14.1811,-11.8583 22.8031,-22.7205 25.9528,-32.5827 3.14961,-9.87008 3.07087,-19.0748 -0.248031,-27.7008 -3.3189,-8.62205 -11.2756,-20.3976 -23.8819,-35.4094l-147.933 -176.37 31.7598 -26.7047z"/>
  <path class="fil1" d="M5414.41 3383.97l-33.0827 18.3268c-5.05906,-6.05118 -13.5157,-18.2441 -25.2913,-36.4843 1.65748,37.7283 -15.1732,66.4173 -50.5827,86.0709 -24.0472,13.3543 -46.1024,17.1654 -66.0039,11.6102 -19.9843,-5.6378 -34.9134,-17.3307 -44.7795,-35.1614 -12.0197,-21.6417 -12.685,-44.6102 -1.98819,-68.7402 10.6969,-24.126 38.0591,-48.5118 82.2559,-72.9685 5.97244,-3.3189 15.5906,-8.29528 28.937,-14.9291 -9.36614,-17 -17.4921,-28.5236 -24.374,-34.6614 -6.79921,-6.13386 -15.6732,-9.11811 -26.7008,-8.95276 -11.0315,0.248031 -23.4685,4.14567 -37.315,11.8543 -33.8307,18.7402 -46.437,42.5394 -37.6457,71.3976l-33.752 11.689c-14.3465,-43.6142 6.22047,-80.8465 61.9449,-111.693 29.5197,-16.4213 54.1457,-21.5591 73.7992,-15.2598 19.6535,6.22047 38.4764,25.4567 56.3858,57.7165l50.5 91.1299c8.37795,15.1732 17.6654,28.1929 27.6929,39.0551zm-96.3504 -86.8189c-14.0984,6.71654 -24.7087,12.0236 -31.7598,15.9213 -26.3701,14.5945 -44.3661,30.2677 -54.2283,47.0157 -9.7874,16.752 -10.0354,33.3386 -0.913386,49.9213 5.79921,10.5315 14.6732,17.248 26.6181,20.2323 11.9409,2.98425 25.3701,0.413386 40.2165,-7.87795 20.1496,-11.1102 32.5866,-27.5315 37.4803,-49.3386 4.88976,-21.7244 1.90551,-42.4567 -9.03937,-62.189 -2.24016,-3.98031 -4.97638,-8.46063 -8.37402,-13.685z"/>
  <path class="fil1" d="M5581.83 3077.91l-18.4094 258.886 -38.2244 10.1969 -148.185 -214.272 40.7992 -10.8622 117.587 174.882 13.5945 -210.039 32.8386 -8.79134z"/>
  <path class="fil1" d="M5873.63 3290.44l-37.7283 2.65354c-1.99213,-7.62992 -4.48031,-22.2205 -7.46457,-43.7835 -14.4291,34.9094 -41.874,53.815 -82.1732,56.6339 -27.5315,1.90945 -49.0906,-3.89764 -64.7638,-17.4094 -15.752,-13.4331 -24.2953,-30.437 -25.7047,-50.748 -1.74409,-24.7126 7.29528,-45.7756 27.1969,-63.1063 19.9016,-17.4094 55.0591,-27.8622 105.394,-31.3425 6.79921,-0.5 17.6654,-0.913386 32.5906,-1.32677 -1.40945,-19.4055 -3.89764,-33.2559 -7.46457,-41.7126 -3.56299,-8.45669 -10.4488,-14.9252 -20.4843,-19.4016 -10.0315,-4.48031 -22.9646,-6.1378 -38.8031,-5.05906 -38.563,2.74016 -60.0394,18.9882 -64.2677,48.7598l-35.5709 -3.56693c5.47244,-45.6929 39.8819,-70.7323 103.323,-75.1299 33.748,-2.40157 58.2087,3.40157 73.3858,17.4173 15.1732,13.9291 24.126,39.3031 26.6969,76.122l7.2126 103.898c1.24803,17.3346 4.14961,33.0039 8.62598,47.1024zm-50.6654 -119.323c-15.5906,0.0826772 -27.3622,0.413386 -35.4921,0.992126 -30.0157,2.0748 -52.9843,8.62205 -68.9882,19.6535 -15.9213,11.0315 -23.2205,25.9528 -21.8937,44.8583 0.830709,11.9449 6.05512,21.8071 15.5906,29.6024 9.53543,7.79528 22.8071,11.0315 39.7205,9.87008 22.9685,-1.5748 41.2126,-11.1929 54.811,-28.937 13.6811,-17.6654 19.6535,-37.6496 18.0787,-60.122 -0.330709,-4.55906 -0.913386,-9.86614 -1.82677,-15.9173z"/>
  <path class="fil1" d="M6373.48 3059.91l-193.705 291.303 -38.7244 -10.3661 -22.0591 -349.098 41.7087 11.1929 18.5748 288.071 159.295 -240.476 34.9094 9.37402z"/>
  <path class="fil1" d="M6594.72 3583.57l-33.0039 -23.1378 166.012 -237.071 -254.323 175.213 -23.1339 -16.0866 77.1181 -299.429 -166.012 237.154 -28.8583 -20.2323 190.142 -271.484 50.5 35.3189 -70.3189 274.476 232.264 -161.035 49.752 34.8268 -190.138 271.488z"/>
  <rect class="fil2" x="7223.77" y="4355.31" width="448.177" height="370.035"/>
  <rect class="fil3" x="7640.35" y="4355.31" width="448.177" height="370.035"/>
  <path class="fil2" d="M9015.79 6752.78l-1091.67 -1425.79 160.315 -122.748 -644.429 -294.256 115.972 698.878 160.315 -122.748 1091.67 1425.79 207.827 -159.126zm-545.831 -712.894m-465.681 -774.272m-242.059 -208.5m-264.228 202.307m138.146 288.071m625.992 651.52m649.748 633.331"/>
  <path class="fil2" d="M9120.83 7031.27l0 36.4449 -36.2795 0 0 -36.4449 36.2795 0zm75.8346 -185.724l0 28.3346 -28.9449 0 0 -28.3346 28.9449 0zm-1.27953 56.0039l0 171.22c0,19.2795 -4.61024,32.7795 -13.7756,40.3346 -9.16929,7.61024 -20.3346,11.3898 -33.6142,11.3898 -6.5,0 -14.4409,-1.11417 -23.8858,-3.38976l0 -20.1693c7.05512,1.72441 13.2756,2.61417 18.7205,2.61417 9.61024,0 16.5551,-2.33465 20.7244,-6.94488 4.16535,-4.61024 6.27559,-12.5551 6.27559,-23.8346l0 -171.22 25.5551 0zm179.504 166.165l-25.3898 0c-0.944882,-5.22047 -1.94488,-15.0551 -2.88976,-29.6102 -11.3346,22.6654 -30.5,34 -57.6654,34 -18.4449,0 -32.5551,-4.88976 -42.4449,-14.6693 -9.88976,-9.72047 -14.8346,-21.4409 -14.8346,-35.1102 0,-16.6102 7.05512,-30.2756 21.1654,-40.9449 14.1142,-10.7205 38.1142,-16.0551 71.9449,-16.0551 4.55906,0 11.8346,0.224409 21.8346,0.665354 0,-13 -1,-22.4409 -3.05512,-28.2205 -2,-5.83465 -6.22047,-10.4449 -12.7795,-13.9449 -6.5,-3.44488 -15.0551,-5.22047 -25.6654,-5.22047 -25.9449,0 -41.0551,9.88583 -45.2795,29.6654l-23.6102 -4.11024c5.77953,-30.2795 29.9449,-45.3898 72.6142,-45.3898 22.6654,0 38.7756,5 48.2756,15.0551 9.44488,10.0551 14.2244,27.4449 14.2244,52.1654l0 69.8346c0,11.6102 1.16535,22.2244 3.55512,31.8898zm-28.2795 -82.2244c-10.4449,-0.610236 -18.3346,-0.940945 -23.7756,-0.940945 -20.1693,0 -35.8898,3.27559 -47.0591,9.94094 -11.1654,6.61417 -16.7756,16.2795 -16.7756,28.9449 0,8.05906 3.05512,14.8898 9.05512,20.5 6,5.66929 14.7205,8.5 26.1102,8.5 15.4449,0 28.1102,-5.61024 38,-16.7756 9.94488,-11.1654 14.8898,-24.3346 14.8898,-39.3898 0,-3.05512 -0.165354,-6.61024 -0.444882,-10.7795zm188.614 -82.1654l-56.8346 164.39 -26.5 0 -58.7756 -164.39 28.3307 0 45.7244 133.61 45.2795 -133.61 22.7756 0zm155.055 164.39l-25.3898 0c-0.944882,-5.22047 -1.94488,-15.0551 -2.88976,-29.6102 -11.3346,22.6654 -30.5,34 -57.6654,34 -18.4449,0 -32.5551,-4.88976 -42.4449,-14.6693 -9.88976,-9.72047 -14.8346,-21.4409 -14.8346,-35.1102 0,-16.6102 7.05512,-30.2756 21.1654,-40.9449 14.1142,-10.7205 38.1142,-16.0551 71.9449,-16.0551 4.55906,0 11.8346,0.224409 21.8346,0.665354 0,-13 -1,-22.4409 -3.05512,-28.2205 -2,-5.83465 -6.22047,-10.4449 -12.7795,-13.9449 -6.5,-3.44488 -15.0551,-5.22047 -25.6654,-5.22047 -25.9449,0 -41.0551,9.88583 -45.2795,29.6654l-23.6102 -4.11024c5.77953,-30.2795 29.9449,-45.3898 72.6142,-45.3898 22.6654,0 38.7756,5 48.2756,15.0551 9.44488,10.0551 14.2244,27.4449 14.2244,52.1654l0 69.8346c0,11.6102 1.16535,22.2244 3.55512,31.8898zm-28.2795 -82.2244c-10.4449,-0.610236 -18.3346,-0.940945 -23.7756,-0.940945 -20.1693,0 -35.8898,3.27559 -47.0591,9.94094 -11.1654,6.61417 -16.7756,16.2795 -16.7756,28.9449 0,8.05906 3.05512,14.8898 9.05512,20.5 6,5.66929 14.7205,8.5 26.1102,8.5 15.4449,0 28.1102,-5.61024 38,-16.7756 9.94488,-11.1654 14.8898,-24.3346 14.8898,-39.3898 0,-3.05512 -0.165354,-6.61024 -0.444882,-10.7795zm128.724 -11.0551l0 19.8898 -73.5551 0 0 -19.8898 73.5551 0zm32.7244 93.2795l0 -222.169 74.5551 0c31.3346,0 55.7756,10.6693 73.2205,32.0591 17.5,21.3858 26.2244,47.5551 26.2244,78.4449 0,31.3858 -8.55512,57.8307 -25.5551,79.3307 -17.0551,21.5551 -38.6142,32.3346 -64.7795,32.3346l-83.6654 0zm27.8307 -23.6102l45.0591 0c23.8858,0 42,-8.22441 54.3858,-24.7244 12.3898,-16.5 18.5591,-38.2756 18.5591,-65.2756 0,-21.8898 -5.88976,-41.6142 -17.6693,-59.0591 -11.7756,-17.5 -30.1654,-26.2205 -55.2756,-26.2205l-45.0591 0 0 175.28zm314.283 23.6102l-25.3898 0c-0.944882,-5.22047 -1.94488,-15.0551 -2.88976,-29.6102 -11.3346,22.6654 -30.5,34 -57.6654,34 -18.4449,0 -32.5551,-4.88976 -42.4449,-14.6693 -9.88976,-9.72047 -14.8346,-21.4409 -14.8346,-35.1102 0,-16.6102 7.05512,-30.2756 21.1654,-40.9449 14.1142,-10.7205 38.1142,-16.0551 71.9449,-16.0551 4.55906,0 11.8346,0.224409 21.8346,0.665354 0,-13 -1,-22.4409 -3.05512,-28.2205 -2,-5.83465 -6.22047,-10.4449 -12.7795,-13.9449 -6.5,-3.44488 -15.0551,-5.22047 -25.6654,-5.22047 -25.9449,0 -41.0551,9.88583 -45.2795,29.6654l-23.6102 -4.11024c5.77953,-30.2795 29.9449,-45.3898 72.6142,-45.3898 22.6654,0 38.7756,5 48.2756,15.0551 9.44488,10.0551 14.2244,27.4449 14.2244,52.1654l0 69.8346c0,11.6102 1.16535,22.2244 3.55512,31.8898zm-28.2795 -82.2244c-10.4449,-0.610236 -18.3346,-0.940945 -23.7756,-0.940945 -20.1693,0 -35.8898,3.27559 -47.0591,9.94094 -11.1654,6.61417 -16.7756,16.2795 -16.7756,28.9449 0,8.05906 3.05512,14.8898 9.05512,20.5 6,5.66929 14.7205,8.5 26.1102,8.5 15.4449,0 28.1102,-5.61024 38,-16.7756 9.94488,-11.1654 14.8898,-24.3346 14.8898,-39.3898 0,-3.05512 -0.165354,-6.61024 -0.444882,-10.7795zm150.39 64.6693l0 20.1654c-9,1.16929 -16.8307,1.77953 -23.4449,1.77953 -31.7756,0 -47.7205,-16.6102 -47.7205,-49.7795l0 -99 -29.1102 0 0 -20 29.1102 0 1.16535 -41.3346 23.7795 -2.27559 0 43.6102 36.7756 0 0 20 -36.7756 0 0 103.224c0,16.8858 8.77559,25.3858 26.3346,25.3858 5.88583,0 12.5,-0.610236 19.8858,-1.77559zm130.835 -31.4449l23.7795 4.88976c-4.33465,14 -12.8346,25.6102 -25.3898,34.7756 -12.6102,9.16929 -27.3898,13.7244 -44.4449,13.7244 -22.4449,0 -40.6102,-7.88976 -54.5,-23.6693 -13.8898,-15.7756 -20.8346,-36.5 -20.8346,-62.1102 0,-26.1654 7.16929,-47.2756 21.6142,-63.3898 14.4449,-16.1102 32.5551,-24.1654 54.3898,-24.1654 21.4409,0 38.7205,7.44488 51.8307,22.2795 13.0551,14.8858 19.7795,37.1102 20.1102,66.7756l-119.5 0c0,24.8346 5.22441,41.6102 15.6142,50.2795 10.4449,8.66535 21.4449,13 33.0551,13 20.9449,0 35.7205,-10.7795 44.2756,-32.3898zm-1.44488 -49.9449c-0.220472,-9.22047 -1.77559,-17.4449 -4.55512,-24.6102 -2.83071,-7.16929 -7.61024,-13.2244 -14.3307,-18.2795 -6.72441,-5.05512 -14.8346,-7.55512 -24.2795,-7.55512 -12.6654,0 -23.4449,4.55512 -32.2756,13.6654 -8.83465,9.11417 -13.8346,21.3346 -14.8898,36.7795l90.3307 0zm92.7795 -123.224l0 28.3346 -27.5551 0 0 -28.3346 27.5551 0zm-0.834646 57.7795l0 164.39 -25.5551 0 0 -164.39 25.5551 0zm159.5 115.39l23.7795 4.88976c-4.33465,14 -12.8346,25.6102 -25.3898,34.7756 -12.6102,9.16929 -27.3898,13.7244 -44.4449,13.7244 -22.4449,0 -40.6102,-7.88976 -54.5,-23.6693 -13.8898,-15.7756 -20.8346,-36.5 -20.8346,-62.1102 0,-26.1654 7.16929,-47.2756 21.6142,-63.3898 14.4449,-16.1102 32.5551,-24.1654 54.3898,-24.1654 21.4409,0 38.7205,7.44488 51.8307,22.2795 13.0551,14.8858 19.7795,37.1102 20.1102,66.7756l-119.5 0c0,24.8346 5.22441,41.6102 15.6142,50.2795 10.4449,8.66535 21.4449,13 33.0551,13 20.9449,0 35.7205,-10.7795 44.2756,-32.3898zm-1.44488 -49.9449c-0.220472,-9.22047 -1.77559,-17.4449 -4.55512,-24.6102 -2.83071,-7.16929 -7.61024,-13.2244 -14.3307,-18.2795 -6.72441,-5.05512 -14.8346,-7.55512 -24.2795,-7.55512 -12.6654,0 -23.4449,4.55512 -32.2756,13.6654 -8.83465,9.11417 -13.8346,21.3346 -14.8898,36.7795l90.3307 0zm195.945 98.9449l-23.9449 0 0 -105.61c0,-15.2244 -3.27559,-25.8898 -9.88583,-32.1142 -6.66929,-6.16535 -14.6693,-9.27559 -24.1142,-9.27559 -13,0 -23.9409,5.22047 -32.7756,15.6654 -8.83465,10.3898 -13.2795,24.1102 -13.2795,41.1693l0 90.1654 -25.5551 0 0 -164.39 23.7795 0 0 30.2795c13.3307,-23.2244 30.6102,-34.8346 51.8898,-34.8346 12.2756,0 22.7205,3.16535 31.3307,9.5 8.66929,6.38976 14.5551,13.5 17.7795,21.4449 3.16535,7.88976 4.77559,22.2205 4.77559,42.9449l0 95.0551z"/>
  <path class="fil3" d="M9852.4 2511.78l-1402.56 1121.37 -126.075 -157.705 -280.669 650.453 696.291 -130.614 -126.087 -157.697 1402.57 -1121.35 -163.472 -204.453zm-701.264 560.681m-764.323 481.843m-203.398 246.378m207.839 259.913m285.098 -144.154m638.232 -639.539m619.547 -662.89"/>
  <path class="fil3" d="M10077.6 1613.94l-12.3898 0 0 -222.169 25.5551 0 0 85.1142c11.7244,-21.2795 27.8898,-31.8898 48.5,-31.8898 18.8898,0 34.6693,7.44488 47.4449,22.2795 12.7244,14.8858 19.1102,36.5 19.1102,64.7756 0,24.4449 -6.27559,44.8898 -18.7756,61.4449 -12.5551,16.5551 -28.8346,24.8346 -48.9449,24.8346 -22.3346,0 -39.4449,-10.5 -51.3898,-31.5551l-9.11024 27.1654zm13.1654 -64.4449c1.16929,16.8346 6.38976,29 15.5551,36.6102 9.16929,7.61417 18.8346,11.3898 29.0591,11.3898 13,0 23.5,-5.61024 31.5,-16.9449 7.94094,-11.2756 11.9409,-26.7205 11.9409,-46.3898 0,-21.1102 -3.83071,-37.7756 -11.5551,-49.8858 -7.72047,-12.0591 -18.3858,-18.1142 -32.0551,-18.1142 -10.7756,0 -20.4449,4.27953 -29.0551,12.9449 -8.61024,8.61024 -13.7795,19.7795 -15.3898,33.4449l0 36.9449zm179.89 -157.724l0 28.3346 -27.5551 0 0 -28.3346 27.5551 0zm-0.834646 57.7795l0 164.39 -25.5551 0 0 -164.39 25.5551 0zm180.5 164.39l-23.9449 0 0 -105.61c0,-15.2244 -3.27559,-25.8898 -9.88583,-32.1142 -6.66929,-6.16535 -14.6693,-9.27559 -24.1142,-9.27559 -13,0 -23.9409,5.22047 -32.7756,15.6654 -8.83465,10.3898 -13.2795,24.1102 -13.2795,41.1693l0 90.1654 -25.5551 0 0 -164.39 23.7795 0 0 30.2795c13.3307,-23.2244 30.6102,-34.8346 51.8898,-34.8346 12.2756,0 22.7205,3.16535 31.3307,9.5 8.66929,6.38976 14.5551,13.5 17.7795,21.4449 3.16535,7.88976 4.77559,22.2205 4.77559,42.9449l0 95.0551zm179.839 0l-25.3898 0c-0.944882,-5.22047 -1.94488,-15.0551 -2.88976,-29.6102 -11.3346,22.6654 -30.5,34 -57.6654,34 -18.4449,0 -32.5551,-4.88976 -42.4449,-14.6693 -9.88976,-9.72047 -14.8346,-21.4409 -14.8346,-35.1102 0,-16.6102 7.05512,-30.2756 21.1654,-40.9449 14.1142,-10.7205 38.1142,-16.0551 71.9449,-16.0551 4.55906,0 11.8346,0.224409 21.8346,0.665354 0,-13 -1,-22.4409 -3.05512,-28.2205 -2,-5.83465 -6.22047,-10.4449 -12.7795,-13.9449 -6.5,-3.44488 -15.0551,-5.22047 -25.6654,-5.22047 -25.9449,0 -41.0551,9.88583 -45.2795,29.6654l-23.6102 -4.11024c5.77953,-30.2795 29.9449,-45.3898 72.6142,-45.3898 22.6654,0 38.7756,5 48.2756,15.0551 9.44488,10.0551 14.2244,27.4449 14.2244,52.1654l0 69.8346c0,11.6102 1.16535,22.2244 3.55512,31.8898zm-28.2795 -82.2244c-10.4449,-0.610236 -18.3346,-0.940945 -23.7756,-0.940945 -20.1693,0 -35.8898,3.27559 -47.0591,9.94094 -11.1654,6.61417 -16.7756,16.2795 -16.7756,28.9449 0,8.05906 3.05512,14.8898 9.05512,20.5 6,5.66929 14.7205,8.5 26.1102,8.5 15.4449,0 28.1102,-5.61024 38,-16.7756 9.94488,-11.1654 14.8898,-24.3346 14.8898,-39.3898 0,-3.05512 -0.165354,-6.61024 -0.444882,-10.7795zm4.33465 -130c0,4.66929 -1.66929,8.61417 -5.11024,11.8898 -3.38976,3.22441 -7.44488,4.83465 -12.1142,4.83465 -4.66535,0 -8.72047,-1.61024 -12.1102,-4.83465 -3.44488,-3.27559 -5.16535,-7.16535 -5.16535,-11.7205 0,-4.66929 1.72047,-8.61417 5.16535,-11.8346 3.38976,-3.16535 7.38976,-4.77953 11.9449,-4.77953 4.77953,0 8.88976,1.61417 12.2795,4.77953 3.44094,3.22047 5.11024,7.11024 5.11024,11.6654zm-52.3898 0.169291c0,4.55512 -1.72047,8.44488 -5.11024,11.7205 -3.44488,3.22441 -7.44488,4.83465 -12,4.83465 -4.55512,0 -8.44488,-1.61024 -11.7795,-4.83465 -3.33465,-3.27559 -4.94488,-7.11024 -4.94488,-11.5551 0,-4.66535 1.61024,-8.61024 4.94488,-11.8346 3.33465,-3.16535 7.05512,-4.77559 11.3346,-4.77559 5.16535,0 9.44488,1.61024 12.6654,4.88976 3.27953,3.22047 4.88976,7.11024 4.88976,11.5551zm149.445 212.055l-25.5551 0 0 -164.39 22.4449 0 0 38.3898c7.94488,-18.1102 15.8898,-29.8346 23.8346,-35.2244 8,-5.38583 16.1654,-8.05512 24.5,-8.05512 2.61024,0 6,0.224409 10.1102,0.669291l0 24.3858 -5.22047 0c-14.1142,0 -25.8346,5.27953 -35.1693,15.7795 -9.33071,10.5551 -14.2756,24.3898 -14.9449,41.5551l0 86.8898zm192.89 -49l23.7795 4.88976c-4.33465,14 -12.8346,25.6102 -25.3898,34.7756 -12.6102,9.16929 -27.3898,13.7244 -44.4449,13.7244 -22.4449,0 -40.6102,-7.88976 -54.5,-23.6693 -13.8898,-15.7756 -20.8346,-36.5 -20.8346,-62.1102 0,-26.1654 7.16929,-47.2756 21.6142,-63.3898 14.4449,-16.1102 32.5551,-24.1654 54.3898,-24.1654 21.4409,0 38.7205,7.44488 51.8307,22.2795 13.0551,14.8858 19.7795,37.1102 20.1102,66.7756l-119.5 0c0,24.8346 5.22441,41.6102 15.6142,50.2795 10.4449,8.66535 21.4449,13 33.0551,13 20.9449,0 35.7205,-10.7795 44.2756,-32.3898zm-1.44488 -49.9449c-0.220472,-9.22047 -1.77559,-17.4449 -4.55512,-24.6102 -2.83071,-7.16929 -7.61024,-13.2244 -14.3307,-18.2795 -6.72441,-5.05512 -14.8346,-7.55512 -24.2795,-7.55512 -12.6654,0 -23.4449,4.55512 -32.2756,13.6654 -8.83465,9.11417 -13.8346,21.3346 -14.8898,36.7795l90.3307 0zm-1254.61 476.89l0 -222.169 87.8898 0c22.1102,0 38.5551,5.44488 49.2205,16.2795 10.7244,10.8346 16.0551,23.4449 16.0551,37.7795 0,25.1654 -13.1654,41.8858 -39.3898,50.1102 15.6142,4 27.2244,11.1654 34.8346,21.5 7.61024,10.2756 11.3898,21.9449 11.3898,35 0,17.4449 -5.88976,32.0551 -17.6654,43.8346 -11.7795,11.7756 -29.9449,17.6654 -54.4449,17.6654l-87.8898 0zm26.8307 -126.945l48.3898 0c20.0551,0 33.4449,-3.83465 40.1693,-11.5 6.72047,-7.61024 10.1102,-16.6102 10.1102,-26.9449 0,-10.1654 -3.61024,-18.4449 -10.8346,-24.7205 -7.22047,-6.27953 -18,-9.44488 -32.3346,-9.44488l-55.5 0 0 72.6102zm0 102.555l59.6142 0c14.5,0 25.7756,-3.55512 33.6654,-10.6102 7.94488,-7.05512 11.8898,-16.2205 11.8898,-27.5 0,-7.94488 -1.77953,-15.2795 -5.38976,-22.0551 -3.55512,-6.77953 -8.61024,-12 -15.1102,-15.7244 -6.5,-3.66535 -16.2244,-5.5 -29.1693,-5.5l-55.5 0 0 81.3898zm198.78 -197.78l0 28.3346 -27.5551 0 0 -28.3346 27.5551 0zm-0.834646 57.7795l0 164.39 -25.5551 0 0 -164.39 25.5551 0zm63.3346 164.39l-12.3898 0 0 -222.169 25.5551 0 0 85.1142c11.7244,-21.2795 27.8898,-31.8898 48.5,-31.8898 18.8898,0 34.6693,7.44488 47.4449,22.2795 12.7244,14.8858 19.1102,36.5 19.1102,64.7756 0,24.4449 -6.27559,44.8898 -18.7756,61.4449 -12.5551,16.5551 -28.8346,24.8346 -48.9449,24.8346 -22.3346,0 -39.4449,-10.5 -51.3898,-31.5551l-9.11024 27.1654zm13.1654 -64.4449c1.16929,16.8346 6.38976,29 15.5551,36.6102 9.16929,7.61417 18.8346,11.3898 29.0591,11.3898 13,0 23.5,-5.61024 31.5,-16.9449 7.94094,-11.2756 11.9409,-26.7205 11.9409,-46.3898 0,-21.1102 -3.83071,-37.7756 -11.5551,-49.8858 -7.72047,-12.0591 -18.3858,-18.1142 -32.0551,-18.1142 -10.7756,0 -20.4449,4.27953 -29.0551,12.9449 -8.61024,8.61024 -13.7795,19.7795 -15.3898,33.4449l0 36.9449zm179.055 64.4449l-25.5551 0 0 -222.169 25.5551 0 0 222.169zm77.5 -222.169l0 28.3346 -27.5551 0 0 -28.3346 27.5551 0zm-0.834646 57.7795l0 164.39 -25.5551 0 0 -164.39 25.5551 0zm109.89 168.78c-22.6102,0 -40.2205,-8.33465 -52.8346,-25.0551 -12.6654,-16.7244 -18.9449,-37.4449 -18.9449,-62.1693 0,-26.1654 7.05906,-47.0551 21.2795,-62.6654 14.2205,-15.6102 31.9449,-23.4449 53.0551,-23.4449 22.7244,0 40.5551,8.22047 53.6693,24.6654 13.0551,16.4449 19.6102,36.9449 19.6102,61.6142 0,25.6102 -7.05512,46.5 -21.1693,62.7205 -14.1102,16.2244 -32.3307,24.3346 -54.6654,24.3346zm1.94488 -21c13,0 23.8898,-5.38976 32.7205,-16.1102 8.77953,-10.7244 13.1693,-27.4449 13.1693,-50.1142 0,-22.7756 -4.61024,-39.3307 -13.8346,-49.5551 -9.22047,-10.2756 -20.0551,-15.3898 -32.3898,-15.3898 -12.7205,0 -23.4449,5.16929 -32.2205,15.5551 -8.77953,10.3346 -13.2244,26.7795 -13.2244,49.2244 0,23.7756 4.44488,40.7795 13.2244,51 8.77559,10.2795 19.6102,15.3898 32.5551,15.3898zm184.224 -0.944882l0 20.1654c-9,1.16929 -16.8307,1.77953 -23.4449,1.77953 -31.7756,0 -47.7205,-16.6102 -47.7205,-49.7795l0 -99 -29.1102 0 0 -20 29.1102 0 1.16535 -41.3346 23.7795 -2.27559 0 43.6102 36.7756 0 0 20 -36.7756 0 0 103.224c0,16.8858 8.77559,25.3858 26.3346,25.3858 5.88583,0 12.5,-0.610236 19.8858,-1.77559zm156.89 17.5551l-25.5551 0 0 -99.7795c0,-11.7205 -0.724409,-20.5 -2.16535,-26.3858 -1.5,-5.83465 -4.94488,-10.8898 -10.4449,-15.1693 -5.44488,-4.33071 -11.7795,-6.44488 -18.9449,-6.44488 -13.1102,0 -24.1102,5.38976 -32.9449,16.1142 -8.83465,10.7205 -13.2795,25.1102 -13.2795,43.1102l0 88.5551 -25.5551 0 0 -222.169 25.5551 0 0 88.0591c11.6142,-23.2244 28.2244,-34.8346 49.7795,-34.8346 9.66535,0 18.2756,1.88976 25.8346,5.72047 7.55512,3.77953 13.3307,8.77953 17.3307,14.9449 4,6.16929 6.72441,12.2795 8.22441,18.3346 1.44488,6 2.16535,16.0551 2.16535,30.1654l0 99.7795zm159.665 -49l23.7795 4.88976c-4.33465,14 -12.8346,25.6102 -25.3898,34.7756 -12.6102,9.16929 -27.3898,13.7244 -44.4449,13.7244 -22.4449,0 -40.6102,-7.88976 -54.5,-23.6693 -13.8898,-15.7756 -20.8346,-36.5 -20.8346,-62.1102 0,-26.1654 7.16929,-47.2756 21.6142,-63.3898 14.4449,-16.1102 32.5551,-24.1654 54.3898,-24.1654 21.4409,0 38.7205,7.44488 51.8307,22.2795 13.0551,14.8858 19.7795,37.1102 20.1102,66.7756l-119.5 0c0,24.8346 5.22441,41.6102 15.6142,50.2795 10.4449,8.66535 21.4449,13 33.0551,13 20.9449,0 35.7205,-10.7795 44.2756,-32.3898zm-1.44488 -49.9449c-0.220472,-9.22047 -1.77559,-17.4449 -4.55512,-24.6102 -2.83071,-7.16929 -7.61024,-13.2244 -14.3307,-18.2795 -6.72441,-5.05512 -14.8346,-7.55512 -24.2795,-7.55512 -12.6654,0 -23.4449,4.55512 -32.2756,13.6654 -8.83465,9.11417 -13.8346,21.3346 -14.8898,36.7795l90.3307 0zm202.114 98.9449l-26.5 0 -48 -91.7795 -35.6693 41 0 50.7795 -25.5551 0 0 -222.169 25.5551 0 0 142.28 76.3346 -84.5 27.3346 0 -51.4449 57.7795 57.9449 106.61zm132.496 -49l23.7795 4.88976c-4.33465,14 -12.8346,25.6102 -25.3898,34.7756 -12.6102,9.16929 -27.3898,13.7244 -44.4449,13.7244 -22.4449,0 -40.6102,-7.88976 -54.5,-23.6693 -13.8898,-15.7756 -20.8346,-36.5 -20.8346,-62.1102 0,-26.1654 7.16929,-47.2756 21.6142,-63.3898 14.4449,-16.1102 32.5551,-24.1654 54.3898,-24.1654 21.4409,0 38.7205,7.44488 51.8307,22.2795 13.0551,14.8858 19.7795,37.1102 20.1102,66.7756l-119.5 0c0,24.8346 5.22441,41.6102 15.6142,50.2795 10.4449,8.66535 21.4449,13 33.0551,13 20.9449,0 35.7205,-10.7795 44.2756,-32.3898zm-1.44488 -49.9449c-0.220472,-9.22047 -1.77559,-17.4449 -4.55512,-24.6102 -2.83071,-7.16929 -7.61024,-13.2244 -14.3307,-18.2795 -6.72441,-5.05512 -14.8346,-7.55512 -24.2795,-7.55512 -12.6654,0 -23.4449,4.55512 -32.2756,13.6654 -8.83465,9.11417 -13.8346,21.3346 -14.8898,36.7795l90.3307 0zm195.945 98.9449l-23.9449 0 0 -105.61c0,-15.2244 -3.27559,-25.8898 -9.88583,-32.1142 -6.66929,-6.16535 -14.6693,-9.27559 -24.1142,-9.27559 -13,0 -23.9409,5.22047 -32.7756,15.6654 -8.83465,10.3898 -13.2795,24.1102 -13.2795,41.1693l0 90.1654 -25.5551 0 0 -164.39 23.7795 0 0 30.2795c13.3307,-23.2244 30.6102,-34.8346 51.8898,-34.8346 12.2756,0 22.7205,3.16535 31.3307,9.5 8.66929,6.38976 14.5551,13.5 17.7795,21.4449 3.16535,7.88976 4.77559,22.2205 4.77559,42.9449l0 95.0551zm-1362.56 341.5l0 36.4449 -36.2795 0 0 -36.4449 36.2795 0zm177.39 -185.724l0 222.169 -23.2205 0 0 -28.1654c-11.5,21.7205 -28.8346,32.5551 -51.9449,32.5551 -19.2244,0 -35,-8.05512 -47.3898,-24.1693 -12.3346,-16.1102 -18.5551,-36.5 -18.5551,-61.1102 0,-25.1654 6.16535,-46.1654 18.4449,-62.8898 12.2205,-16.7756 28.5,-25.1654 48.7756,-25.1654 19.7795,0 35.8898,9 48.3898,27l0 -80.2244 25.5 0zm-25.5 121.28c0,-14.4449 -4.44488,-26 -13.2205,-34.6654 -8.77953,-8.72441 -19.0591,-13.0551 -30.7244,-13.0551 -12.7205,0 -23.1654,5.66535 -31.3346,16.9449 -8.22047,11.2756 -12.3307,27.1102 -12.3307,47.5 0,22.0551 3.77559,38.8307 11.3307,50.3307 7.55906,11.5 17.8898,17.2244 31,17.2244 11.9449,0 22.4449,-5 31.5591,-14.9449 9.16535,-10 13.7205,-21.7244 13.7205,-35.1693l0 -34.1654zm102.165 100.89l-25.5551 0 0 -222.169 25.5551 0 0 222.169zm76.6654 0l-25.5551 0 0 -222.169 25.5551 0 0 222.169zm115.055 55.5l-21.7756 0 134.11 -277.669 21.7795 0 -134.114 277.669zm288.449 -91.9449l0 36.4449 -36.2795 0 0 -36.4449 36.2795 0zm26.8898 -6.22047l24.3898 -5c5.44488,20.7205 22.5551,31.0551 51.4449,31.0551 10.6102,0 19.6102,-2.38976 27,-7.16929 7.38583,-4.77559 11.0551,-11.5 11.0551,-20.1654 0,-12.8898 -9.38976,-21.1102 -28.1693,-24.5551l-34.6654 -6.55512c-13.5551,-2.55512 -24.3346,-7.66929 -32.3898,-15.2795 -8,-7.61024 -12,-17.6102 -12,-30.1102 0,-13.7795 5.44488,-25.3346 16.4449,-34.6102 10.9449,-9.27953 25.6654,-13.8898 44.2244,-13.8898 35.7205,0 57.7205,13.9449 66.1102,41.8346l-23.4449 5.05512c-6.72047,-17.1693 -20.5551,-25.7244 -41.5,-25.7244 -10.4449,0 -18.9449,2.11417 -25.6102,6.44488 -6.72441,4.27953 -10.0551,10.2795 -10.0551,17.9449 0,12.1654 8.55512,19.8346 25.5551,22.9449l32.0551 5.72047c33.5551,6.05906 50.3346,22.2795 50.3346,48.6693 0,15.0551 -6.27953,27.2756 -18.7244,36.5551 -12.5,9.27953 -29.1102,13.8898 -49.8346,13.8898 -38.9449,0 -63,-15.6693 -72.2205,-47.0551zm235.665 47.0551c-22.6102,0 -40.2205,-8.33465 -52.8346,-25.0551 -12.6654,-16.7244 -18.9449,-37.4449 -18.9449,-62.1693 0,-26.1654 7.05906,-47.0551 21.2795,-62.6654 14.2205,-15.6102 31.9449,-23.4449 53.0551,-23.4449 22.7244,0 40.5551,8.22047 53.6693,24.6654 13.0551,16.4449 19.6102,36.9449 19.6102,61.6142 0,25.6102 -7.05512,46.5 -21.1693,62.7205 -14.1102,16.2244 -32.3307,24.3346 -54.6654,24.3346zm1.94488 -21c13,0 23.8898,-5.38976 32.7205,-16.1102 8.77953,-10.7244 13.1693,-27.4449 13.1693,-50.1142 0,-22.7756 -4.61024,-39.3307 -13.8346,-49.5551 -9.22047,-10.2756 -20.0551,-15.3898 -32.3898,-15.3898 -12.7205,0 -23.4449,5.16929 -32.2205,15.5551 -8.77953,10.3346 -13.2244,26.7795 -13.2244,49.2244 0,23.7756 4.44488,40.7795 13.2244,51 8.77559,10.2795 19.6102,15.3898 32.5551,15.3898z"/>
  <rect class="fil0 str1" x="7004.69" y="4215.5" width="1387.84" height="642.898"/>
  <path class="fil4" d="M10155.8 4387.85l-933.398 3.03937 -0.255906 -170.661 -701.496 335.071 702.488 330.496 -0.255906 -170.661 933.402 -3.03543 -0.484252 -324.248zm-466.697 1.51969m-466.827 -83.811m-350.874 82.2047m0.492126 332.783m351.118 79.9173m466.571 -86.8465m466.461 -163.642"/>
  <path class="fil4" d="M10622.6 4447.44l0 154.28c0,26.9449 -6.05512,45.7244 -18.2205,56.3346 -12.1693,10.6102 -28.2795,15.9449 -48.3346,15.9449 -10.7244,0 -21.5551,-1.44488 -32.3898,-4.38976l0 -22.7795c10.6102,2.16929 20.2795,3.22441 28.9449,3.22441 12.3898,0 21.5,-1.83465 27.3898,-5.5 5.83071,-3.72441 9.77559,-8.5 11.7756,-14.3346 2,-5.83071 3,-15.3307 3,-28.5l0 -154.28 27.8346 0z"/>
  <path class="fil4" d="M10839.5 4669.61l-27 0 -114.89 -193.669 0.279528 14.6142c0.330709,5.55512 0.5,10.2205 0.5,14l0 165.055 -22.4449 0 0 -222.169 34.8307 0 107.445 181.169 -0.330709 -15.5c-0.224409,-6.05512 -0.334646,-11.4449 -0.334646,-16.1102l0 -149.559 21.9449 0 0 222.169z"/>
  <path class="fil4" d="M10922.8 4669.61l-27.8307 0 0 -222.169 27.8307 0 0 222.169z"/>
 </g>
</svg>
