<?xml version="1.0" encoding="iso-8859-1"?>
<!DOCTYPE svg PUBLIC "-//W3C//DTD SVG 1.0//EN" "http://www.w3.org/TR/2001/REC-SVG-20010904/DTD/svg10.dtd">
<!-- Creator: CorelDRAW -->
<svg xmlns="http://www.w3.org/2000/svg" xmlns:odm="http://product.corel.com/CGS/11/cddns/" xmlns:corel-charset="http://product.corel.com/CGS/11/cddns/" xml:space="preserve" width="11.6929in" height="8.26772in" style="shape-rendering:geometricPrecision; text-rendering:geometricPrecision; image-rendering:optimizeQuality; fill-rule:evenodd"
     viewBox="0 0 11692.9 8267.72">
 <defs>
  <style type="text/css">
   <![CDATA[
    .fil0 {fill:#1F1A17}
   ]]>
  </style>
 </defs>
 <g id="Ebene_x0020_1">
  <path class="fil0" d="M4878.09 189.343l0 230.276c0,40.2165 -9.03937,68.2441 -27.2008,84.0827 -18.1575,15.8386 -42.2047,23.7992 -72.1417,23.7992 -16.0039,0 -32.1732,-2.15748 -48.3425,-6.55118l0 -33.9961c15.8386,3.23228 30.2677,4.80709 43.2008,4.80709 18.4921,0 32.0906,-2.73622 40.8819,-8.20866 8.70866,-5.55512 14.5945,-12.689 17.5787,-21.3937 2.98425,-8.70866 4.48031,-22.8858 4.48031,-42.5394l0 -230.276 41.5433 0z"/>
  <path class="fil0" d="M5201.9 520.949l-40.2992 0 -171.484 -289.067 0.417323 21.811c0.496063,8.29134 0.744094,15.2559 0.744094,20.8937l0 246.362 -33.5 0 0 -331.606 51.9921 0 160.37 270.409 -0.496063 -23.1339c-0.330709,-9.03937 -0.496063,-17.0827 -0.496063,-24.0472l0 -223.228 32.752 0 0 331.606z"/>
  <path class="fil0" d="M5326.28 520.949l-41.5433 0 0 -331.606 41.5433 0 0 331.606z"/>
  <path class="fil0" d="M5484.67 381.724l0 29.685 -109.791 0 0 -29.685 109.791 0z"/>
  <path class="fil0" d="M5769.58 520.949l-42.4528 0 -33.5866 -96.937 -122.638 0 -29.689 96.937 -34.6614 0 107.551 -331.606 47.4291 0 108.047 331.606zm-84.7441 -128.031l-50.9961 -159.374 -51.4961 159.374 102.492 0z"/>
  <path class="fil0" d="M5994.55 520.949l-34.2441 0 0 -46.8504c-17.4961,35.5748 -43.5354,53.4016 -78.1969,53.4016 -25.126,0 -44.8622,-8.29134 -59.2047,-24.7953 -14.3465,-16.5 -21.4764,-39.9685 -21.4764,-70.3976l0 -156.724 38.1417 0 0 156.724c0,24.2953 5.05906,40.9606 15.1772,50.1654 10.1142,9.12205 21.2244,13.6811 33.4173,13.6811 12.2717,0 23.4646,-3.48031 33.4173,-10.4449 9.94882,-6.9685 18.2402,-16.8346 24.874,-29.7717 6.63386,-12.8504 9.95276,-26.8661 9.95276,-42.122l0 -138.232 38.1417 0 0 245.366z"/>
  <path class="fil0" d="M6172.67 275.583l0 29.8504 -58.378 0 0 215.516 -38.1417 0 0 -215.516 -41.7126 0 0 -29.8504 41.7126 0c0.661417,-39.3858 8.29134,-64.6772 22.7205,-76.0394 14.5079,-11.3583 32.2559,-17 53.0669,-17 10.2835,0 21.8937,1.16142 34.9961,3.40157l0 30.3504c-8.2126,-2.0748 -16.0866,-3.15354 -23.5512,-3.15354 -16.6693,0 -29.0236,3.73228 -37.0669,11.0315 -7.96063,7.37795 -12.0236,21.2244 -12.0236,41.4606l0 9.94882 58.378 0z"/>
  <path class="fil0" d="M6238.51 520.949l-18.4882 0 0 -331.606 38.1417 0 0 127.039c17.4961,-31.7598 41.626,-47.5984 72.3898,-47.5984 28.1969,0 51.7441,11.1102 70.8189,33.252 18.9882,22.2244 28.5236,54.4803 28.5236,96.685 0,36.4882 -9.37008,67.0039 -28.0276,91.7126 -18.7402,24.7126 -43.0354,37.0669 -73.0551,37.0669 -33.3346,0 -58.874,-15.6732 -76.7008,-47.0984l-13.6024 40.5472zm19.6535 -96.189c1.74016,25.126 9.53543,43.2835 23.2205,54.6457 13.6811,11.3583 28.1102,17 43.3661,17 19.4055,0 35.0748,-8.37795 47.0157,-25.2913 11.8583,-16.8346 17.8307,-39.8858 17.8307,-69.2402 0,-31.5118 -5.72441,-56.3898 -17.248,-74.4646 -11.5276,-17.9961 -27.4488,-27.0315 -47.8465,-27.0315 -16.0866,0 -30.5157,6.38189 -43.3701,19.3189 -12.8504,12.8543 -20.563,29.5197 -22.9685,49.9213l0 55.1417z"/>
  <path class="fil0" d="M6679.41 520.949l-37.8976 0c-1.40945,-7.79528 -2.90157,-22.4724 -4.31102,-44.1969 -16.9173,33.8307 -45.5236,50.748 -86.0748,50.748 -27.5276,0 -48.5906,-7.29921 -63.3504,-21.8937 -14.7598,-14.5079 -22.1417,-32.0039 -22.1417,-52.4055 0,-24.7913 10.5315,-45.1929 31.5945,-61.1142 21.063,-16.0039 56.8858,-23.9646 107.386,-23.9646 6.79921,0 17.6614,0.334646 32.5866,0.996063 0,-19.4016 -1.49213,-33.5 -4.55906,-42.122 -2.98819,-8.70866 -9.2874,-15.5906 -19.0748,-20.815 -9.70079,-5.14173 -22.4724,-7.79528 -38.3071,-7.79528 -38.7244,0 -61.2795,14.7598 -67.5827,44.2795l-35.2441 -6.13386c8.62598,-45.1929 44.6969,-67.748 108.382,-67.748 33.8307,0 57.878,7.46457 72.0591,22.4724 14.0945,15.0079 21.2283,40.9646 21.2283,77.8622l0 104.232c0,17.3307 1.74016,33.1693 5.30709,47.5984zm-42.2087 -122.724c-15.5906,-0.913386 -27.3661,-1.40945 -35.4921,-1.40945 -30.0984,0 -53.5669,4.8937 -70.2323,14.8425 -16.6693,9.86614 -25.0433,24.2953 -25.0433,43.2008 0,12.0236 4.55906,22.2244 13.5157,30.5984 8.95669,8.46063 21.9764,12.689 38.9724,12.689 23.0551,0 41.9606,-8.37402 56.7205,-25.0433 14.8425,-16.6654 22.2205,-36.3189 22.2205,-58.7913 0,-4.55906 -0.248031,-9.86614 -0.661417,-16.0866z"/>
  <path class="fil0" d="M6943.51 520.949l-34.2441 0 0 -46.8504c-17.4961,35.5748 -43.5354,53.4016 -78.1969,53.4016 -25.126,0 -44.8622,-8.29134 -59.2047,-24.7953 -14.3465,-16.5 -21.4764,-39.9685 -21.4764,-70.3976l0 -156.724 38.1417 0 0 156.724c0,24.2953 5.05906,40.9606 15.1772,50.1654 10.1142,9.12205 21.2244,13.6811 33.4173,13.6811 12.2717,0 23.4646,-3.48031 33.4173,-10.4449 9.94882,-6.9685 18.2402,-16.8346 24.874,-29.7717 6.63386,-12.8504 9.95276,-26.8661 9.95276,-42.122l0 -138.232 38.1417 0 0 245.366z"/>
 </g>
</svg>
