<?xml version="1.0" encoding="iso-8859-1"?>
<!DOCTYPE svg PUBLIC "-//W3C//DTD SVG 1.0//EN" "http://www.w3.org/TR/2001/REC-SVG-20010904/DTD/svg10.dtd">
<!-- Creator: CorelDRAW -->
<svg xmlns="http://www.w3.org/2000/svg" xmlns:odm="http://product.corel.com/CGS/11/cddns/" xmlns:corel-charset="http://product.corel.com/CGS/11/cddns/" xml:space="preserve" width="11.6929in" height="3.93701in" style="shape-rendering:geometricPrecision; text-rendering:geometricPrecision; image-rendering:optimizeQuality; fill-rule:evenodd"
     viewBox="0 0 11692.9 3937.01">
 <defs>
  <style type="text/css">
   <![CDATA[
    .str0 {stroke:#1F1A17;stroke-width:3}
    .fil0 {fill:none}
    .fil1 {fill:#1F1A17}
   ]]>
  </style>
 </defs>
 <g id="Ebene_x0020_1">
  <g>
   <path class="fil0 str0" d="M445.516 596.043l4233.36 0 0 2963.35 -4233.36 0 0 -2963.35z"/>
   <path class="fil0 str0" d="M7430.81 596.043l3859.9 0 0 2015.46 -3859.9 0 0 -2015.46z"/>
   <path class="fil1 str0" d="M4680.36 1053.57l2744 0 0 54.8819 -2744 0 0 -54.8819z"/>
   <path class="fil0 str0" d="M925.059 943.602l1454.87 0 0 872.925 -1454.87 0 0 -872.925z"/>
   <path class="fil0 str0" d="M1061.37 2594.67l687.76 0 0 621.63 -687.76 0 0 -621.63z"/>
   <path class="fil0 str0" d="M3837.63 932.957l634.854 0 0 727.437 -634.854 0 0 -727.437z"/>
   <path class="fil1 str0" d="M1496.73 1818.22l-1.55906 778.618 -25.1378 -0.011811 1.55906 -778.622 25.1378 0.015748z"/>
   <path class="fil0 str0" d="M3838.35 935.358l1.66929 -1.45669 630.906 723.724 -1.67323 1.46063 -630.902 -723.728z"/>
   <path class="fil1" d="M1811.79 454.197l21.122 -4.82677c8.47638,25.5276 26.9291,38.2638 55.2638,38.2638 14.8465,0 25.9921,-3.1378 33.4843,-9.36614 7.49606,-6.27559 11.2402,-14.6575 11.2402,-25.1969 0,-7.96063 -2.85433,-14.378 -8.57087,-19.2008 -5.7126,-4.87008 -12.315,-8.19685 -19.811,-10.0236l-37.4646 -9.3189c-9.69685,-2.48425 -17.6102,-5.48031 -23.7913,-8.99213 -6.18504,-3.51181 -11.4291,-8.94488 -15.7362,-16.252 -4.26378,-7.30709 -6.41732,-15.689 -6.41732,-25.1024 0,-15.6417 5.90157,-28.1024 17.7008,-37.4213 11.8031,-9.27165 26.9331,-13.9094 45.3858,-13.9094 34.0472,0 56.4331,15.4094 67.1102,46.2244l-21.2598 6.32283c-2.48425,-10.9567 -8.29134,-19.2953 -17.4252,-24.9134 -9.12992,-5.62205 -18.874,-8.43307 -29.2244,-8.43307 -10.2559,0 -19.3898,2.71654 -27.3976,8.10236 -8.00787,5.38583 -11.9882,13.0197 -11.9882,22.9016 0,13.8189 10.1614,23.1378 30.4409,28.0079l34.9843 8.38189c32.0354,7.6811 48.0512,24.9173 48.0512,51.7047 0,16.2047 -6.03937,29.6496 -18.0276,40.4213 -12.0394,10.7244 -28.9921,16.1102 -50.8622,16.1102 -38.7795,0 -64.3976,-17.8465 -76.8071,-53.4843zm314.299 49.7835l-23.4606 0 0 -89.1732 -86.8307 0 0 89.1732 -23.4646 0 0 -187.287 23.4646 0 0 77.5079 86.8307 0 0 -77.5079 23.4606 0 0 187.287zm153.52 -187.287l19.4843 0 0 122.236c0,24.5394 -5.99606,42.1024 -18.0315,52.7795 -12.0354,10.6339 -27.7717,15.9724 -47.2559,15.9724 -21.6811,0 -37.748,-5.48031 -48.1929,-16.4409 -10.3937,-11.0039 -15.6417,-28.4252 -15.6417,-52.311l0 -122.236 23.4646 0 0 122.236c0,14.563 1.73228,24.8189 5.1063,30.7677 3.37008,5.94882 8.47638,10.3031 15.3622,13.1614 6.83465,2.81102 14.0472,4.25984 21.5433,4.25984 14.4685,0 25.4291,-3.79134 32.9213,-11.4252 7.49606,-7.58661 11.2402,-19.811 11.2402,-36.7638l0 -122.236zm198.295 187.287l-24.5394 0 -34.6102 -81.0709 -53.626 0 0 81.0709 -21.9646 0 0 -187.287 73.811 0c20.0433,0 34.8898,5.47638 44.5394,16.3898 9.64567,10.9134 14.4685,22.9016 14.4685,35.874 0,9.97638 -2.71654,19.5315 -8.10236,28.6654 -5.38583,9.17717 -14.3307,15.689 -26.7402,19.622l36.7638 86.7362zm-112.776 -100.177l48.9882 0c12.878,0 22.5276,-3.37402 28.8504,-10.2087 6.37008,-6.79134 9.55512,-15.1772 9.55512,-25.0591 0,-9.88189 -3.37402,-17.563 -10.0709,-23.0433 -6.74409,-5.47638 -15.2205,-8.24016 -25.4764,-8.24016l-51.8465 0 0 66.5512zm271.402 79.6181l0 20.5591 -121.157 0 0 -187.287 118.535 0 0 20.5591 -95.0709 0 0 59.5709 75.4488 0 0 19.063 -75.4488 0 0 67.5354 97.6929 0zm75.4528 -58.0748l0 16.7677 -62.0079 0 0 -16.7677 62.0079 0zm27.5866 78.6339l0 -187.287 74.0906 0c18.6417,0 32.5039,4.58661 41.4961,13.7205 9.03937,9.13386 13.5354,19.7638 13.5354,31.8465 0,21.2165 -11.1024,35.315 -33.2087,42.2441 13.1614,3.37402 22.9488,9.41339 29.3661,18.126 6.41732,8.66535 9.60236,18.5 9.60236,29.5039 0,14.7087 -4.96457,27.0236 -14.8937,36.9528 -9.92913,9.92913 -25.2441,14.8937 -45.8976,14.8937l-74.0906 0zm22.622 -107.016l40.7913 0c16.9055,0 28.1929,-3.23228 33.8583,-9.69291 5.66929,-6.41732 8.52756,-14.0039 8.52756,-22.7165 0,-8.57087 -3.04724,-15.5472 -9.13386,-20.8425 -6.09055,-5.29134 -15.1732,-7.96063 -27.2598,-7.96063l-46.7835 0 0 61.2126zm0 86.4567l50.252 0c12.2244,0 21.7283,-3 28.3819,-8.94488 6.69685,-5.94882 10.0197,-13.6772 10.0197,-23.185 0,-6.69685 -1.49606,-12.878 -4.54331,-18.5906 -2.99606,-5.71654 -7.25591,-10.1181 -12.7362,-13.2559 -5.48031,-3.09055 -13.6772,-4.6378 -24.5906,-4.6378l-46.7835 0 0 68.6142zm195.016 24.2598c-19.063,0 -33.9094,-7.02756 -44.5394,-21.122 -10.6811,-14.0984 -15.9724,-31.5669 -15.9724,-52.4094 0,-22.0591 5.94882,-39.6654 17.937,-52.8268 11.9921,-13.1614 26.9291,-19.7638 44.7283,-19.7638 19.1535,0 34.189,6.92913 45.2402,20.7953 11.0079,13.8622 16.5315,31.1417 16.5315,51.937 0,21.5906 -5.94488,39.2008 -17.8425,52.874 -11.8937,13.6772 -27.2559,20.5157 -46.0827,20.5157zm1.6378 -17.7047c10.9606,0 20.1378,-4.54331 27.5866,-13.5827 7.39764,-9.03937 11.0984,-23.1339 11.0984,-42.2441 0,-19.2008 -3.88583,-33.1575 -11.6614,-41.7756 -7.77559,-8.66535 -16.9094,-12.9724 -27.3031,-12.9724 -10.7283,0 -19.7638,4.35433 -27.1654,13.1142 -7.40157,8.7126 -11.1457,22.5748 -11.1457,41.4961 0,20.0433 3.74409,34.374 11.1457,42.9921 7.40157,8.66535 16.5315,12.9724 27.4449,12.9724zm203.165 14.0039l-21.4055 0c-0.795276,-4.40157 -1.6378,-12.6929 -2.43307,-24.9606 -9.55512,19.1063 -25.7126,28.6614 -48.6142,28.6614 -15.5512,0 -27.4449,-4.12205 -35.7835,-12.3661 -8.33465,-8.19685 -12.5039,-18.0787 -12.5039,-29.5984 0,-14.0039 5.94882,-25.5236 17.8465,-34.5157 11.8937,-9.03937 32.126,-13.5354 60.6496,-13.5354 3.83858,0 9.97638,0.188976 18.4055,0.562992 0,-10.9606 -0.84252,-18.9213 -2.57874,-23.7913 -1.68504,-4.91732 -5.24409,-8.80709 -10.7717,-11.7559 -5.47638,-2.90551 -12.689,-4.40157 -21.6339,-4.40157 -21.874,0 -34.6102,8.33465 -38.1732,25.0079l-19.9016 -3.46457c4.87008,-25.5276 25.2441,-38.2638 61.2126,-38.2638 19.1063,0 32.689,4.2126 40.6969,12.6929 7.96063,8.47638 11.9882,23.1339 11.9882,43.9764l0 58.8701c0,9.7874 0.984252,18.7323 3,26.8819zm-23.8386 -69.315c-8.80709,-0.515748 -15.4567,-0.795276 -20.0472,-0.795276 -17,0 -30.252,2.76378 -39.6654,8.38189 -9.41339,5.5748 -14.1457,13.7244 -14.1457,24.4016 0,6.79134 2.5748,12.5512 7.63386,17.2835 5.05906,4.77559 12.4094,7.16535 22.0118,7.16535 13.0197,0 23.6969,-4.73228 32.0354,-14.1457 8.38189,-9.41339 12.5512,-20.5118 12.5512,-33.2047 0,-2.5748 -0.141732,-5.5748 -0.374016,-9.08661zm85.4685 69.315l-21.5433 0 0 -138.583 18.9213 0 0 32.3622c6.69685,-15.2677 13.3937,-25.1496 20.0906,-29.6929 6.74409,-4.54331 13.6299,-6.79134 20.6535,-6.79134 2.20079,0 5.05906,0.188976 8.52362,0.562992l0 20.5591 -4.40157 0c-11.8937,0 -21.7756,4.45276 -29.6457,13.3031 -7.86614,8.89764 -12.0354,20.5591 -12.5984,35.0315l0 73.248zm174.783 -187.287l0 187.287 -19.5748 0 0 -23.7441c-9.69685,18.311 -24.3071,27.4449 -43.7913,27.4449 -16.2047,0 -29.5039,-6.79134 -39.9488,-20.374 -10.3976,-13.5827 -15.6417,-30.7677 -15.6417,-51.5157 0,-21.2165 5.19685,-38.9213 15.5472,-53.0157 10.3031,-14.1457 24.0276,-21.2165 41.122,-21.2165 16.6732,0 30.2559,7.58661 40.7913,22.7598l0 -67.626 21.4961 0zm-21.4961 102.236c0,-12.1772 -3.74409,-21.9173 -11.1457,-29.2244 -7.40157,-7.35039 -16.063,-11.0039 -25.8976,-11.0039 -10.7283,0 -19.5315,4.77559 -26.4173,14.2835 -6.92913,9.50787 -10.3976,22.8543 -10.3976,40.0433 0,18.5906 3.18504,32.7362 9.55512,42.4291 6.37008,9.69685 15.0827,14.5197 26.1339,14.5197 10.0709,0 18.9213,-4.2126 26.6024,-12.5984 7.72835,-8.42913 11.5669,-18.311 11.5669,-29.6457l0 -28.8031z"/>
   <path class="fil1" d="M1533.14 1507.4l0 -185.37 21.5433 0 0 77.6535c0,10.1614 0.984252,18.122 2.90551,23.8819 1.92126,5.76378 5.48031,10.8189 10.6299,15.1772 5.15354,4.30709 11.4291,6.50787 18.7362,6.50787 22.4803,0 33.7638,-15.7362 33.7638,-47.2087l0 -76.0118 21.5472 0 0 138.583 -19.626 0 0 -21.685c-8.14961,16.9094 -19.811,25.3858 -34.9843,25.3858 -14.5669,0 -25.5236,-7.2126 -32.9724,-21.685l0 64.7717 -21.5433 0zm265.362 -109.78l21.4528 4.82283c-10.2598,41.2638 -33.3937,61.8701 -69.4567,61.8701 -23.6969,0 -42.2913,-9.55512 -55.7795,-28.6614 -13.4882,-19.1102 -20.2323,-42.622 -20.2323,-70.5354 0,-28.8031 7.02362,-51.937 21.122,-69.4055 14.0984,-17.5157 32.9724,-26.2283 56.6693,-26.2283 35.126,0 57.7008,20.0906 67.6772,60.2283l-22.1063 4.40157c-8.05512,-29.8307 -23.2795,-44.7244 -45.7126,-44.7244 -16.5315,0 -29.3622,6.92913 -38.4961,20.7953 -9.08661,13.815 -13.6299,33.2992 -13.6299,58.3543 0,22.9488 4.68504,41.3543 14.0039,55.2165 9.3189,13.8622 21.685,20.7953 37.0472,20.7953 23.8858,0 39.6693,-15.6417 47.4409,-46.9291z"/>
   <path class="fil1" d="M1279.65 2947.14l0 10.937 -58.811 0 0 -99.6142 12.7795 0 0 88.6772 46.0315 0zm110.551 10.937l-12.1063 0 0 -86.9843 -32.4094 86.9843 -8.4685 0 -32.6063 -86.9843 0 86.9843 -10.5866 0 0 -99.6142 18.5315 0 29.9921 79.685 29.4213 -79.685 18.2323 0 0 99.6142zm54.378 0l-12.8543 0c0,-16.689 3.41339,-32.9331 10.2165,-48.7244 6.82283,-15.7677 15.1693,-29.0945 25.0315,-39.9567l-54.0787 0 1.24409 -10.9331 65.815 0 0 7.44488c-11.8583,14.2992 -20.752,29.1969 -26.6299,44.6654 -5.87795,15.4685 -8.8189,30.1654 -8.8189,44.0669 0,0.795276 0.0275591,1.91732 0.0748031,3.43701zm118.748 -99.6142l-1.02362 10.7362 -48.9724 0 -2.11811 32.3071c7.39764,-7.24803 15.5197,-10.8622 24.3622,-10.8622 9.34252,0 17.4134,3.24016 24.2126,9.71654 6.77559,6.45276 10.1654,14.7205 10.1654,24.811 0,10.2126 -3.68898,18.5827 -11.063,25.1102 -7.37008,6.5 -16.3661,9.76378 -27.0276,9.76378 -8.37008,0 -15.815,-2.19291 -22.3425,-6.57874 -6.5,-4.35827 -10.7874,-10.0354 -12.8307,-16.9882l10.6614 -3.66142c4.3622,11.5827 12.5827,17.3898 24.6614,17.3898 7.92126,0 14.2244,-2.36614 18.9094,-7.05118 4.65748,-4.70866 7,-10.685 7,-17.9843 0,-7.64961 -2.3189,-13.6024 -6.9252,-17.8858 -4.63386,-4.28346 -10.189,-6.42913 -16.6417,-6.42913 -9.44094,0 -17.2638,4.53543 -23.4409,13.5787l-9.83858 -2.11811 3.2126 -53.8543 59.0394 0z"/>
   <path class="fil1" d="M1611.25 2262.01l-12.4803 0 0 -99.6142 12.4803 0 0 99.6142zm63.3465 -46.9291l0 7.0748 -45.0354 0 0 -6.85039c17.4606,-12.4055 27.8465,-20.5276 31.1339,-24.3898 3.29134,-3.83465 4.93307,-7.62205 4.93307,-11.3819 0,-3.43701 -1.37008,-6.22835 -4.05906,-8.34646 -2.68898,-2.11811 -5.80315,-3.16142 -9.31496,-3.16142 -3.68898,0 -6.95276,1.16929 -9.76772,3.55906 -2.81496,2.3937 -4.40945,5.75591 -4.75591,10.0669l-8.16929 -2.3937c3.11024,-12.0827 10.7087,-18.1102 22.7677,-18.1102 6.5748,0 11.8819,1.79528 15.9646,5.35827 4.06299,3.58661 6.07874,7.79528 6.07874,12.6024 0,6.37795 -3.01181,12.3071 -9.04331,17.8346 -6.02756,5.5315 -13.9724,11.5866 -23.7874,18.1378l33.0551 0zm79.0157 13.4252l11.4094 2.56693c-5.45669,21.9449 -17.7638,32.9055 -36.9449,32.9055 -12.6024,0 -22.4921,-5.08268 -29.6654,-15.2441 -7.17323,-10.1654 -10.7638,-22.6693 -10.7638,-37.5157 0,-15.3189 3.74016,-27.626 11.2362,-36.9173 7.49606,-9.31496 17.5354,-13.9488 30.1417,-13.9488 18.6811,0 30.689,10.685 35.9961,32.0354l-11.7598 2.33858c-4.28346,-15.8661 -12.378,-23.7874 -24.311,-23.7874 -8.79528,0 -15.6181,3.68504 -20.4764,11.0591 -4.83071,7.35039 -7.24803,17.7126 -7.24803,31.0394 0,12.2047 2.48819,21.9961 7.44882,29.3701 4.95669,7.37008 11.5315,11.0591 19.7008,11.0591 12.7047,0 21.0984,-8.3189 25.2362,-24.9606z"/>
   <path class="fil1" d="M4209.18 1042.16l10.3622 0 0 65.0157c0,13.0512 -3.18898,22.3937 -9.59055,28.0709 -6.40157,5.65748 -14.7717,8.49606 -25.1339,8.49606 -11.5354,0 -20.0787,-2.91339 -25.6339,-8.74409 -5.5315,-5.85433 -8.3189,-15.122 -8.3189,-27.8228l0 -65.0157 12.4803 0 0 65.0157c0,7.74409 0.92126,13.2008 2.7126,16.3661 1.79528,3.16142 4.50787,5.47638 8.17323,6.99606 3.63386,1.49606 7.47244,2.26772 11.4567,2.26772 7.69685,0 13.5276,-2.01575 17.5118,-6.07874 3.98425,-4.03543 5.98031,-10.5354 5.98031,-19.5512l0 -65.0157zm22.8661 73.1339l11.2362 -2.56299c4.50787,13.5748 14.3228,20.3504 29.3937,20.3504 7.89764,0 13.8228,-1.66929 17.811,-4.98425 3.98425,-3.33465 5.97638,-7.79528 5.97638,-13.4016 0,-4.23228 -1.51969,-7.64567 -4.55906,-10.2126 -3.03543,-2.59055 -6.55118,-4.35827 -10.5354,-5.33071l-19.9291 -4.95669c-5.15354,-1.3189 -9.36614,-2.91339 -12.6535,-4.78346 -3.2874,-1.86614 -6.07874,-4.75591 -8.37008,-8.64173 -2.26772,-3.88583 -3.41339,-8.34646 -3.41339,-13.3543 0,-8.3189 3.14173,-14.9449 9.41732,-19.9016 6.27953,-4.93307 14.3228,-7.39764 24.1378,-7.39764 18.1102,0 30.0157,8.19291 35.6969,24.5866l-11.311 3.3622c-1.3189,-5.83071 -4.40945,-10.2638 -9.26378,-13.252 -4.85827,-2.98819 -10.0394,-4.48425 -15.5433,-4.48425 -5.45669,0 -10.315,1.44488 -14.5748,4.31102 -4.25984,2.8622 -6.37795,6.9252 -6.37795,12.1811 0,7.34646 5.40551,12.3031 16.1929,14.8937l18.6063 4.46063c17.0394,4.08268 25.5591,13.252 25.5591,27.5 0,8.61811 -3.2126,15.7677 -9.59055,21.4961 -6.40157,5.70472 -15.4173,8.57087 -27.0512,8.57087 -20.626,0 -34.252,-9.49213 -40.8543,-28.4488zm96.0315 26.4803l0 -99.6142 39.4055 0c9.91732,0 17.2913,2.44094 22.0709,7.29921 4.81102,4.85433 7.20079,10.5118 7.20079,16.937 0,11.2835 -5.90551,18.7835 -17.6614,22.4685 7,1.79528 12.2047,5.00787 15.6181,9.64173 3.41339,4.6063 5.1063,9.83858 5.1063,15.6929 0,7.82283 -2.64173,14.374 -7.92126,19.6535 -5.27953,5.27953 -13.4252,7.92126 -24.4134,7.92126l-39.4055 0zm12.0315 -56.9213l21.6969 0c8.99213,0 14.9961,-1.71654 18.0079,-5.15354 3.01575,-3.41339 4.53543,-7.44882 4.53543,-12.0827 0,-4.55906 -1.61811,-8.27165 -4.85827,-11.0866 -3.23622,-2.81496 -8.07087,-4.23228 -14.4961,-4.23228l-24.8858 0 0 32.5551zm0 45.9843l26.7283 0c6.5,0 11.5591,-1.59449 15.0945,-4.75591 3.56299,-3.16535 5.33071,-7.27559 5.33071,-12.3307 0,-3.56299 -0.795276,-6.85039 -2.41339,-9.88976 -1.59449,-3.03937 -3.8622,-5.38189 -6.77559,-7.05118 -2.91732,-1.64173 -7.27559,-2.46457 -13.0787,-2.46457l-24.8858 0 0 36.4921z"/>
   <path class="fil1" d="M3970.98 1465.94l10.3622 0 0 65.0157c0,13.0512 -3.18898,22.3937 -9.59055,28.0709 -6.40157,5.65748 -14.7717,8.49606 -25.1339,8.49606 -11.5354,0 -20.0787,-2.91339 -25.6339,-8.74409 -5.5315,-5.85433 -8.3189,-15.122 -8.3189,-27.8228l0 -65.0157 12.4803 0 0 65.0157c0,7.74409 0.92126,13.2008 2.7126,16.3661 1.79528,3.16142 4.50787,5.47638 8.17323,6.99606 3.63386,1.49606 7.47244,2.26772 11.4567,2.26772 7.69685,0 13.5276,-2.01575 17.5118,-6.07874 3.98425,-4.03543 5.98031,-10.5354 5.98031,-19.5512l0 -65.0157zm98.4449 99.6142l-12.7559 0 -10.0866 -29.1181 -36.8425 0 -8.91732 29.1181 -10.4134 0 32.3071 -99.6142 14.248 0 32.4606 99.6142zm-25.4606 -38.4606l-15.3189 -47.878 -15.4685 47.878 30.7874 0zm110.13 38.4606l-13.0512 0 -18.4094 -43.1181 -28.5236 0 0 43.1181 -11.6811 0 0 -99.6142 39.2598 0c10.6614,0 18.5551,2.91339 23.689,8.71654 5.12992,5.80315 7.69685,12.1811 7.69685,19.0827 0,5.30315 -1.44488,10.3858 -4.31102,15.2441 -2.8622,4.88189 -7.62205,8.34646 -14.2244,10.437l19.5551 46.1339zm-59.9843 -53.2835l26.0591 0c6.85039,0 11.9803,-1.79134 15.3425,-5.42913 3.38976,-3.61417 5.08268,-8.07087 5.08268,-13.3268 0,-5.25591 -1.79528,-9.34252 -5.35433,-12.2559 -3.59055,-2.91339 -8.09843,-4.38583 -13.5512,-4.38583l-27.5787 0 0 35.3976zm108.736 53.2835l-12.4055 0 0 -88.6811 -28.5236 0 0 -10.9331 69.5512 0 0 10.9331 -28.622 0 0 88.6811z"/>
   <path class="fil0 str0" d="M7647.95 932.957l634.854 0 0 727.437 -634.854 0 0 -727.437z"/>
   <path class="fil0 str0" d="M7648.67 935.358l1.66929 -1.45669 630.906 723.724 -1.67323 1.46063 -630.902 -723.728z"/>
   <path class="fil1" d="M8417.12 805.071l11.2362 -2.56299c4.50787,13.5748 14.3228,20.3504 29.3937,20.3504 7.89764,0 13.8228,-1.66929 17.811,-4.98425 3.98425,-3.33465 5.97638,-7.79528 5.97638,-13.4016 0,-4.23228 -1.51969,-7.64567 -4.55906,-10.2126 -3.03543,-2.59055 -6.55118,-4.35827 -10.5354,-5.33071l-19.9291 -4.95669c-5.15354,-1.3189 -9.36614,-2.91339 -12.6535,-4.78346 -3.2874,-1.86614 -6.07874,-4.75591 -8.37008,-8.64173 -2.26772,-3.88583 -3.41339,-8.34646 -3.41339,-13.3543 0,-8.3189 3.14173,-14.9449 9.41732,-19.9016 6.27953,-4.93307 14.3228,-7.39764 24.1378,-7.39764 18.1102,0 30.0157,8.19291 35.6969,24.5866l-11.311 3.3622c-1.3189,-5.83071 -4.40945,-10.2638 -9.26378,-13.252 -4.85827,-2.98819 -10.0394,-4.48425 -15.5433,-4.48425 -5.45669,0 -10.315,1.44488 -14.5748,4.31102 -4.25984,2.8622 -6.37795,6.9252 -6.37795,12.1811 0,7.34646 5.40551,12.3031 16.1929,14.8937l18.6063 4.46063c17.0394,4.08268 25.5591,13.252 25.5591,27.5 0,8.61811 -3.2126,15.7677 -9.59055,21.4961 -6.40157,5.70472 -15.4173,8.57087 -27.0512,8.57087 -20.626,0 -34.252,-9.49213 -40.8543,-28.4488zm143.685 4.50787l10.6614 2.19291c-1.94488,6.27953 -5.75591,11.4843 -11.3858,15.5945 -5.65354,4.11024 -12.2795,6.15354 -19.9252,6.15354 -10.0669,0 -18.2126,-3.53937 -24.437,-10.6142 -6.22835,-7.07087 -9.34252,-16.3622 -9.34252,-27.8465 0,-11.7323 3.2126,-21.2008 9.68898,-28.4252 6.47638,-7.22047 14.5984,-10.8346 24.3858,-10.8346 9.61811,0 17.3661,3.33858 23.2441,9.98819 5.85433,6.67717 8.86614,16.6417 9.01575,29.9449l-53.5827 0c0,11.1339 2.34252,18.6575 7,22.5433 4.68504,3.88583 9.61811,5.82677 14.8228,5.82677 9.38976,0 16.0157,-4.83071 19.8543,-14.5236zm-0.649606 -22.3937c-0.0984252,-4.13386 -0.795276,-7.8189 -2.04331,-11.0354 -1.26772,-3.2126 -3.40945,-5.9252 -6.4252,-8.19291 -3.01575,-2.26772 -6.64961,-3.38976 -10.8858,-3.38976 -5.6811,0 -10.5118,2.04331 -14.4724,6.12992 -3.96063,4.08268 -6.20079,9.56299 -6.67717,16.4882l40.5039 0zm41.2283 44.3661l-11.4606 0 0 -73.7087 10.0669 0 0 17.2126c3.55906,-8.12205 7.12205,-13.378 10.685,-15.7913 3.58661,-2.41732 7.24803,-3.61417 10.9843,-3.61417 1.17323,0 2.69291,0.0984252 4.53543,0.299213l0 10.937 -2.34252 0c-6.32677,0 -11.5827,2.36614 -15.7677,7.0748 -4.18504,4.73228 -6.40157,10.9331 -6.70079,18.6299l0 38.9606zm49.6457 -99.6142l0 12.7047 -12.3543 0 0 -12.7047 12.3543 0zm-0.374016 25.9055l0 73.7087 -11.4606 0 0 -73.7087 11.4606 0zm71.5197 51.7362l10.6614 2.19291c-1.94488,6.27953 -5.75591,11.4843 -11.3858,15.5945 -5.65354,4.11024 -12.2795,6.15354 -19.9252,6.15354 -10.0669,0 -18.2126,-3.53937 -24.437,-10.6142 -6.22835,-7.07087 -9.34252,-16.3622 -9.34252,-27.8465 0,-11.7323 3.2126,-21.2008 9.68898,-28.4252 6.47638,-7.22047 14.5984,-10.8346 24.3858,-10.8346 9.61811,0 17.3661,3.33858 23.2441,9.98819 5.85433,6.67717 8.86614,16.6417 9.01575,29.9449l-53.5827 0c0,11.1339 2.34252,18.6575 7,22.5433 4.68504,3.88583 9.61811,5.82677 14.8228,5.82677 9.38976,0 16.0157,-4.83071 19.8543,-14.5236zm-0.649606 -22.3937c-0.0984252,-4.13386 -0.795276,-7.8189 -2.04331,-11.0354 -1.26772,-3.2126 -3.40945,-5.9252 -6.4252,-8.19291 -3.01575,-2.26772 -6.64961,-3.38976 -10.8858,-3.38976 -5.6811,0 -10.5118,2.04331 -14.4724,6.12992 -3.96063,4.08268 -6.20079,9.56299 -6.67717,16.4882l40.5039 0zm41.2283 44.3661l-11.4606 0 0 -99.6142 11.4606 0 0 99.6142zm34.374 0l-11.4606 0 0 -99.6142 11.4606 0 0 99.6142zm71.5906 -21.9724l10.6614 2.19291c-1.94488,6.27953 -5.75591,11.4843 -11.3858,15.5945 -5.65354,4.11024 -12.2795,6.15354 -19.9252,6.15354 -10.0669,0 -18.2126,-3.53937 -24.437,-10.6142 -6.22835,-7.07087 -9.34252,-16.3622 -9.34252,-27.8465 0,-11.7323 3.2126,-21.2008 9.68898,-28.4252 6.47638,-7.22047 14.5984,-10.8346 24.3858,-10.8346 9.61811,0 17.3661,3.33858 23.2441,9.98819 5.85433,6.67717 8.86614,16.6417 9.01575,29.9449l-53.5827 0c0,11.1339 2.34252,18.6575 7,22.5433 4.68504,3.88583 9.61811,5.82677 14.8228,5.82677 9.38976,0 16.0157,-4.83071 19.8543,-14.5236zm-0.649606 -22.3937c-0.0984252,-4.13386 -0.795276,-7.8189 -2.04331,-11.0354 -1.26772,-3.2126 -3.40945,-5.9252 -6.4252,-8.19291 -3.01575,-2.26772 -6.64961,-3.38976 -10.8858,-3.38976 -5.6811,0 -10.5118,2.04331 -14.4724,6.12992 -3.96063,4.08268 -6.20079,9.56299 -6.67717,16.4882l40.5039 0zm-450.949 187.35l11.2362 -2.56299c4.50787,13.5748 14.3228,20.3504 29.3937,20.3504 7.89764,0 13.8228,-1.66929 17.811,-4.98425 3.98425,-3.33465 5.97638,-7.79528 5.97638,-13.4016 0,-4.23228 -1.51969,-7.64567 -4.55906,-10.2126 -3.03543,-2.59055 -6.55118,-4.35827 -10.5354,-5.33071l-19.9291 -4.95669c-5.15354,-1.3189 -9.36614,-2.91339 -12.6535,-4.78346 -3.2874,-1.86614 -6.07874,-4.75591 -8.37008,-8.64173 -2.26772,-3.88583 -3.41339,-8.34646 -3.41339,-13.3543 0,-8.3189 3.14173,-14.9449 9.41732,-19.9016 6.27953,-4.93307 14.3228,-7.39764 24.1378,-7.39764 18.1102,0 30.0157,8.19291 35.6969,24.5866l-11.311 3.3622c-1.3189,-5.83071 -4.40945,-10.2638 -9.26378,-13.252 -4.85827,-2.98819 -10.0394,-4.48425 -15.5433,-4.48425 -5.45669,0 -10.315,1.44488 -14.5748,4.31102 -4.25984,2.8622 -6.37795,6.9252 -6.37795,12.1811 0,7.34646 5.40551,12.3031 16.1929,14.8937l18.6063 4.46063c17.0394,4.08268 25.5591,13.252 25.5591,27.5 0,8.61811 -3.2126,15.7677 -9.59055,21.4961 -6.40157,5.70472 -15.4173,8.57087 -27.0512,8.57087 -20.626,0 -34.252,-9.49213 -40.8543,-28.4488zm138.579 0.649606l10.3622 1.8189c-1.4685,8.11811 -4.68504,14.4961 -9.71654,19.0787 -5.00787,4.61024 -11.2598,6.90157 -18.7559,6.90157 -10.1654,0 -17.9094,-3.73622 -23.2402,-11.2362 -5.33071,-7.49606 -7.97244,-16.6378 -7.97244,-27.4488 0,-11.185 2.79134,-20.4764 8.42126,-27.9016 5.60236,-7.42126 13.2756,-11.1339 22.9409,-11.1339 8.04331,0 14.4724,2.38976 19.3031,7.20079 4.85827,4.77953 7.84646,10.9606 9.01969,18.5551l-10.3622 1.9685c-1.94488,-12.1535 -7.82283,-18.2323 -17.6614,-18.2323 -6.32677,0 -11.185,2.68898 -14.5984,8.07087 -3.41339,5.35433 -5.1063,12.3307 -5.1063,20.8976 0,9.44094 1.69291,16.7638 5.08268,21.9961 3.3622,5.23228 8.11811,7.84646 14.248,7.84646 9.48819,0 15.4921,-6.12598 18.0354,-18.3819zm83.8465 25.8307l-11.4606 0 0 -44.7402c0,-5.25591 -0.322835,-9.18898 -0.972441,-11.8307 -0.673228,-2.61417 -2.21654,-4.88189 -4.6811,-6.79921 -2.44094,-1.94488 -5.28346,-2.88976 -8.49606,-2.88976 -5.87795,0 -10.811,2.41339 -14.7717,7.22441 -3.96063,4.80709 -5.95276,11.2559 -5.95276,19.3268l0 39.7087 -11.4606 0 0 -99.6142 11.4606 0 0 39.4803c5.20472,-10.4134 12.6535,-15.6181 22.3189,-15.6181 4.33465,0 8.19685,0.846457 11.5827,2.56693 3.38976,1.69291 5.98031,3.93307 7.77165,6.70079 1.79528,2.76378 3.01575,5.50394 3.68898,8.22047 0.645669,2.68898 0.972441,7.19685 0.972441,13.5236l0 44.7402zm81.0039 0l-10.7362 0 0 -47.3543c0,-6.82677 -1.4685,-11.6063 -4.43307,-14.3976 -2.98819,-2.76378 -6.5748,-4.16142 -10.811,-4.16142 -5.82677,0 -10.7362,2.34252 -14.6969,7.02756 -3.96063,4.65748 -5.95276,10.811 -5.95276,18.4567l0 40.4291 -11.4606 0 0 -73.7087 10.6654 0 0 13.5748c5.97638,-10.4134 13.7244,-15.6181 23.2638,-15.6181 5.50394,0 10.189,1.42126 14.0512,4.25984 3.88583,2.86614 6.52362,6.05512 7.9685,9.61417 1.42126,3.53937 2.14173,9.96457 2.14173,19.2559l0 42.622zm34.752 -99.6142l0 12.7047 -12.3543 0 0 -12.7047 12.3543 0zm-0.374016 25.9055l0 73.7087 -11.4606 0 0 -73.7087 11.4606 0zm56.2756 65.8386l0 9.03937c-4.03543,0.523622 -7.55118,0.799213 -10.5157,0.799213 -14.248,0 -21.3976,-7.44882 -21.3976,-22.3189l0 -44.3898 -13.0512 0 0 -8.9685 13.0512 0 0.523622 -18.5315 10.6614 -1.02362 0 19.5551 16.4921 0 0 8.9685 -16.4921 0 0 46.2835c0,7.57087 3.93701,11.3819 11.8071,11.3819 2.64173,0 5.6063,-0.275591 8.92126,-0.795276zm45.9843 0l0 9.03937c-4.03543,0.523622 -7.55118,0.799213 -10.5157,0.799213 -14.248,0 -21.3976,-7.44882 -21.3976,-22.3189l0 -44.3898 -13.0512 0 0 -8.9685 13.0512 0 0.523622 -18.5315 10.6614 -1.02362 0 19.5551 16.4921 0 0 8.9685 -16.4921 0 0 46.2835c0,7.57087 3.93701,11.3819 11.8071,11.3819 2.64173,0 5.6063,-0.275591 8.92126,-0.795276zm2.6378 -11.2598l10.937 -2.24409c2.44094,9.29134 10.1142,13.9252 23.0669,13.9252 4.75591,0 8.79134,-1.07087 12.1063,-3.2126 3.31102,-2.14173 4.95669,-5.15748 4.95669,-9.04331 0,-5.77953 -4.20866,-9.46457 -12.6299,-11.0079l-15.5433 -2.94094c-6.07874,-1.14567 -10.9094,-3.43701 -14.5236,-6.85039 -3.58661,-3.41339 -5.37795,-7.89764 -5.37795,-13.5 0,-6.17717 2.44094,-11.3583 7.37008,-15.5197 4.90945,-4.16142 11.5118,-6.22835 19.8307,-6.22835 16.0157,0 25.8819,6.25197 29.6417,18.7559l-10.5118 2.26772c-3.01575,-7.69685 -9.21654,-11.5315 -18.6063,-11.5315 -4.68504,0 -8.49606,0.944882 -11.4843,2.88976 -3.01575,1.91732 -4.50787,4.6063 -4.50787,8.04331 0,5.45669 3.83465,8.8937 11.4567,10.2874l14.374 2.56693c15.0472,2.71654 22.5669,9.98819 22.5669,21.8228 0,6.74803 -2.81496,12.2283 -8.3937,16.3898 -5.6063,4.16142 -13.0512,6.22835 -22.3425,6.22835 -17.4646,0 -28.248,-7.02362 -32.3858,-21.0984zm112.673 11.2598l0 9.03937c-4.03543,0.523622 -7.55118,0.799213 -10.5157,0.799213 -14.248,0 -21.3976,-7.44882 -21.3976,-22.3189l0 -44.3898 -13.0512 0 0 -8.9685 13.0512 0 0.523622 -18.5315 10.6614 -1.02362 0 19.5551 16.4921 0 0 8.9685 -16.4921 0 0 46.2835c0,7.57087 3.93701,11.3819 11.8071,11.3819 2.64173,0 5.6063,-0.275591 8.92126,-0.795276zm58.6614 -14.1024l10.6614 2.19291c-1.94488,6.27953 -5.75591,11.4843 -11.3858,15.5945 -5.65354,4.11024 -12.2795,6.15354 -19.9252,6.15354 -10.0669,0 -18.2126,-3.53937 -24.437,-10.6142 -6.22835,-7.07087 -9.34252,-16.3622 -9.34252,-27.8465 0,-11.7323 3.2126,-21.2008 9.68898,-28.4252 6.47638,-7.22047 14.5984,-10.8346 24.3858,-10.8346 9.61811,0 17.3661,3.33858 23.2441,9.98819 5.85433,6.67717 8.86614,16.6417 9.01575,29.9449l-53.5827 0c0,11.1339 2.34252,18.6575 7,22.5433 4.68504,3.88583 9.61811,5.82677 14.8228,5.82677 9.38976,0 16.0157,-4.83071 19.8543,-14.5236zm-0.649606 -22.3937c-0.0984252,-4.13386 -0.795276,-7.8189 -2.04331,-11.0354 -1.26772,-3.2126 -3.40945,-5.9252 -6.4252,-8.19291 -3.01575,-2.26772 -6.64961,-3.38976 -10.8858,-3.38976 -5.6811,0 -10.5118,2.04331 -14.4724,6.12992 -3.96063,4.08268 -6.20079,9.56299 -6.67717,16.4882l40.5039 0zm41.2283 44.3661l-11.4606 0 0 -99.6142 11.4606 0 0 99.6142zm34.374 0l-11.4606 0 0 -99.6142 11.4606 0 0 99.6142zm71.5906 -21.9724l10.6614 2.19291c-1.94488,6.27953 -5.75591,11.4843 -11.3858,15.5945 -5.65354,4.11024 -12.2795,6.15354 -19.9252,6.15354 -10.0669,0 -18.2126,-3.53937 -24.437,-10.6142 -6.22835,-7.07087 -9.34252,-16.3622 -9.34252,-27.8465 0,-11.7323 3.2126,-21.2008 9.68898,-28.4252 6.47638,-7.22047 14.5984,-10.8346 24.3858,-10.8346 9.61811,0 17.3661,3.33858 23.2441,9.98819 5.85433,6.67717 8.86614,16.6417 9.01575,29.9449l-53.5827 0c0,11.1339 2.34252,18.6575 7,22.5433 4.68504,3.88583 9.61811,5.82677 14.8228,5.82677 9.38976,0 16.0157,-4.83071 19.8543,-14.5236zm-0.649606 -22.3937c-0.0984252,-4.13386 -0.795276,-7.8189 -2.04331,-11.0354 -1.26772,-3.2126 -3.40945,-5.9252 -6.4252,-8.19291 -3.01575,-2.26772 -6.64961,-3.38976 -10.8858,-3.38976 -5.6811,0 -10.5118,2.04331 -14.4724,6.12992 -3.96063,4.08268 -6.20079,9.56299 -6.67717,16.4882l40.5039 0z"/>
   <path class="fil1" d="M7781.29 1465.94l10.3622 0 0 65.0157c0,13.0512 -3.18898,22.3937 -9.59055,28.0709 -6.40157,5.65748 -14.7717,8.49606 -25.1339,8.49606 -11.5354,0 -20.0787,-2.91339 -25.6339,-8.74409 -5.5315,-5.85433 -8.3189,-15.122 -8.3189,-27.8228l0 -65.0157 12.4803 0 0 65.0157c0,7.74409 0.92126,13.2008 2.7126,16.3661 1.79528,3.16142 4.50787,5.47638 8.17323,6.99606 3.63386,1.49606 7.47244,2.26772 11.4567,2.26772 7.69685,0 13.5276,-2.01575 17.5118,-6.07874 3.98425,-4.03543 5.98031,-10.5354 5.98031,-19.5512l0 -65.0157zm22.8661 73.1339l11.2362 -2.56299c4.50787,13.5748 14.3228,20.3504 29.3937,20.3504 7.89764,0 13.8228,-1.66929 17.811,-4.98425 3.98425,-3.33465 5.97638,-7.79528 5.97638,-13.4016 0,-4.23228 -1.51969,-7.64567 -4.55906,-10.2126 -3.03543,-2.59055 -6.55118,-4.35827 -10.5354,-5.33071l-19.9291 -4.95669c-5.15354,-1.3189 -9.36614,-2.91339 -12.6535,-4.78346 -3.2874,-1.86614 -6.07874,-4.75591 -8.37008,-8.64173 -2.26772,-3.88583 -3.41339,-8.34646 -3.41339,-13.3543 0,-8.3189 3.14173,-14.9449 9.41732,-19.9016 6.27953,-4.93307 14.3228,-7.39764 24.1378,-7.39764 18.1102,0 30.0157,8.19291 35.6969,24.5866l-11.311 3.3622c-1.3189,-5.83071 -4.40945,-10.2638 -9.26378,-13.252 -4.85827,-2.98819 -10.0394,-4.48425 -15.5433,-4.48425 -5.45669,0 -10.315,1.44488 -14.5748,4.31102 -4.25984,2.8622 -6.37795,6.9252 -6.37795,12.1811 0,7.34646 5.40551,12.3031 16.1929,14.8937l18.6063 4.46063c17.0394,4.08268 25.5591,13.252 25.5591,27.5 0,8.61811 -3.2126,15.7677 -9.59055,21.4961 -6.40157,5.70472 -15.4173,8.57087 -27.0512,8.57087 -20.626,0 -34.252,-9.49213 -40.8543,-28.4488zm96.0315 26.4803l0 -99.6142 39.4055 0c9.91732,0 17.2913,2.44094 22.0709,7.29921 4.81102,4.85433 7.20079,10.5118 7.20079,16.937 0,11.2835 -5.90551,18.7835 -17.6614,22.4685 7,1.79528 12.2047,5.00787 15.6181,9.64173 3.41339,4.6063 5.1063,9.83858 5.1063,15.6929 0,7.82283 -2.64173,14.374 -7.92126,19.6535 -5.27953,5.27953 -13.4252,7.92126 -24.4134,7.92126l-39.4055 0zm12.0315 -56.9213l21.6969 0c8.99213,0 14.9961,-1.71654 18.0079,-5.15354 3.01575,-3.41339 4.53543,-7.44882 4.53543,-12.0827 0,-4.55906 -1.61811,-8.27165 -4.85827,-11.0866 -3.23622,-2.81496 -8.07087,-4.23228 -14.4961,-4.23228l-24.8858 0 0 32.5551zm0 45.9843l26.7283 0c6.5,0 11.5591,-1.59449 15.0945,-4.75591 3.56299,-3.16535 5.33071,-7.27559 5.33071,-12.3307 0,-3.56299 -0.795276,-6.85039 -2.41339,-9.88976 -1.59449,-3.03937 -3.8622,-5.38189 -6.77559,-7.05118 -2.91732,-1.64173 -7.27559,-2.46457 -13.0787,-2.46457l-24.8858 0 0 36.4921z"/>
   <path class="fil1 str0" d="M8367.42 807.26l-241.673 167.11 -11.0709 -16.0118 -46.1654 67.7598 79.6929 -19.2677 -11.0709 -16.0118 241.673 -167.114 -11.3858 -16.4646z"/>
   <path class="fil0 str0" d="M9434.78 943.602l1454.87 0 0 872.925 -1454.87 0 0 -872.925z"/>
   <path class="fil1" d="M9721.75 761.638l0 69.1732c0,12.0827 -2.71654,20.5 -8.17323,25.2598 -5.45276,4.75591 -12.6772,7.14961 -21.6693,7.14961 -4.80709,0 -9.66535,-0.649606 -14.5236,-1.9685l0 -10.2126c4.75591,0.972441 9.09055,1.44488 12.9764,1.44488 5.55512,0 9.64173,-0.822835 12.2835,-2.4685 2.61417,-1.66535 4.38189,-3.81102 5.27953,-6.4252 0.897638,-2.61417 1.34646,-6.87402 1.34646,-12.7795l0 -69.1732 12.4803 0zm80.6339 99.6142l-11.3858 0c-0.425197,-2.34252 -0.870079,-6.75197 -1.29528,-13.2756 -5.08268,10.1614 -13.6772,15.2441 -25.8583,15.2441 -8.26772,0 -14.5945,-2.19291 -19.0315,-6.57874 -4.43307,-4.35827 -6.64961,-9.61417 -6.64961,-15.7402 0,-7.44882 3.16535,-13.5787 9.49213,-18.3583 6.32677,-4.81102 17.0866,-7.20079 32.2559,-7.20079 2.04331,0 5.30709,0.0984252 9.79134,0.299213 0,-5.83071 -0.448819,-10.063 -1.37008,-12.6535 -0.897638,-2.61811 -2.79134,-4.68504 -5.72835,-6.25197 -2.91732,-1.54724 -6.75197,-2.34252 -11.5079,-2.34252 -11.6339,0 -18.4094,4.43307 -20.3031,13.3031l-10.5866 -1.84646c2.59055,-13.5748 13.4252,-20.3504 32.5591,-20.3504 10.1614,0 17.3858,2.24409 21.6457,6.75197 4.23228,4.50787 6.37795,12.3031 6.37795,23.3898l0 31.311c0,5.20866 0.519685,9.96457 1.59449,14.2992zm-12.6811 -36.8661c-4.6811,-0.275591 -8.22047,-0.425197 -10.6614,-0.425197 -9.04331,0 -16.0906,1.47244 -21.0984,4.46063 -5.00787,2.96457 -7.52362,7.29921 -7.52362,12.9764 0,3.61417 1.37008,6.67717 4.05906,9.19291 2.69291,2.53937 6.60236,3.81102 11.7087,3.81102 6.9252,0 12.6063,-2.51575 17.0394,-7.52362 4.46063,-5.00787 6.67717,-10.9094 6.67717,-17.6614 0,-1.37008 -0.0748031,-2.96457 -0.200787,-4.83071zm84.5709 -36.8425l-25.4843 73.7087 -11.8819 0 -26.3543 -73.7087 12.7047 0 20.5 59.9094 20.3031 -59.9094 10.2126 0zm69.5276 73.7087l-11.3858 0c-0.425197,-2.34252 -0.870079,-6.75197 -1.29528,-13.2756 -5.08268,10.1614 -13.6772,15.2441 -25.8583,15.2441 -8.26772,0 -14.5945,-2.19291 -19.0315,-6.57874 -4.43307,-4.35827 -6.64961,-9.61417 -6.64961,-15.7402 0,-7.44882 3.16535,-13.5787 9.49213,-18.3583 6.32677,-4.81102 17.0866,-7.20079 32.2559,-7.20079 2.04331,0 5.30709,0.0984252 9.79134,0.299213 0,-5.83071 -0.448819,-10.063 -1.37008,-12.6535 -0.897638,-2.61811 -2.79134,-4.68504 -5.72835,-6.25197 -2.91732,-1.54724 -6.75197,-2.34252 -11.5079,-2.34252 -11.6339,0 -18.4094,4.43307 -20.3031,13.3031l-10.5866 -1.84646c2.59055,-13.5748 13.4252,-20.3504 32.5591,-20.3504 10.1614,0 17.3858,2.24409 21.6457,6.75197 4.23228,4.50787 6.37795,12.3031 6.37795,23.3898l0 31.311c0,5.20866 0.519685,9.96457 1.59449,14.2992zm-12.6811 -36.8661c-4.6811,-0.275591 -8.22047,-0.425197 -10.6614,-0.425197 -9.04331,0 -16.0906,1.47244 -21.0984,4.46063 -5.00787,2.96457 -7.52362,7.29921 -7.52362,12.9764 0,3.61417 1.37008,6.67717 4.05906,9.19291 2.69291,2.53937 6.60236,3.81102 11.7087,3.81102 6.9252,0 12.6063,-2.51575 17.0394,-7.52362 4.46063,-5.00787 6.67717,-10.9094 6.67717,-17.6614 0,-1.37008 -0.0748031,-2.96457 -0.200787,-4.83071zm61.4528 10.3858l11.2362 -2.56299c4.50787,13.5748 14.3228,20.3504 29.3937,20.3504 7.89764,0 13.8228,-1.66929 17.811,-4.98425 3.98425,-3.33465 5.97638,-7.79528 5.97638,-13.4016 0,-4.23228 -1.51969,-7.64567 -4.55906,-10.2126 -3.03543,-2.59055 -6.55118,-4.35827 -10.5354,-5.33071l-19.9291 -4.95669c-5.15354,-1.3189 -9.36614,-2.91339 -12.6535,-4.78346 -3.2874,-1.86614 -6.07874,-4.75591 -8.37008,-8.64173 -2.26772,-3.88583 -3.41339,-8.34646 -3.41339,-13.3543 0,-8.3189 3.14173,-14.9449 9.41732,-19.9016 6.27953,-4.93307 14.3228,-7.39764 24.1378,-7.39764 18.1102,0 30.0157,8.19291 35.6969,24.5866l-11.311 3.3622c-1.3189,-5.83071 -4.40945,-10.2638 -9.26378,-13.252 -4.85827,-2.98819 -10.0394,-4.48425 -15.5433,-4.48425 -5.45669,0 -10.315,1.44488 -14.5748,4.31102 -4.25984,2.8622 -6.37795,6.9252 -6.37795,12.1811 0,7.34646 5.40551,12.3031 16.1929,14.8937l18.6063 4.46063c17.0394,4.08268 25.5591,13.252 25.5591,27.5 0,8.61811 -3.2126,15.7677 -9.59055,21.4961 -6.40157,5.70472 -15.4173,8.57087 -27.0512,8.57087 -20.626,0 -34.252,-9.49213 -40.8543,-28.4488zm179.953 -47.2283l-21.2244 73.7087 -9.26378 0 -16.5157 -54.7283 -15.0945 54.7283 -9.41732 0 -22.122 -73.7087 11.5354 0 15.9921 54.9528 15.3189 -54.9528 8.3937 0 16.5669 55.1772 16.563 -55.1772 9.26772 0zm26.1299 -25.9055l0 12.7047 -12.3543 0 0 -12.7047 12.3543 0zm-0.374016 25.9055l0 73.7087 -11.4606 0 0 -73.7087 11.4606 0zm80.9331 73.7087l-10.7362 0 0 -47.3543c0,-6.82677 -1.4685,-11.6063 -4.43307,-14.3976 -2.98819,-2.76378 -6.5748,-4.16142 -10.811,-4.16142 -5.82677,0 -10.7362,2.34252 -14.6969,7.02756 -3.96063,4.65748 -5.95276,10.811 -5.95276,18.4567l0 40.4291 -11.4606 0 0 -73.7087 10.6654 0 0 13.5748c5.97638,-10.4134 13.7244,-15.6181 23.2638,-15.6181 5.50394,0 10.189,1.42126 14.0512,4.25984 3.88583,2.86614 6.52362,6.05512 7.9685,9.61417 1.42126,3.53937 2.14173,9.96457 2.14173,19.2559l0 42.622zm83.126 -85.2441l0 9.11811c-5.25591,0 -8.76772,0.622047 -10.5354,1.84252 -1.79528,1.19685 -2.96457,3.38976 -3.53937,6.55118 4.70866,5.45669 7.0748,11.3858 7.0748,17.811 0,6.72835 -2.56299,12.4803 -7.69685,17.2874 -5.12992,4.83465 -12.0315,7.22441 -20.7008,7.22441 -1.94094,0 -3.61024,-0.122047 -5.0315,-0.42126 -2.68898,-0.547244 -4.35827,-0.799213 -5.0315,-0.799213 -1.3189,0 -2.88976,0.649606 -4.75591,1.91732 -1.84646,1.29528 -2.76772,2.96457 -2.76772,5.00787 0,2.91339 1.34646,4.80709 4.01181,5.6811 2.68898,0.897638 8.9685,1.44488 18.9055,1.69291 8.42126,0.248031 14.622,0.822835 18.6339,1.72047 4.03543,0.893701 7.4252,2.88976 10.189,5.97638 2.76378,3.09055 4.16142,6.87402 4.16142,11.3583 0,14.0512 -12.3583,21.0748 -37.0669,21.0748 -11.7323,0 -20.2795,-1.76772 -25.6575,-5.27953 -5.38189,-3.53937 -8.07087,-8.24803 -8.07087,-14.126 0,-7.14961 3.75984,-12.0551 11.2598,-14.7441 -4.83465,-3.16535 -7.25197,-7.12598 -7.25197,-11.8819 0,-5.70472 3.41339,-10.0669 10.2402,-13.0787 -6.37795,-5.15748 -9.56693,-11.6575 -9.56693,-19.4803 0,-7.29921 2.71654,-13.2756 8.17323,-17.9606 5.45276,-4.65748 12.0787,-7 19.9252,-7 5.5315,0 10.5866,1.04724 15.0984,3.1378 0.744094,-4.80709 2.41339,-8.14567 5.07874,-9.98819 2.64173,-1.86614 6.67717,-2.79134 12.0827,-2.79134 0.523622,0 1.4685,0.0511811 2.83858,0.149606zm-35.0236 51.0906c4.85827,0 8.8189,-1.49213 11.8819,-4.48031 3.06693,-2.99213 4.61024,-6.87795 4.61024,-11.6614 0,-4.85433 -1.59449,-8.84252 -4.78346,-11.9291 -3.18898,-3.09055 -7.05118,-4.63386 -11.5591,-4.63386 -4.33465,0 -8.19291,1.4685 -11.5315,4.35827 -3.3622,2.88976 -5.0315,7 -5.0315,12.3543 0,4.78346 1.49213,8.62205 4.50787,11.5866 3.01181,2.93701 6.97244,4.40551 11.9055,4.40551zm-13.7244 31.1654c-5.35433,2.33858 -8.01969,5.70472 -8.01969,10.1378 0,3.75984 2.18898,6.64961 6.59843,8.71654 4.40945,2.07087 10.0157,3.11417 16.815,3.11417 6.32677,0 12.1063,-0.893701 17.3622,-2.66535 5.25591,-1.76772 7.89764,-4.78346 7.89764,-9.01575 0,-2.29134 -0.771654,-4.16142 -2.34252,-5.62992 -1.54331,-1.44488 -3.68504,-2.36614 -6.37795,-2.76378 -2.7126,-0.401575 -7.42126,-0.673228 -14.122,-0.874016 -8.01969,-0.19685 -13.9764,-0.547244 -17.811,-1.01969zm174.122 -47.2323l0 51.5394 -7.67323 0 -3.41339 -12.4803c-6.14961,8.74409 -15.2677,13.1299 -27.374,13.1299 -13.1299,0 -23.3661,-4.93307 -30.6654,-14.8228 -7.27165,-9.8622 -10.937,-21.8701 -10.937,-35.9685 0,-15.0709 3.8622,-27.6496 11.6102,-37.7402 7.72047,-10.063 18.2323,-15.0945 31.5118,-15.0945 18.3583,0 30.315,9.6378 35.9213,28.8937l-11.8346 2.84252c-1.69291,-7.40157 -4.88189,-12.7559 -9.56299,-16.1181 -4.66142,-3.3622 -9.76772,-5.0315 -15.3228,-5.0315 -9.81496,0 -17.063,3.96063 -21.7441,11.8819 -4.65748,7.94488 -7,17.8858 -7,29.8661 0,12.878 2.61417,22.9685 7.84646,30.2402 5.23228,7.27559 12.3307,10.9134 21.3465,10.9134 7,0 12.8543,-2.3189 17.5394,-6.97638 4.70472,-4.63386 7.04724,-11.0591 7.04724,-19.2283 0,-1.49606 -0.0511811,-3.31496 -0.149606,-5.40551l-24.6614 0 0 -10.4409 37.5157 0zm79.689 -49.3937l10.3622 0 0 65.0157c0,13.0512 -3.18898,22.3937 -9.59055,28.0709 -6.40157,5.65748 -14.7717,8.49606 -25.1339,8.49606 -11.5354,0 -20.0787,-2.91339 -25.6339,-8.74409 -5.5315,-5.85433 -8.3189,-15.122 -8.3189,-27.8228l0 -65.0157 12.4803 0 0 65.0157c0,7.74409 0.92126,13.2008 2.7126,16.3661 1.79528,3.16142 4.50787,5.47638 8.17323,6.99606 3.63386,1.49606 7.47244,2.26772 11.4567,2.26772 7.69685,0 13.5276,-2.01575 17.5118,-6.07874 3.98425,-4.03543 5.98031,-10.5354 5.98031,-19.5512l0 -65.0157zm46.2835 99.6142l-12.4803 0 0 -99.6142 12.4803 0 0 99.6142z"/>
   <path class="fil1" d="M9349.43 503.98l-23.4646 0 0 -187.287 66.4094 0c20.748,0 36.063,5.66535 45.9449,16.9528 9.88189,11.2874 14.8465,24.1654 14.8465,38.5906 0,16.1102 -5.38583,29.4134 -16.1102,39.9488 -10.7717,10.5394 -24.8228,15.7835 -42.1969,15.7835l-45.4291 0 0 76.0118zm0 -95.4961l43.0866 0c11.0512,0 19.9961,-3.32283 26.7402,-9.92913 6.79134,-6.64961 10.1654,-15.4055 10.1654,-26.3189 0,-9.3189 -3,-17.6102 -9.03937,-24.9606 -6.04331,-7.30709 -14.7992,-10.9606 -26.2283,-10.9606l-44.7244 0 0 72.1693zm245.831 32.5039l21.4528 4.82283c-10.2598,41.2638 -33.3937,61.8701 -69.4567,61.8701 -23.6969,0 -42.2913,-9.55512 -55.7795,-28.6614 -13.4882,-19.1102 -20.2323,-42.622 -20.2323,-70.5354 0,-28.8031 7.02362,-51.937 21.122,-69.4055 14.0984,-17.5157 32.9724,-26.2283 56.6693,-26.2283 35.126,0 57.7008,20.0906 67.6772,60.2283l-22.1063 4.40157c-8.05512,-29.8307 -23.2795,-44.7244 -45.7126,-44.7244 -16.5315,0 -29.3622,6.92913 -38.4961,20.7953 -9.08661,13.815 -13.6299,33.2992 -13.6299,58.3543 0,22.9488 4.68504,41.3543 14.0039,55.2165 9.3189,13.8622 21.685,20.7953 37.0472,20.7953 23.8858,0 39.6693,-15.6417 47.4409,-46.9291z"/>
   <path class="fil1" d="M5783.1 1383.67l-19.8661 0 0 -158.551 97.0984 0 0 17.4055 -77.2323 0 0 50.0748 63.9882 0 0 16.0197 -63.9882 0 0 75.0512zm172.031 -34.9685l16.9685 3.48819c-3.09055,9.99213 -9.15748,18.2795 -18.1181,24.8189 -9,6.54331 -19.5472,9.79528 -31.7165,9.79528 -16.0197,0 -28.9843,-5.62992 -38.8937,-16.8898 -9.91339,-11.2598 -14.8701,-26.0512 -14.8701,-44.3268 0,-18.6732 5.11417,-33.7402 15.4252,-45.2402 10.3071,-11.4961 23.2323,-17.2441 38.815,-17.2441 15.3031,0 27.6339,5.31102 36.9882,15.8976 9.3189,10.626 14.1142,26.4843 14.3543,47.6575l-85.2835 0c0,17.7205 3.72835,29.6929 11.1417,35.878 7.45276,6.18504 15.3031,9.27953 23.5906,9.27953 14.9488,0 25.4921,-7.69291 31.5984,-23.1142zm-1.0315 -35.6457c-0.15748,-6.57874 -1.26772,-12.4488 -3.24803,-17.563 -2.02362,-5.11417 -5.43307,-9.43701 -10.2323,-13.0433 -4.79528,-3.6063 -10.5827,-5.3937 -17.3228,-5.3937 -9.03937,0 -16.7323,3.25197 -23.0354,9.75591 -6.30709,6.5 -9.87402,15.2244 -10.626,26.2441l64.4646 0zm65.6181 70.6142l-18.2402 0 0 -158.551 18.2402 0 0 158.551zm128.098 -158.551l0 158.551 -16.5709 0 0 -20.1024c-8.20866,15.5039 -20.5787,23.2362 -37.0709,23.2362 -13.7165,0 -24.9764,-5.75197 -33.8189,-17.248 -8.80315,-11.5 -13.2441,-26.0472 -13.2441,-43.6142 0,-17.9606 4.40157,-32.9449 13.1654,-44.878 8.72047,-11.9764 20.3386,-17.9606 34.811,-17.9606 14.1142,0 25.6102,6.42126 34.5315,19.2677l0 -57.252 18.1969 0zm-18.1969 86.5512c0,-10.3071 -3.17323,-18.5551 -9.43701,-24.7402 -6.26378,-6.22441 -13.5984,-9.3189 -21.9252,-9.3189 -9.07874,0 -16.5315,4.04724 -22.3622,12.0945 -5.86614,8.04724 -8.79921,19.3465 -8.79921,33.8976 0,15.7402 2.69685,27.7126 8.08661,35.9213 5.3937,8.20866 12.7677,12.2913 22.126,12.2913 8.52362,0 16.0157,-3.56693 22.5197,-10.6654 6.53937,-7.1378 9.79134,-15.5039 9.79134,-25.0984l0 -24.3819zm63.5157 72l-8.84252 0 0 -158.551 18.2402 0 0 60.7402c8.36614,-15.185 19.9016,-22.7559 34.6102,-22.7559 13.4803,0 24.7402,5.31102 33.8622,15.8976 9.07874,10.626 13.6378,26.0472 13.6378,46.2283 0,17.4449 -4.48031,32.0354 -13.4016,43.8504 -8.96063,11.815 -20.5787,17.7244 -34.9291,17.7244 -15.937,0 -28.1496,-7.49606 -36.6732,-22.5197l-6.50394 19.3858zm9.39764 -45.9921c0.830709,12.0157 4.55906,20.6969 11.1024,26.1299 6.53937,5.42913 13.437,8.12598 20.7323,8.12598 9.27953,0 16.7717,-4.00394 22.4803,-12.0906 5.67323,-8.05118 8.52756,-19.0709 8.52756,-33.1063 0,-15.0669 -2.73622,-26.9606 -8.24803,-35.6063 -5.51181,-8.60236 -13.122,-12.9252 -22.878,-12.9252 -7.68898,0 -14.5906,3.05512 -20.7362,9.24016 -6.14567,6.14567 -9.83071,14.1142 -10.9803,23.8661l0 26.3661zm201.886 45.9921l-16.374 0 0 -22.4016c-8.36614,17.0079 -20.8189,25.5354 -37.3898,25.5354 -12.0118,0 -21.4488,-3.96457 -28.3071,-11.8583 -6.8622,-7.88976 -10.2717,-19.1063 -10.2717,-33.6575l0 -74.937 18.2402 0 0 74.937c0,11.6142 2.41732,19.5827 7.25591,23.9843 4.83465,4.3622 10.1496,6.54331 15.9764,6.54331 5.87008,0 11.2205,-1.66535 15.9803,-4.99606 4.75591,-3.33071 8.72047,-8.04724 11.8937,-14.2323 3.16929,-6.14567 4.75591,-12.8465 4.75591,-20.1417l0 -66.0945 18.2402 0 0 117.319zm20.6929 -30.4488l17.4055 -3.56693c3.88583,14.7874 16.0984,22.1614 36.7165,22.1614 7.57087,0 13.9921,-1.70472 19.2677,-5.11417 5.27165,-3.40945 7.88976,-8.20866 7.88976,-14.3937 0,-9.19685 -6.70079,-15.0669 -20.1024,-17.5236l-24.7402 -4.67717c-9.67323,-1.82283 -17.3661,-5.47244 -23.1142,-10.9055 -5.70866,-5.42913 -8.56299,-12.5669 -8.56299,-21.4882 0,-9.83071 3.88583,-18.0787 11.7362,-24.7008 7.81102,-6.62205 18.315,-9.90945 31.5591,-9.90945 25.4921,0 41.1929,9.94882 47.1811,29.8543l-16.7323 3.6063c-4.79921,-12.252 -14.6693,-18.3583 -29.6181,-18.3583 -7.45276,0 -13.5197,1.50787 -18.2756,4.60236 -4.79921,3.05118 -7.17717,7.33465 -7.17717,12.8031 0,8.68504 6.1063,14.1575 18.2362,16.378l22.878 4.08268c23.9488,4.3189 35.9213,15.8976 35.9213,34.7323 0,10.7441 -4.48031,19.4646 -13.3622,26.0866 -8.92126,6.62205 -20.7756,9.91339 -35.563,9.91339 -27.7913,0 -44.9606,-11.1811 -51.5433,-33.5827z"/>
  </g>
 </g>
</svg>
